<svg width="128" height="128" viewBox="0 0 128 128" fill="none" xmlns="http://www.w3.org/2000/svg">
<path d="M120 44H78C76.4 44 75.2 44.8 74.4 46.4L69.6 56H58.4L61.6 49.6C62.4 48.4 62 46.8 61.6 45.6C60.8 44.4 59.6 43.6 58 43.6H41.2C21.6 43.6 5.60002 58.4 4.00002 77.2C3.20002 87.2 6.80002 96.8 13.6 104.4C20.4 112 30 116 40 116C50 116 59.6 112 66.4 104.4C81.2 88.4 100 77.2 121.2 71.6C122.8 71.2 124 69.6 124 67.6V47.6C124 45.6 122.4 44 120 44ZM40 96C31.2 96 24 88.8 24 80C24 71.2 31.2 64 40 64C48.8 64 56 71.2 56 80C56 88.8 48.8 96 40 96Z" fill="white"/>
<path d="M68 32C70.4 32 72 30.4 72 28V16C72 13.6 70.4 12 68 12C65.6 12 64 13.6 64 16V28C64 30.4 65.6 32 68 32Z" fill="white"/>
<path d="M54 35.6C54.8 36.4 56 36.8 56.8 36.8C57.6 36.8 58.8 36.4 59.6 35.6C61.2 34 61.2 31.6 59.6 30L51.2 21.6C49.6 20 47.2 20 45.6 21.6C44 23.2 44 25.6 45.6 27.2L54 35.6Z" fill="white"/>
<path d="M79.2 36.8C80.4 36.8 81.2 36.4 82 35.6L90.4 27.2C92 25.6 92 23.2 90.4 21.6C88.8 20 86.4 20 84.8 21.6L76.4 30C74.8 31.6 74.8 34 76.4 35.6C77.2 36.4 78.4 36.8 79.2 36.8Z" fill="white"/>
</svg>
