<?xml version="1.0" encoding="UTF-8"?><svg id="Layer_1" xmlns="http://www.w3.org/2000/svg" viewBox="0 0 714.97 327.64"><defs><style>.cls-1{fill:#fff;}.cls-2{fill:#52b84e;}.cls-3{fill:#132113;}.cls-4{fill:#437840;}.cls-5{fill:#b2b2b2;}</style></defs><path class="cls-3" d="M351.15,307.66v-.07c-11.11-.58-21.07-4.75-28.77-11.99l-2.56,12.06h-157.91l13.03-61.22h-29.77c-14.57-.39-28.29,0-46.18,0-28.26,0-49.62-8.69-63.5-25.83-15.73-19.43-19.62-46.5-11.9-82.78l20.71-97.3h242.48c15.06,0,27.95,2.56,38.56,7.64l1.63-7.64h97.79c17.2,0,31.56,3.34,42.94,9.95l2.12-9.95h84.4l17.04,47.54,37.28-47.54h90.06l-43.83,205.92h-95.7l-18.93,23.29c-.09.52-.2,1.05-.31,1.58-4.8,22.44-22.43,36.35-46.03,36.35h-142.67ZM291.38,207.73l1.77-8.33c-9.04,2.47-18.87,3.71-29.44,3.71h-10.51l-.98,4.61h39.15Z"/><path class="cls-3" d="M615.37,54.52l-48.72,62.12-22.28-62.12h-63.21l-5.01,23.55c-1.09-1.91-2.32-3.73-3.69-5.43-9.72-12.02-25.77-18.11-47.69-18.11h-86.45l-3.85,18.09c-9.72-12.01-25.76-18.09-47.68-18.09h-144.5l-18.35,86.21c-4.71,22.09-12.72,22.09-15.74,22.09-1.36,0-2.16-.18-2.49-.3-.35-.71-1.87-4.69.61-16.32l19.52-91.69H55.65l-18.35,86.22c-6.79,31.88-3.81,55.12,9.09,71.05,11.09,13.7,28.79,20.64,52.61,20.64s50.11-6.61,70.27-31.89l-6.79,31.89h29.77l-13.03,61.22h81.4c2.87,0,5.57-.28,8.12-.78l-.17.78h39.91l2.77-13.05c5.44-.11,10.32-1.23,14.57-3.25.86,1.6,1.86,3.13,3.01,4.6,6.03,7.65,14.68,11.69,25.04,11.69,5.32,0,10.41-1.08,15.25-3.15l-.67,3.15h125.37c17.11,0,28.89-9.18,32.32-25.23,1.76-8.37.2-14.38-2.06-18.47l10.82-23.39,7.23,18.53,38.52-47.41-7.4,34.74h70.19l37.87-177.9h-65.95ZM260.54,221.73c-.77,0-1.52.04-2.27.08l.04-.08h-23.37l6.93-32.62h21.85c19.73,0,36.16-4.84,48.99-14.28l-9.98,46.9h-42.18ZM442.95,179.63c4.68-2.56,9.31-5.81,13.7-9.92l-4.58,21.5-9.12-11.57ZM372.67,222.88l3.56-16.75,12.29,15.6h-4.76l-1.24,5.81c-2.94-2.13-6.24-3.7-9.85-4.66ZM515.76,221.73l6.08-28.64,11.17,28.64h-17.25Z"/><path class="cls-1" d="M48.96,141.61l16.14-75.81h43.32l-16.14,75.81c-4.62,21.66.29,32.49,14.73,32.49s23.97-10.83,28.59-32.49l16.14-75.81h43.32l-16.14,75.81c-10.76,50.54-37.8,75.81-81.12,75.81s-59.6-25.27-48.84-75.81Z"/><path class="cls-1" d="M230.04,174.1l-9.21,43.32h-43.32l32.27-151.62h75.81c36.1,0,50.29,18.05,42.56,54.15-7.65,36.1-29.53,54.15-65.63,54.15h-32.49ZM243.91,109.12l-4.66,21.66h32.49c7.22,0,11.59-3.61,13.1-10.83,1.59-7.22-1.23-10.83-8.45-10.83h-32.49Z"/><path class="cls-1" d="M368.02,174.1l-9.21,43.32h-43.32l32.27-151.62h75.81c36.1,0,50.29,18.05,42.56,54.15-6.14,28.88-21.37,46.21-45.7,51.98l35.85,45.49h-54.15l-34.11-43.32ZM381.88,109.12l-4.66,21.66h32.49c7.22,0,11.59-3.61,13.1-10.83,1.59-7.22-1.23-10.83-8.45-10.83h-32.49Z"/><path class="cls-1" d="M594.34,156.68l-49.35,60.74-28.05-71.91-15.27,71.91h-43.32l32.27-151.62h43.32l27.18,75.81,59.46-75.81h43.32l-32.27,151.62h-43.32l15.38-72.24-9.35,11.5"/><path class="cls-2" d="M236.57,233.01l-6.03,13.04h-16.3l-.72,3.26h19.56l-6.03,13.04h-16.3l-.68,3.26h19.56l-6.03,13.04h-29.34l9.71-45.64h32.6Z"/><path class="cls-2" d="M254.76,262.35c-10.87,0-15.25-4.93-13.14-14.8,2.06-9.69,8.53-14.54,19.4-14.54h22.82l-6.03,13.04h-19.56c-2.17,0-3.37.5-3.59,1.5-.26,1.17.7,1.76,2.87,1.76h9.78c10.87,0,15.28,4.85,13.24,14.54-2.11,9.87-8.6,14.8-19.46,14.8h-22.82l6.03-13.04h19.56c2.17,0,3.39-.59,3.65-1.76.2-1-.79-1.5-2.97-1.5h-9.78Z"/><path class="cls-2" d="M300.65,265.6l-2.77,13.04h-13.04l9.71-45.64h22.82c10.87,0,15.14,5.43,12.81,16.3-2.3,10.87-8.89,16.3-19.76,16.3h-9.78ZM304.82,246.05l-1.4,6.52h9.78c2.17,0,3.49-1.09,3.94-3.26.48-2.17-.37-3.26-2.54-3.26h-9.78Z"/><path class="cls-2" d="M352.69,278.65c-6.3,0-11.21-2.23-14.72-6.68-3.51-4.45-4.59-9.83-3.24-16.14,1.33-6.3,4.69-11.68,10.11-16.14,5.41-4.46,11.27-6.68,17.57-6.68s11.2,2.23,14.7,6.68c3.5,4.45,4.59,9.83,3.26,16.14-1.35,6.3-4.72,11.68-10.12,16.14-5.4,4.46-11.25,6.68-17.55,6.68ZM362.98,262.74c2.31-1.91,3.76-4.22,4.35-6.91.56-2.69.1-5-1.4-6.91-1.5-1.91-3.6-2.87-6.29-2.87s-5.2.96-7.53,2.87c-2.33,1.91-3.77,4.22-4.34,6.91-.59,2.7-.13,5,1.38,6.91,1.51,1.91,3.61,2.87,6.31,2.87s5.2-.96,7.51-2.87Z"/><path class="cls-2" d="M399.31,265.6l-2.77,13.04h-13.04l9.71-45.64h22.82c10.87,0,15.14,5.43,12.81,16.3-1.85,8.69-6.43,13.91-13.76,15.65l10.79,13.69h-16.3l-10.27-13.04ZM403.48,246.05l-1.4,6.52h9.78c2.17,0,3.49-1.09,3.94-3.26.48-2.17-.37-3.26-2.54-3.26h-9.78Z"/><path class="cls-2" d="M458.93,246.05l-6.94,32.6h-13.04l6.94-32.6h-9.78l2.77-13.04h32.6l-6.03,13.04h-6.52Z"/><path class="cls-2" d="M486.32,262.35c-10.87,0-15.25-4.93-13.14-14.8,2.06-9.69,8.53-14.54,19.4-14.54h22.82l-6.03,13.04h-19.56c-2.17,0-3.37.5-3.59,1.5-.26,1.17.7,1.76,2.87,1.76h9.78c10.87,0,15.28,4.85,13.24,14.54-2.11,9.87-8.6,14.8-19.46,14.8h-22.82l6.03-13.04h19.56c2.17,0,3.39-.59,3.65-1.76.2-1-.79-1.5-2.97-1.5h-9.78Z"/><path class="cls-5" d="M103.36,193.38l10.3-20.18s0-.02,0-.03c-2.13.6-4.38.93-6.78.93-14.44,0-19.35-10.83-14.73-32.49l16.14-75.81h-22.55l-18.05,89.61s-6.92,35.46,35.67,37.98Z"/><path class="cls-5" d="M173.95,65.8c-5.07,22.27-14.27,62.88-19.96,89.16-8.18,37.77-50.24,38.42-50.24,38.42l9.77,22.8c34.17-5.63,55.95-30.48,65.33-74.57l16.14-75.81h-21.04Z"/><polygon class="cls-5" points="481.18 217.42 508.46 83.58 490.62 65.8 458.34 217.42 481.18 217.42"/><polygon class="cls-5" points="508.46 83.58 553.33 176.2 544.98 217.42 508.46 124.27 508.46 83.58"/><polygon class="cls-5" points="620.58 65.8 637.39 83.58 551.29 185.25 561.12 141.61 620.58 65.8"/><polygon class="cls-5" points="660.11 83.58 637.39 83.58 611.12 217.42 631.63 217.42 660.11 83.58"/><polygon class="cls-5" points="335.56 217.42 366.05 83.58 347.77 65.8 315.49 217.42 335.56 217.42"/><polygon class="cls-5" points="420.48 172.05 456.29 217.42 428.06 217.42 392.53 172.95 420.48 172.05"/><path class="cls-5" d="M414.37,109.12c7.22,0,10.03,3.61,8.45,10.83-1.52,7.22-5.89,10.83-13.1,10.83h-32.49l-2.69,20.28c56.86,3.15,62.54-3.91,70.61-35.57,3.25-12.76-1.02-20.72-6.18-25.51-4.56-4.23-10.67-6.39-16.89-6.39h-56.03l15.83,25.54h32.49Z"/><polygon class="cls-5" points="197.58 217.42 228.08 83.58 209.79 65.8 177.52 217.42 197.58 217.42"/><path class="cls-5" d="M276.4,109.12c7.22,0,10.03,3.61,8.45,10.83-1.52,7.22-5.89,10.83-13.1,10.83h-32.49l-2.69,20.28c56.86,3.15,62.54-3.91,70.61-35.57,3.25-12.76-1.02-20.72-6.18-25.51-4.56-4.23-10.67-6.39-16.89-6.39h-56.03l15.83,25.54h32.49Z"/><polygon class="cls-4" points="194.26 278.64 223.59 278.64 229.62 265.6 210.07 265.6 210.75 262.34 227.05 262.34 230.59 254.68 199.35 254.68 194.26 278.64"/><path class="cls-4" d="M254.75,262.34h9.78c2.17,0,3.16.5,2.97,1.5-.26,1.17-1.48,1.76-3.65,1.76h-19.56l-6.03,13.04h22.82c10.87,0,17.35-4.93,19.46-14.8.8-3.8.59-6.85-.59-9.16h-38.55c1.11,5.09,5.55,7.66,13.36,7.66Z"/><path class="cls-4" d="M284.84,278.64h13.04l2.77-13.04h9.78c8.89,0,14.91-3.64,18.07-10.92h-38.56l-5.1,23.96Z"/><path class="cls-4" d="M367.33,255.82c-.59,2.7-2.04,5-4.35,6.91-2.31,1.91-4.82,2.87-7.51,2.87s-4.8-.96-6.31-2.87c-1.51-1.91-1.97-4.22-1.38-6.91.08-.39.22-.76.34-1.14h-13.09c-.1.38-.21.75-.29,1.14-1.35,6.3-.27,11.68,3.24,16.14,3.51,4.46,8.41,6.68,14.72,6.68s12.15-2.23,17.55-6.68c5.4-4.45,8.77-9.83,10.12-16.14.08-.39.13-.76.19-1.14h-13.05c-.04.37-.09.75-.17,1.14Z"/><path class="cls-4" d="M383.5,278.64h13.04l2.77-13.04,10.27,13.04h16.3l-10.79-13.69c5.65-1.34,9.66-4.78,12.05-10.26h-38.54l-5.1,23.96Z"/><polygon class="cls-4" points="438.95 278.64 451.99 278.64 457.09 254.68 444.05 254.68 438.95 278.64"/><path class="cls-4" d="M486.31,262.34h9.78c2.17,0,3.16.5,2.97,1.5-.26,1.17-1.48,1.76-3.65,1.76h-19.56l-6.03,13.04h22.82c10.87,0,17.35-4.93,19.46-14.8.8-3.8.59-6.85-.59-9.16h-38.55c1.11,5.09,5.55,7.66,13.36,7.66Z"/><rect class="cls-3" x="241.03" y="186.46" width="65.64" height="21.54"/><path class="cls-3" d="M319.82,307.66h37.54s-30.66-24.11-33.18-22.6-10.06,11.27-10.06,11.27l5.7,11.34Z"/></svg>