<svg width="128" height="128" viewBox="0 0 128 128" fill="none" xmlns="http://www.w3.org/2000/svg">
<path fill-rule="evenodd" clip-rule="evenodd" d="M26.6667 101.333C26.6667 98.3877 29.0545 96 32 96H96C98.9456 96 101.333 98.3877 101.333 101.333C101.333 104.279 98.9456 106.667 96 106.667H32C29.0545 106.667 26.6667 104.279 26.6667 101.333Z" fill="white"/>
<path fill-rule="evenodd" clip-rule="evenodd" d="M52.6862 25.1046C58.9344 18.8562 69.065 18.8562 75.3136 25.1046L89.0016 38.7925C90.625 40.4157 93.1045 40.8181 95.1578 39.7915L98.9482 37.8964C107.134 33.8034 116.182 41.6509 113.289 50.3336L103.491 79.7264C101.313 86.2597 95.1989 90.6667 88.312 90.6667H39.688C32.8012 90.6667 26.6869 86.2597 24.5091 79.7264L14.7116 50.3336C11.8173 41.6509 20.8656 33.8034 29.0518 37.8964L32.842 39.7915C34.8952 40.8181 37.3751 40.4157 38.9983 38.7925L52.6862 25.1046Z" fill="white"/>
</svg>
