<svg width="128" height="128" viewBox="0 0 128 128" fill="none" xmlns="http://www.w3.org/2000/svg">
<g clip-path="url(#clip0_1_16)">
<path d="M109.496 86.2685L99.4022 58.167H61.6287C63.2615 62.1828 64.1757 66.5578 64.1757 71.1475C64.1757 90.2023 48.668 105.702 29.621 105.702C24.0702 105.702 18.8397 104.359 14.1912 102.027V125.12H69.6952V114.995C81.0547 110.331 90.1992 101.378 95.121 90.1513L107.535 89.1435C108.207 89.0888 108.816 88.7295 109.199 88.1748C109.582 87.62 109.687 86.917 109.496 86.2685Z" fill="white"/>
<path d="M122.492 34.4248H105.215C99.8945 11.3858 78.66 -2.88 53.2537 -2.88C23.8438 -2.88 0 20.9638 0 50.374V69.6045C0 69.714 0.01175 69.8233 0.01175 69.9328H0.0157502C0.1915 84.9405 12.4025 97.0655 27.4573 97.0655C42.6213 97.0655 54.9182 84.7685 54.9182 69.6045C54.9182 61.1825 51.1175 53.6593 45.1487 48.62H122.493V34.4248H122.492ZM27.457 81.9598C20.6328 81.9598 15.1015 76.4285 15.1015 69.6043C15.1015 62.776 20.6328 57.2448 27.457 57.2448C34.2853 57.2448 39.8165 62.776 39.8165 69.6043C39.8162 76.4285 34.285 81.9598 27.457 81.9598Z" fill="white"/>
</g>
<defs>
<clipPath id="clip0_1_16">
<rect width="128" height="128" fill="white"/>
</clipPath>
</defs>
</svg>
