<?xml version="1.0" encoding="UTF-8"?><svg id="Layer_1" xmlns="http://www.w3.org/2000/svg" viewBox="0 0 595.4 583.8"><defs><style>.cls-1{fill:#231f20;}.cls-2{fill:#fff;}.cls-3{fill:#52b84e;}.cls-4{fill:#132113;}.cls-5{fill:#00ab51;}.cls-6{fill:#437840;}.cls-7{fill:#b2b2b2;}.cls-8{fill:#0d5f32;}.cls-9{fill:#f6bf7b;}.cls-10{fill:#ce8d34;}.cls-11{fill:#9b7345;}</style></defs><path class="cls-3" d="M505.42,115.66l62.7-50.86S258.26-18.1,27.82,187.25c0,0,3.14,202.22,174,332.33l-7.84,61.14S459.43,420.82,505.42,115.66ZM241.01,485.62s-126.45-82.56-161.98-277.99c0,0,160.24-142.83,380.4-110.78,0,0,6.27,218.42-218.42,388.76Z"/><path class="cls-6" d="M491.93,76.34l-19.74,7.63L66.27,202.18l-13.89-6S242.22,26.72,491.93,76.34Z"/><path class="cls-6" d="M52.38,196.18l-24.51-9.02s3.14,202.22,174,332.33l30.42-1.31S56.49,395.9,52.38,196.18Z"/><path class="cls-6" d="M232.01,518.7l-38.26,62.45S459.19,421.25,505.18,116.09l62.7-50.86-75.95,11.11s-1.01,249.41-259.93,442.36Z"/><path class="cls-4" d="M430.46,307.18l89.85-11.61-66.09-33.02c.71-2.21,1.1-3.69,1.25-4.3,2.94-10.05,4.65-20.57,5.11-31.36l79.77-34.94-86.59-15.67c-1.92-6.04-3.53-9.6-3.61-9.78l-1.56-3.43-10.36-3.74c-5.07-8.35.08-29.02,13.86-54.99,3.07-5.78,3.53-12.61,1.27-18.75-2.27-6.18-7.1-11.13-13.24-13.56-22.68-9-48.12-28.96-58-37.13-3.64-3.01-8.25-4.67-12.98-4.67-1.13,0-2.27.1-3.38.28l-51.41,8.64c-4.06.68-7.78,2.75-10.47,5.81-4.55,5.18-8.26,7.21-9.63,7.3-6,.41-10.23,1.75-13.26,4.29-2.04-.06-4.08-.09-6.11-.09-25.19,0-44.58,4.59-53.75,7.27-4.66-4.17-13.14-10.02-27.94-15.59-5.05-1.9-10-2.86-14.72-2.86-15.83,0-25.54,10.73-28.79,17.07l-.6.88-.2,1.36c-.26.89-2.18,6.61-10.07,10.73-4.75,2.48-12.56,4.02-21.97,4.35-4.7.16-9.02,2.4-11.86,6.14-2.84,3.73-3.84,8.49-2.74,13.05l4.09,17.03c-4.51,5.55-12.37,16.77-17.3,32.6-3.6,11.55-2.28,22.98,3.71,32.18.69,1.06,1.48,2.14,2.35,3.19-8.28,9.93-9.81,22.72-11.09,33.47l-.04.36c-8.11,18.04-9.88,30.05-10.03,36.68-3.35,3.2-7.4,8.54-8.25,16.11-.9,8.02,2.85,14.53,6.17,18.59-1.9,7.78-4.02,22.61,1.13,39.9,9.52,35.97,40.43,42.14,53.26,43.12,4.6,7.12,15.52,18.33,40.44,24.5,6.93,1.71,14.04,2.58,21.13,2.58,20.75,0,37.74-7.33,48.57-12.75,19.43,21.72,51.45,29.64,76.35,29.64,9.92,0,19.38-1.25,27.36-3.6l.34-.1.33-.13c19.55-7.5,34.89-20.19,45.71-37.8l49.57,38.43-27.25-82.37c7.98-7.03,15.24-14.84,21.68-23.31Z"/><path class="cls-4" d="M472.19,83.97C237.26,49.78,66.27,202.18,66.27,202.18c37.92,208.53,172.85,296.63,172.85,296.63,239.76-181.77,233.07-414.84,233.07-414.84Z"/><path class="cls-2" d="M391.81,307.15l-2.58.33c-1.11.14-27.25,3.68-38.09,25.39l-1.16,2.32,68.74,53.29-26.91-81.33Z"/><path class="cls-4" d="M316.21,48.64l51.41-8.64c3.28-.55,6.62.34,9.18,2.46,9.85,8.14,36.42,29.03,60.4,38.55,7.86,3.12,11.34,12.32,7.37,19.8-10.39,19.57-24.64,52.63-11.41,66.73l9.23,3.34s18.25,40.13,4.83,85.72c0,0-10.23,43.14-53.26,75.42-4.47,17.68-13.53,56.24-56.03,72.54-28.12,8.31-77.65,1.28-98.75-28.76-11.82,6.07-37.71,20.77-69.98,12.78-32.28-7.99-37.07-24.61-37.07-24.61,0,0-39.95,2.24-50.17-36.75-6.71-22.37.32-39.95.32-39.95,0,0-8.31-6.6-7.35-15.13.96-8.52,8.52-13,8.52-13,0,0-2.45-12.14,9.59-38.35,1.7-14.06,2.88-28.33,16.3-36.54-2.77-.32-17.9-11.57-11.4-32.45,6.5-20.88,18.53-32.85,18.53-32.85l-5.17-21.53c-.98-4.08,2.03-8.01,6.22-8.16,7.36-.26,18.15-1.37,25.79-5.36,12.68-6.6,14.7-16.83,14.7-16.83,0,0,9.48-18.53,32.38-9.91,22.9,8.63,28.44,17.47,28.44,17.47,0,0,27.48-10.33,66.58-8.31.96-1.38,1.15-3.89,9.81-4.49,6.23-.43,12.63-6.78,15.74-10.32,1.35-1.54,3.21-2.55,5.23-2.89Z"/><path class="cls-2" d="M122.94,101.87s28.65-3.83,35.15-13.53,13.42-27.38,35.9-17.04l14.7,6.18-29.29,12.25s2.77-4.69-.43-9.05c0,0-4.79,7.56-15.13,14.59-10.33,7.03-.21,7.46-.21,7.46l-8.2,6.82s-7.67-7.14-29.4,5.54l-3.09-13.21Z"/><path class="cls-2" d="M147.54,167.86s22.05-3.57,30.2-10.6c0,0-2.61-37.5,38.29-72.65,0,0-34.09,10.65-64.13,30.47,0,0-12.36-3.2-24.07,5.97,0,0-25.03,25.25-22.8,40.9s14.7,11.18,14.7,11.18c0,0,7.51-25.41,35.79-38.99,0,0-11.98,22.53-7.99,33.71Z"/><path class="cls-2" d="M112.71,208.92s-6.6-4.58-4.58-8.2c2.02-3.62,9.91,1.49,11.08,7.35s8.2,20.88-5.01,25.03c-13.21,4.15-12.46-16.83-8.63-20.88,3.83-4.05,7.14-3.3,7.14-3.3Z"/><path class="cls-2" d="M143.71,208.6s9.37-6.18,10.97-9.91c1.6-3.73-6.6-4.69-13,3.09s-18.32,35.37,17.15,26.84l20.98-23.86.75,16.4,14.49-4.6s-13.85-9.89-16.72-26.19c0,0,2.34,18.82-31.21,26.19l-3.41-7.97Z"/><path class="cls-2" d="M213.53,303.51s-4.95,31.48,17.42,62.16c0,0-52.73,20.61-80.21-4.95-27.48-25.57-40.26-58.48-40.26-58.48,0,0-7.67,32.44,10.07,52.41,0,0-44.9-14.86-26.68-69.19,0,0,37.88-23.94,84.72,12.88,1.06.83,2.52-.32,1.97-1.54-4.82-10.76-19.95-36.26-54.1-33.22-16.8,1.63-29.07,10.04-33.58,13.59-1.16.91-2.78.95-3.99.1l-2.3-1.63c-1.76-1.25-1.9-3.82-.27-5.23,6.71-5.8,25.02-18.1,58.14-16.42,32.5,1.65,53.1,23.81,69.08,49.53Z"/><path class="cls-2" d="M236.06,314.7s35.79,19.17,65.19-44.74c0,0,30.25,34.94,73.5,15.55,0,0,14.91,90.97-40.48,102.9-55.39,11.93-92.25-13.85-98.21-73.71Z"/><path class="cls-5" d="M397.34,165.99s12.57,2.56,17.26,1.07c12.78,4.69,22.34,9.1,22.34,9.1,0,0,13.86,36.92-1.15,86.77-10.05,33.39-42.18,60.08-42.18,60.08,0,0,26.2-55.6,16.94-102.58-9.27-46.98-13.21-54.43-13.21-54.43Z"/><path class="cls-8" d="M422.27,169.98c-2.37-.94-4.95-1.92-7.68-2.92-4.69,1.49-17.26-1.07-17.26-1.07,0,0,3.94,7.46,13.21,54.43,9.27,46.98-16.94,102.58-16.94,102.58,44.83-55.18,32.37-134.49,28.67-153.02Z"/><path class="cls-2" d="M414.74,256.82s-15.66,20.31-8.37,41.98l73.41-9.48-65.03-32.49Z"/><path class="cls-7" d="M407.03,297.58l73.41-9.48c-40.81.16-64.45-5.65-74.81-9.07-.89,5.73-.77,12.08,1.41,18.56Z"/><path class="cls-4" d="M404.2,302.27l-.83-2.46c-7.74-23,8.18-44.03,8.87-44.92l1.59-2.06,76.63,38.29-86.26,11.14ZM415.79,260.88c-3.33,5.24-10.94,19.42-7.16,34.44l60.45-7.81-53.29-26.63Z"/><path class="cls-2" d="M177.74,253.66s-4.31-21.92-2.72-37.08c0,0-20.77,26.38-21.73,31.17,0,0,10.87.96,24.45,5.91Z"/><path class="cls-2" d="M98.17,230.24l14.46,19.9s-12.7,1.28-21.33,6.55c0,0-1.76-14.72,6.87-26.45Z"/><path class="cls-2" d="M115.73,249.19s17.36-2.66,32.16-1.3l-4.67-11.08s-7.19,2.56-8.87,6.38c0,0-2.02-4.49-4.86-7.15,0,0-4.24,5.27-4.57,8.18l-.18.06s-2.61-4.58-5.06-6.29c0,0-4.46,8.59-3.94,11.2Z"/><path class="cls-2" d="M180.46,227.62l3.04,29.08s43.94,24,53.69,37.9,22.05,4.95,35.79-10.39c13.74-15.34,18.69-30.23,13.42-54.68s-40.9-26.36-105.94-1.92Z"/><path class="cls-2" d="M242.35,163.65s10.55-10.76,15.87-11.82c5.33-1.07,10.97,10.33,6.6,20.13s-13.95,12.46-24.82,10.33c0,0,9.48-6.5,2.34-18.64Z"/><path class="cls-4" d="M291.5,234.73l-13.39,20.71-2.46,3.8c-1.37-2.5-9.09-16.65-10.64-19.47,0,0,4.48.38,4.48.38l-7.19,9.11-2.5,3.16c-1.3-2.32-6.15-10.99-7.54-13.46l4.82-.23c-.7,1.6-3.75,8.53-4.39,9.98l-2.29-.68c-10.03-3.72-20.57-6.8-31.34-7.36,10.99-1.23,22.06.12,32.89,2.2,0,0-3.24,1.49-3.24,1.49,1.33-3.02,4.31-9.79,5.62-12.76,1.69,3.01,6.46,11.53,8.21,14.66l-4.47-.35,7.19-9.11,2.53-3.2c1.23,2.26,9.01,16.49,10.42,19.08,0,0-4.63-.17-4.63-.17l13.39-20.71,4.53,2.93h0Z"/><path class="cls-2" d="M419.44,182.98s-8.12,19.93,4.19,47.73l75.88-33.24-80.07-14.49Z"/><path class="cls-7" d="M425,230.7l75.88-33.24c-49.54,9.38-70.74,24.24-82.49-2.38-.68,8.51.13,20.97,6.61,35.62Z"/><path class="cls-4" d="M422.01,234.86l-1.27-2.88c-12.7-28.69-4.58-49.33-4.22-50.2l.97-2.37,92.79,16.79-88.26,38.66ZM421.63,186.58c-1.48,5.64-4.02,20.63,3.67,39.94l63.45-27.79-67.12-12.14Z"/><path class="cls-7" d="M334.28,388.41c55.39-11.93,40.48-102.9,40.48-102.9,0,0,10.01,67.11-50.92,82.45-60.93,15.34-87.77-53.26-87.77-53.26,5.97,59.86,42.82,85.64,98.21,73.71Z"/><path class="cls-7" d="M93.94,285.54c-18.22,54.33,26.68,69.19,26.68,69.19-4.63-5.22-7.53-11.29-9.29-17.41,0,0,0,0,0,0-16-20.77-17.4-51.78-17.4-51.78Z"/><path class="cls-7" d="M150.75,360.78c27.48,25.57,80.21,4.95,80.21,4.95-5.23-7.17-8.96-14.38-11.62-21.22-67.33,6.47-108.86-42.21-108.86-42.21,0,0,12.78,32.92,40.26,58.48Z"/><path class="cls-7" d="M115.25,136.18c-5.83,8.17-11.25,18.11-10.16,25.76,2.24,15.66,14.7,11.18,14.7,11.18,0,0,.56-1.89,1.94-4.9-11.05-4.96-8.81-22.2-6.48-32.04Z"/><path class="cls-7" d="M155.52,134.17s-11.98,22.53-7.99,33.71c0,0,22.05-3.57,30.2-10.6,0,0-.13-1.92.13-5.28-25.39,12.34-22.34-17.83-22.34-17.83Z"/><path class="cls-10" d="M378.6,227.19c-.23.14-.46.29-.71.43-.04.11-.07.21-.1.31,0,0,.3-.3.81-.75Z"/><path class="cls-10" d="M422.51,97.36c-38.15-13.82-53.28-34.18-57.84-41.85-1.09-1.83-3.18-2.79-5.27-2.42l-34.46,6.22c-2.04.37-3.91,1.36-5.42,2.78-24.47,23.09-65.65,16.11-89.84,21.07-46.8,28.49-45.16,71.74-45.16,71.74,0,0,14.97-7.7,24.71-18.43,9.75-10.73,17.74-32.38,41.86-25.35,24.13,7.03,25.09,30.68,25.09,30.68,0,0-35.63-31.96-49.37-8.63-7.45,12.65-16.36,20.08-22.95,24.23,5.07,1.5,15.77,2.23,29.98-10.17,0,0,16.46-13.57,37.84-1.78,0,0,0,0,0,0,13.91,4.43,25.28,15.04,25.28,15.04-10.87-3.67-21.41,4.63-21.41,4.63,0,0-.96,16.94-19.81,24.77-18.85,7.83-31-9.75-31-9.75-12.43,4.36-21.58,4.53-28.05,3.2,2.78,6.46,10.15,16.17,29.17,14.59,28.12-2.34,78.89-15.08,84.58,28.97,4.59,35.55,50.08,11.36,67.48.7,17.67-52.58-11.45-68.35-11.45-68.35,9.8-33.78-25.57-55.27-32.38-58.04-6.82-2.77-10.65,13.85-10.65,13.85-3.83-22.16,15.98-33.66,15.98-33.66-5.75-4.47,0-7.88,0-7.88,0,0,21.09-2.98,33.23,36.86,14.7,53.26,44.74,48.79,44.74,48.79-8.39-21.44,1.91-43.21,8.11-53.44,1.88-3.11.46-7.14-2.96-8.37Z"/><path class="cls-11" d="M233.83,147.24c-14.21,12.41-24.91,11.68-29.98,10.17-5.56,3.51-9.49,4.69-9.49,4.69,0,0,4.95,10.39,14.33,10.07,14.81-.32,25.14-9.91,30.89-18.69s11.82-8.47,11.82-8.47c6.71-2.34,13.76-1.61,20.26.46,0,0,0,0,0,0-21.38-11.79-37.84,1.78-37.84,1.78Z"/><path class="cls-11" d="M393.45,227.93c-.7-2.3-1.71-3.71-2.89-4.5l-5.95-.15s-2.27,1.58-6.01,3.89c-.51.45-.81.75-.81.75,0,0,9.49-24.09,4.27-44.96-3.46-10.97-6.68-16.82-11.71-20.76,0,0,11.36,45.11-5.7,72.83,0,0,0,0,0,0-20.7,10.52-50.56,20.32-54.23-8.13-5.69-44.05-56.46-31.32-84.58-28.97-19.02,1.58-26.39-8.13-29.17-14.59-9.41-1.93-13.17-7.04-13.17-7.04-4.31,26.52,18.65,36.84,18.65,36.84,0,0,6.75-2.85,21.45-6.01,30.47-7.86,65.35-6.71,69.19,16.13,3.83,22.84,12.12,59.61,61.18,56.89,49.05-2.72,43.16-40.26,39.49-52.25Z"/><path class="cls-7" d="M96.73,236.03s-4.79,11.18-3.3,17.79c0,0,6.18-4.88,14.81-4.24,0,0-5.86-2.69-11.93.51,0,0-1.28-4.26.43-14.06Z"/><path class="cls-7" d="M173.11,233.27s-.15,11.97,1.04,15.76c0,0-6.87-2.4-12.46-2.96,0,0,1.76-.96,9.35-.4l2.08-12.4Z"/><path class="cls-9" d="M210.5,104.32c18-17.93,19.49-16.3,19.49-16.3,0,0,70.46,4.31,94.75-23.65l34.03-6.55s16.33,25.88,40.04,28.28c0,0,0,0,0,0-28.16-16.06-35.78-34.08-35.78-34.08l-41.33,7.46c-24.13,25.72-67.11,18.16-92.03,23.27-46.8,28.49-45.16,71.74-45.16,71.74,0,0,2.49-1.28,6.09-3.52.81-9.39,6.16-32.96,19.9-46.65Z"/><path class="cls-9" d="M226.66,133.31c-2.91,4.94-6.04,9.07-9.16,12.53,2.2-2.27,8.83-8.27,21.31-13.17,15.71-6.17,37.23,9.27,37.23,9.27,0,0-35.63-31.96-49.37-8.63Z"/><path class="cls-1" d="M425.78,196.99s-2.99,15.55,1.7,24.71l48.68-20.98-46.44,16.3s-3.06-2.59-3.94-20.03Z"/><path class="cls-1" d="M410.15,282.63s-1.24,5.86,0,9.48l37.99-4.74-36.22,1.33-1.78-6.07Z"/><path class="cls-4" d="M242.54,553.03v-.04c-6.7-.35-12.71-2.87-17.35-7.23l-1.55,7.27h-95.27l7.86-36.93h-17.96c-8.79-.23-17.07,0-27.86,0-17.05,0-29.93-5.24-38.31-15.58-9.49-11.72-11.84-28.06-7.18-49.94l12.5-58.7h146.28c9.08,0,16.86,1.54,23.26,4.61l.98-4.61h58.99c10.37,0,19.04,2.01,25.91,6l1.28-6h50.92l10.28,28.68,22.49-28.68h54.33l-26.44,124.23h-57.73l-11.42,14.05c-.06.31-.12.63-.19.95-2.89,13.54-13.53,21.93-27.77,21.93h-86.07ZM206.48,492.74l1.07-5.02c-5.45,1.49-11.38,2.24-17.76,2.24h-6.34l-.59,2.78h23.62Z"/><path class="cls-4" d="M401.94,400.32l-29.39,37.48-13.44-37.48h-38.13l-3.02,14.2c-.66-1.15-1.4-2.25-2.23-3.28-5.86-7.25-15.54-10.93-28.77-10.93h-52.15l-2.32,10.92c-5.86-7.24-15.54-10.92-28.76-10.92h-87.17l-11.07,52.01c-2.84,13.33-7.68,13.33-9.5,13.33-.82,0-1.3-.11-1.5-.18-.21-.43-1.13-2.83.37-9.84l11.77-55.31h-42.35l-11.07,52.01c-4.09,19.23-2.3,33.25,5.48,42.86,6.69,8.26,17.37,12.45,31.74,12.45s30.23-3.99,42.39-19.24l-4.1,19.24h17.96l-7.86,36.94h49.11c1.73,0,3.36-.17,4.9-.47l-.1.47h24.08l1.67-7.87c3.28-.06,6.23-.74,8.79-1.96.52.96,1.12,1.89,1.82,2.78,3.63,4.62,8.86,7.05,15.11,7.05,3.21,0,6.28-.65,9.2-1.9l-.4,1.9h75.64c10.32,0,17.43-5.54,19.5-15.22,1.06-5.05.12-8.68-1.24-11.14l6.53-14.11,4.36,11.18,23.24-28.6-4.46,20.96h42.35l22.84-107.33h-39.78ZM187.88,501.19c-.47,0-.92.02-1.37.05l.02-.05h-14.1l4.18-19.68h13.18c11.91,0,21.81-2.92,29.55-8.61l-6.02,28.29h-25.45ZM297.92,475.79c2.82-1.54,5.62-3.51,8.26-5.99l-2.76,12.97-5.5-6.98ZM255.52,501.88l2.15-10.11,7.41,9.41h-2.87l-.75,3.5c-1.77-1.29-3.77-2.23-5.94-2.81ZM341.85,501.19l3.67-17.28,6.74,17.28h-10.41Z"/><path class="cls-2" d="M60.23,452.85l9.73-45.73h26.13l-9.73,45.73c-2.79,13.07.17,19.6,8.89,19.6s14.46-6.53,17.25-19.6l9.73-45.73h26.13l-9.74,45.73c-6.49,30.49-22.8,45.74-48.94,45.74s-35.96-15.24-29.47-45.74Z"/><path class="cls-2" d="M169.48,472.46l-5.55,26.13h-26.13l19.47-91.47h45.74c21.78,0,30.34,10.89,25.68,32.67-4.62,21.78-17.82,32.67-39.59,32.67h-19.6ZM177.84,433.25l-2.81,13.07h19.6c4.36,0,6.99-2.18,7.91-6.53.96-4.36-.74-6.53-5.1-6.53h-19.6Z"/><path class="cls-2" d="M252.71,472.46l-5.55,26.13h-26.13l19.47-91.47h45.74c21.78,0,30.34,10.89,25.68,32.67-3.7,17.42-12.89,27.88-27.57,31.36l21.63,27.44h-32.67l-20.58-26.13ZM261.08,433.25l-2.81,13.07h19.6c4.36,0,6.99-2.18,7.91-6.53.96-4.36-.74-6.53-5.1-6.53h-19.6Z"/><path class="cls-2" d="M389.25,461.95l-29.77,36.64-16.92-43.38-9.21,43.38h-26.13l19.47-91.47h26.13l16.4,45.73,35.87-45.73h26.13l-19.47,91.47h-26.13l9.28-43.58-5.64,6.94"/><path class="cls-3" d="M173.41,507.99l-3.64,7.87h-9.83l-.43,1.97h11.8l-3.64,7.87h-9.83l-.41,1.97h11.8l-3.64,7.87h-17.7l5.86-27.53h19.67Z"/><path class="cls-3" d="M184.39,525.69c-6.56,0-9.2-2.98-7.93-8.93,1.25-5.85,5.15-8.77,11.7-8.77h13.77l-3.64,7.87h-11.8c-1.31,0-2.03.3-2.16.9-.16.71.42,1.06,1.73,1.06h5.9c6.55,0,9.22,2.92,7.98,8.77-1.27,5.95-5.19,8.93-11.74,8.93h-13.77l3.64-7.87h11.8c1.31,0,2.05-.35,2.2-1.06.12-.6-.48-.9-1.79-.9h-5.9Z"/><path class="cls-3" d="M212.07,527.66l-1.67,7.87h-7.87l5.86-27.53h13.77c6.56,0,9.13,3.28,7.73,9.83-1.39,6.56-5.36,9.83-11.92,9.83h-5.9ZM214.59,515.86l-.85,3.93h5.9c1.31,0,2.1-.66,2.38-1.97.29-1.31-.22-1.97-1.53-1.97h-5.9Z"/><path class="cls-3" d="M243.47,535.53c-3.8,0-6.76-1.34-8.88-4.03-2.12-2.69-2.77-5.93-1.96-9.74.8-3.8,2.83-7.05,6.1-9.73,3.26-2.69,6.8-4.03,10.6-4.03s6.76,1.34,8.87,4.03c2.11,2.69,2.77,5.93,1.97,9.73-.81,3.8-2.85,7.05-6.11,9.74-3.26,2.69-6.79,4.03-10.59,4.03ZM249.67,525.93c1.4-1.15,2.27-2.54,2.63-4.17.34-1.62.06-3.02-.85-4.17-.9-1.15-2.17-1.73-3.8-1.73s-3.14.58-4.54,1.73c-1.4,1.15-2.27,2.54-2.62,4.17-.35,1.63-.08,3.02.84,4.17.91,1.15,2.18,1.73,3.81,1.73s3.14-.58,4.53-1.73Z"/><path class="cls-3" d="M271.59,527.66l-1.67,7.87h-7.87l5.86-27.53h13.77c6.56,0,9.13,3.28,7.73,9.83-1.11,5.24-3.88,8.39-8.3,9.44l6.51,8.26h-9.83l-6.19-7.87ZM274.11,515.86l-.85,3.93h5.9c1.31,0,2.1-.66,2.38-1.97.29-1.31-.22-1.97-1.53-1.97h-5.9Z"/><path class="cls-3" d="M307.56,515.86l-4.19,19.67h-7.87l4.19-19.67h-5.9l1.67-7.87h19.67l-3.64,7.87h-3.93Z"/><path class="cls-3" d="M324.08,525.69c-6.56,0-9.2-2.98-7.93-8.93,1.25-5.85,5.15-8.77,11.7-8.77h13.77l-3.64,7.87h-11.8c-1.31,0-2.03.3-2.16.9-.16.71.42,1.06,1.73,1.06h5.9c6.55,0,9.22,2.92,7.98,8.77-1.27,5.95-5.19,8.93-11.74,8.93h-13.77l3.64-7.87h11.8c1.31,0,2.05-.35,2.2-1.06.12-.6-.48-.9-1.79-.9h-5.9Z"/><path class="cls-7" d="M93.05,484.09l6.21-12.18s0-.01,0-.02c-1.28.36-2.64.56-4.09.56-8.71,0-11.67-6.53-8.89-19.6l9.73-45.73h-13.61l-10.89,54.06s-4.18,21.39,21.52,22.91Z"/><path class="cls-7" d="M135.64,407.12c-3.06,13.43-8.61,37.93-12.04,53.79-4.94,22.79-30.31,23.18-30.31,23.18l5.9,13.75c20.61-3.39,33.75-18.39,39.41-44.99l9.74-45.73h-12.69Z"/><polygon class="cls-7" points="320.98 498.59 337.44 417.85 326.67 407.12 307.2 498.59 320.98 498.59"/><polygon class="cls-7" points="337.44 417.85 364.51 473.72 359.47 498.59 337.44 442.39 337.44 417.85"/><polygon class="cls-7" points="405.08 407.12 415.22 417.85 363.28 479.18 369.21 452.85 405.08 407.12"/><polygon class="cls-7" points="428.93 417.85 415.22 417.85 399.37 498.59 411.74 498.59 428.93 417.85"/><polygon class="cls-7" points="233.13 498.59 251.53 417.85 240.5 407.12 221.03 498.59 233.13 498.59"/><polygon class="cls-7" points="284.36 471.22 305.96 498.59 288.93 498.59 267.5 471.76 284.36 471.22"/><path class="cls-7" d="M280.68,433.25c4.35,0,6.05,2.18,5.1,6.53-.91,4.36-3.55,6.53-7.91,6.53h-19.6l-1.62,12.23c34.3,1.9,37.73-2.36,42.6-21.46,1.96-7.7-.62-12.5-3.73-15.39-2.75-2.55-6.43-3.86-10.19-3.86h-33.8l9.55,15.4h19.6Z"/><polygon class="cls-7" points="149.89 498.59 168.29 417.85 157.26 407.12 137.79 498.59 149.89 498.59"/><path class="cls-7" d="M197.44,433.25c4.35,0,6.05,2.18,5.1,6.53-.91,4.36-3.55,6.53-7.91,6.53h-19.6l-1.62,12.23c34.3,1.9,37.73-2.36,42.6-21.46,1.96-7.7-.62-12.5-3.73-15.39-2.75-2.55-6.43-3.86-10.19-3.86h-33.8l9.55,15.4h19.6Z"/><polygon class="cls-6" points="147.89 535.52 165.59 535.52 169.22 527.65 157.42 527.65 157.84 525.69 167.67 525.69 169.81 521.07 150.96 521.07 147.89 535.52"/><path class="cls-6" d="M184.38,525.69h5.9c1.31,0,1.91.3,1.79.9-.16.71-.89,1.06-2.2,1.06h-11.8l-3.64,7.87h13.77c6.56,0,10.47-2.98,11.74-8.93.48-2.29.36-4.13-.36-5.52h-23.26c.67,3.07,3.35,4.62,8.06,4.62Z"/><path class="cls-6" d="M202.53,535.52h7.87l1.67-7.87h5.9c5.36,0,9-2.2,10.9-6.59h-23.26l-3.08,14.45Z"/><path class="cls-6" d="M252.3,521.76c-.35,1.63-1.23,3.02-2.63,4.17-1.4,1.15-2.91,1.73-4.53,1.73s-2.89-.58-3.81-1.73c-.91-1.15-1.19-2.54-.84-4.17.05-.24.13-.46.21-.69h-7.9c-.06.23-.13.45-.18.69-.81,3.8-.16,7.05,1.96,9.74,2.12,2.69,5.08,4.03,8.88,4.03s7.33-1.34,10.59-4.03c3.26-2.69,5.29-5.93,6.11-9.74.05-.23.08-.46.11-.69h-7.88c-.02.22-.06.45-.1.69Z"/><path class="cls-6" d="M262.05,535.52h7.87l1.67-7.87,6.19,7.87h9.83l-6.51-8.26c3.41-.81,5.83-2.88,7.27-6.19h-23.25l-3.08,14.45Z"/><polygon class="cls-6" points="295.5 535.52 303.37 535.52 306.45 521.07 298.58 521.07 295.5 535.52"/><path class="cls-6" d="M324.08,525.69h5.9c1.31,0,1.91.3,1.79.9-.16.71-.89,1.06-2.2,1.06h-11.8l-3.64,7.87h13.77c6.56,0,10.47-2.98,11.74-8.93.48-2.29.36-4.13-.36-5.52h-23.26c.67,3.07,3.35,4.62,8.06,4.62Z"/><rect class="cls-4" x="176.1" y="479.91" width="39.6" height="13"/><path class="cls-4" d="M223.64,553.03h22.65s-18.5-14.55-20.01-13.64-6.07,6.8-6.07,6.8l3.44,6.84Z"/></svg>