<?xml version="1.0" encoding="UTF-8"?><svg id="Layer_1" xmlns="http://www.w3.org/2000/svg" viewBox="0 0 577.62 592.47"><defs><style>.cls-1{fill:#231f20;}.cls-2{fill:#fff;}.cls-3{fill:#52b84e;}.cls-4{fill:#132113;}.cls-5{fill:#00ab51;}.cls-6{fill:#437840;}.cls-7{fill:#b2b2b2;}.cls-8{fill:#0d5f32;}.cls-9{fill:#f6bf7b;}.cls-10{fill:#ce8d34;}.cls-11{fill:#9b7345;}</style></defs><path class="cls-2" d="M523.09,194.93l-75.46-13.65c2.91-12.25,5.38-24.62,7.4-36.99l92.35-74.91-51.3,7.47c-11.26-2.77-61.44-14.09-130.69-14.09-3.38,0-6.78.03-10.16.08-4.24-3.18-7.74-6-10.14-7.98-5.87-4.85-13.3-7.52-20.92-7.52-1.82,0-3.66.15-5.45.45l-43.99,7.39c-6.96,1.17-13.34,4.72-17.98,10-.53.6-.99,1.07-1.36,1.42-4.09.57-7.7,1.63-10.88,3.19-.33,0-.67,0-1,0-17.88,0-32.7,2.5-42.59,4.82-6.02-4.07-13.34-7.74-21.86-10.95-6.06-2.28-12.12-3.44-18.02-3.44-19.04,0-32.12,11.66-37.83,22.04l-2.02,2.99-.27,1.84c-.22.16-.51.36-.91.56-1.11.58-5.09,1.74-12.22,1.99-8.66.3-16.63,4.43-21.87,11.32-5.24,6.89-7.08,15.66-5.06,24.08l1.82,7.6c-2.16,3.19-4.49,7.02-6.71,11.46-16.33,10.73-32.1,22.59-47.01,35.35l-11.97-4.3-.11,14.86-.2.17.11,7.12c.05,3.35,1.69,76.54,42.66,159.41h-14.4l-13.29,62.41c-5.01,23.56-1.99,41.75,9.23,55.62,7.03,8.69,20.5,19.04,44.74,19.04,3.28,0,6.29-.03,9.15-.05,2.5-.02,4.88-.04,7.21-.04,1.38,0,2.64,0,3.83.02l-6.74,31.67h60.69l-5.04,39.28,27.12-17.58.14.14c.54-.33,12.68-7.69,31.5-21.84h75.92c18.5,0,33.12-10.86,38.07-27.98l2.94-3.62h54.53l29.18-137.07h-27.64l-5.18-15.67c4.15-6.83,8.15-13.74,11.95-20.6,1.46-2.63,2.9-5.29,4.34-7.97l107.88-13.94-82.19-41.07c3.01-7.48,5.85-15.03,8.51-22.58l91.21-39.95Z"/><polygon class="cls-2" points="496.47 74.25 496.46 74.25 496.47 74.25 496.47 74.25"/><path class="cls-3" d="M438.67,137.85l53.64-43.51S227.22,23.41,30.08,199.09c0,0,2.68,173,148.86,284.31l-6.71,52.3s227.09-136.79,266.43-397.85ZM212.47,454.35s-108.18-70.63-138.58-237.82c0,0,137.09-122.19,325.43-94.77,0,0,5.36,186.86-186.86,332.59Z"/><path class="cls-6" d="M427.13,104.21l-16.89,6.53L62.98,211.87l-11.89-5.13S213.5,61.76,427.13,104.21Z"/><path class="cls-6" d="M51.09,206.73l-20.97-7.72s2.68,173,148.86,284.31l26.02-1.12S54.61,377.6,51.09,206.73Z"/><path class="cls-6" d="M204.76,482.65l-32.73,53.42s227.09-136.79,266.43-397.85l53.64-43.51-64.97,9.5s-.87,213.37-222.37,378.44Z"/><path class="cls-4" d="M374.54,301.69l76.87-9.93-56.54-28.25c.6-1.89.94-3.16,1.07-3.67,2.51-8.59,3.98-17.6,4.37-26.83l68.24-29.89-74.08-13.4c-1.65-5.17-3.02-8.21-3.09-8.37l-1.33-2.93-8.86-3.2c-4.34-7.14.07-24.83,11.86-47.04,2.62-4.94,3.02-10.79,1.09-16.04-1.95-5.29-6.08-9.52-11.33-11.6-19.4-7.7-41.17-24.78-49.62-31.76-3.12-2.58-7.06-3.99-11.11-3.99-.97,0-1.94.08-2.9.24l-43.98,7.39c-3.47.58-6.66,2.35-8.96,4.97-3.89,4.43-7.06,6.17-8.24,6.25-5.13.35-8.75,1.5-11.34,3.67-1.74-.05-3.49-.08-5.23-.08-21.55,0-38.14,3.93-45.99,6.22-3.98-3.57-11.24-8.57-23.9-13.34-4.32-1.63-8.55-2.45-12.59-2.45-13.54,0-21.85,9.18-24.63,14.6l-.51.75-.17,1.16c-.22.76-1.86,5.66-8.62,9.18-4.07,2.12-10.74,3.44-18.8,3.72-4.02.14-7.72,2.06-10.15,5.25-2.43,3.19-3.28,7.26-2.35,11.16l3.5,14.57c-3.86,4.75-10.58,14.35-14.8,27.89-3.08,9.88-1.95,19.66,3.18,27.53.59.91,1.27,1.83,2.01,2.73-7.08,8.5-8.39,19.44-9.49,28.64l-.04.31c-6.94,15.43-8.46,25.7-8.58,31.38-2.87,2.74-6.33,7.31-7.06,13.78-.77,6.86,2.44,12.43,5.28,15.91-1.63,6.65-3.44,19.34.97,34.13,8.14,30.78,34.59,36.05,45.57,36.89,3.93,6.09,13.28,15.68,34.6,20.96,5.93,1.47,12.01,2.21,18.08,2.21,17.75,0,32.28-6.27,41.55-10.91,16.62,18.58,44.02,25.36,65.32,25.36,8.49,0,16.58-1.07,23.4-3.08l.29-.09.28-.11c16.73-6.41,29.85-17.27,39.11-32.34l42.41,32.88-23.31-70.47c6.82-6.01,13.04-12.7,18.55-19.95Z"/><path class="cls-4" d="M410.24,110.74C209.26,81.48,62.98,211.87,62.98,211.87c32.44,178.4,147.87,253.77,147.87,253.77,205.11-155.5,199.39-354.89,199.39-354.89Z"/><path class="cls-2" d="M341.47,301.67l-2.21.28c-.95.12-23.31,3.15-32.59,21.72l-.99,1.99,58.81,45.59-23.02-69.58Z"/><path class="cls-4" d="M276.8,80.51l43.98-7.39c2.8-.47,5.67.29,7.86,2.1,8.43,6.96,31.16,24.84,51.68,32.98,6.73,2.67,9.7,10.54,6.3,16.94-8.89,16.74-21.08,45.02-9.76,57.09l7.89,2.85s15.62,34.33,4.13,73.33c0,0-8.75,36.91-45.56,64.52-3.83,15.13-11.57,48.12-47.93,62.06-24.06,7.11-66.43,1.09-84.48-24.6-10.12,5.19-32.26,17.77-59.87,10.94-27.61-6.83-31.71-21.05-31.71-21.05,0,0-34.17,1.91-42.92-31.44-5.74-19.14.27-34.17.27-34.17,0,0-7.11-5.65-6.29-12.94.82-7.29,7.29-11.12,7.29-11.12,0,0-2.1-10.39,8.2-32.81,1.46-12.03,2.46-24.24,13.94-31.26-2.37-.27-15.31-9.9-9.75-27.76,5.56-17.86,15.86-28.1,15.86-28.1l-4.42-18.42c-.84-3.49,1.74-6.85,5.32-6.98,6.29-.22,15.52-1.17,22.07-4.58,10.84-5.65,12.58-14.4,12.58-14.4,0,0,8.11-15.86,27.7-8.47,19.59,7.38,24.33,14.95,24.33,14.95,0,0,23.51-8.84,56.96-7.11.82-1.18.98-3.33,8.4-3.84,5.33-.37,10.81-5.8,13.47-8.83,1.16-1.32,2.74-2.19,4.48-2.48Z"/><path class="cls-2" d="M111.45,126.05s24.51-3.28,30.07-11.57c5.56-8.29,11.48-23.42,30.71-14.58l12.58,5.29-25.06,10.48s2.37-4.01-.36-7.75c0,0-4.1,6.47-12.94,12.48-8.84,6.01-.18,6.38-.18,6.38l-7.02,5.83s-6.56-6.11-25.15,4.74l-2.64-11.3Z"/><path class="cls-2" d="M132.51,182.5s18.86-3.05,25.84-9.07c0,0-2.23-32.08,32.76-62.15,0,0-29.16,9.11-54.86,26.06,0,0-10.57-2.73-20.6,5.1,0,0-21.42,21.6-19.5,34.99,1.91,13.4,12.58,9.57,12.58,9.57,0,0,6.42-21.73,30.62-33.35,0,0-10.25,19.27-6.83,28.84Z"/><path class="cls-2" d="M102.71,217.63s-5.65-3.92-3.92-7.02,8.47,1.28,9.48,6.29c1,5.01,7.02,17.86-4.28,21.42-11.3,3.55-10.66-14.4-7.38-17.86,3.28-3.46,6.11-2.82,6.11-2.82Z"/><path class="cls-2" d="M129.22,217.36s8.02-5.29,9.39-8.47-5.65-4.01-11.12,2.64-15.67,30.25,14.67,22.96l17.95-20.41.64,14.03,12.39-3.93s-11.85-8.46-14.31-22.41c0,0,2,16.1-26.7,22.41l-2.92-6.82Z"/><path class="cls-2" d="M188.96,298.56s-4.24,26.93,14.9,53.17c0,0-45.11,17.63-68.62-4.24-23.51-21.87-34.45-50.03-34.45-50.03,0,0-6.56,27.75,8.61,44.84,0,0-38.41-12.71-22.83-59.19,0,0,32.41-20.48,72.48,11.02.9.71,2.16-.27,1.69-1.32-4.13-9.21-17.07-31.02-46.28-28.42-14.37,1.39-24.87,8.59-28.73,11.63-.99.78-2.38.82-3.41.09l-1.97-1.4c-1.5-1.07-1.63-3.27-.23-4.47,5.74-4.96,21.4-15.48,49.74-14.05,27.81,1.41,45.43,20.37,59.1,42.37Z"/><path class="cls-2" d="M208.23,308.12s30.62,16.4,55.77-38.27c0,0,25.88,29.89,62.88,13.3,0,0,12.76,77.82-34.63,88.03-47.39,10.21-78.92-11.85-84.02-63.06Z"/><path class="cls-5" d="M346.2,180.91s10.75,2.19,14.76.91c10.94,4.01,19.11,7.78,19.11,7.78,0,0,11.86,31.58-.98,74.23-8.6,28.57-36.09,51.4-36.09,51.4,0,0,22.42-47.57,14.49-87.76-7.93-40.19-11.3-46.57-11.3-46.57Z"/><path class="cls-8" d="M367.54,184.32c-2.03-.8-4.24-1.64-6.57-2.5-4.01,1.28-14.76-.91-14.76-.91,0,0,3.37,6.38,11.3,46.57,7.93,40.19-14.49,87.76-14.49,87.76,38.35-47.2,27.69-115.05,24.52-130.91Z"/><path class="cls-2" d="M361.09,258.61s-13.4,17.37-7.16,35.91l62.8-8.11-55.64-27.8Z"/><path class="cls-7" d="M354.5,293.48l62.8-8.11c-34.91.14-55.14-4.83-64-7.76-.76,4.9-.66,10.33,1.2,15.88Z"/><path class="cls-4" d="M352.07,297.49l-.71-2.1c-6.62-19.68,7-37.67,7.59-38.43l1.36-1.76,65.56,32.76-73.79,9.53ZM361.99,262.09c-2.85,4.49-9.36,16.62-6.13,29.46l51.72-6.68-45.59-22.78Z"/><path class="cls-2" d="M158.34,255.91s-3.69-18.75-2.32-31.73c0,0-17.77,22.57-18.59,26.67,0,0,9.3.82,20.91,5.06Z"/><path class="cls-2" d="M90.27,235.87l12.37,17.03s-10.87,1.09-18.25,5.6c0,0-1.5-12.59,5.88-22.63Z"/><path class="cls-2" d="M105.29,252.08s14.85-2.28,27.51-1.11l-4-9.48s-6.15,2.19-7.59,5.46c0,0-1.73-3.84-4.16-6.12,0,0-3.63,4.51-3.91,7l-.15.05s-2.23-3.91-4.33-5.38c0,0-3.82,7.35-3.37,9.58Z"/><path class="cls-2" d="M160.66,233.63l2.6,24.88s37.59,20.53,45.93,32.43c8.34,11.89,18.86,4.24,30.62-8.89s15.99-25.86,11.48-46.78c-4.51-20.91-34.99-22.55-90.63-1.64Z"/><path class="cls-2" d="M213.61,178.9s9.02-9.2,13.58-10.12c4.56-.91,9.39,8.84,5.65,17.22-3.74,8.38-11.94,10.66-21.23,8.84,0,0,8.11-5.56,2-15.95Z"/><path class="cls-4" d="M255.66,239.72l-11.46,17.72-2.1,3.25c-1.17-2.14-7.78-14.24-9.1-16.66,0,0,3.83.32,3.83.32l-6.15,7.79-2.14,2.71c-1.11-1.99-5.26-9.4-6.45-11.52l4.12-.2c-.6,1.37-3.21,7.3-3.76,8.54l-1.96-.58c-8.58-3.18-17.6-5.82-26.81-6.3,9.4-1.06,18.87.1,28.14,1.88,0,0-2.78,1.28-2.78,1.28,1.14-2.59,3.69-8.38,4.8-10.92,1.44,2.58,5.53,9.86,7.02,12.54l-3.82-.3,6.15-7.79,2.16-2.74c1.05,1.93,7.71,14.11,8.92,16.32,0,0-3.96-.15-3.96-.15l11.46-17.72,3.87,2.5h0Z"/><path class="cls-2" d="M365.12,195.44s-6.95,17.05,3.58,40.83l64.92-28.44-68.5-12.39Z"/><path class="cls-7" d="M369.87,236.27l64.92-28.44c-42.38,8.02-60.52,20.74-70.57-2.04-.58,7.28.11,17.94,5.66,30.47Z"/><path class="cls-4" d="M367.31,239.82l-1.09-2.46c-10.87-24.55-3.91-42.2-3.61-42.94l.83-2.03,79.38,14.36-75.51,33.07ZM366.98,198.52c-1.27,4.82-3.44,17.65,3.14,34.17l54.28-23.78-57.42-10.39Z"/><path class="cls-7" d="M292.25,371.19c47.39-10.21,34.63-88.03,34.63-88.03,0,0,8.57,57.41-43.56,70.53-52.13,13.12-75.09-45.56-75.09-45.56,5.1,51.21,36.63,73.27,84.02,63.06Z"/><path class="cls-7" d="M86.64,283.18c-15.58,46.48,22.83,59.19,22.83,59.19-3.96-4.46-6.44-9.66-7.95-14.89,0,0,0,0,0,0-13.69-17.77-14.88-44.29-14.88-44.29Z"/><path class="cls-7" d="M135.25,347.55c23.51,21.87,68.62,4.24,68.62,4.24-4.47-6.13-7.67-12.3-9.94-18.16-57.6,5.53-93.13-36.11-93.13-36.11,0,0,10.94,28.16,34.45,50.03Z"/><path class="cls-7" d="M104.88,155.41c-4.99,6.99-9.63,15.49-8.69,22.04,1.91,13.4,12.58,9.57,12.58,9.57,0,0,.48-1.62,1.66-4.19-9.45-4.24-7.53-19-5.55-27.41Z"/><path class="cls-7" d="M139.33,153.68s-10.25,19.27-6.83,28.84c0,0,18.86-3.05,25.84-9.07,0,0-.11-1.64.11-4.52-21.72,10.56-19.11-15.25-19.11-15.25Z"/><path class="cls-10" d="M330.17,233.26c-.2.12-.4.25-.6.37-.03.09-.06.18-.09.27,0,0,.25-.25.69-.64Z"/><path class="cls-10" d="M367.74,122.2c-32.64-11.83-45.58-29.24-49.49-35.8-.93-1.56-2.72-2.39-4.51-2.07l-29.48,5.32c-1.75.32-3.35,1.16-4.64,2.38-20.93,19.75-56.17,13.78-76.86,18.03-40.04,24.38-38.64,61.38-38.64,61.38,0,0,12.8-6.59,21.14-15.77,8.34-9.18,15.17-27.7,35.81-21.69,20.64,6.01,21.46,26.25,21.46,26.25,0,0-30.48-27.34-42.24-7.38-6.38,10.82-13.99,17.18-19.63,20.73,4.34,1.29,13.49,1.91,25.65-8.7,0,0,14.08-11.61,32.37-1.53,0,0,0,0,0,0,11.9,3.79,21.62,12.87,21.62,12.87-9.3-3.14-18.32,3.96-18.32,3.96,0,0-.82,14.49-16.95,21.19-16.13,6.7-26.52-8.34-26.52-8.34-10.64,3.73-18.46,3.88-24,2.74,2.38,5.52,8.68,13.83,24.95,12.48,24.06-2,67.49-12.9,72.36,24.79,3.93,30.41,42.85,9.72,57.73.6,15.12-44.98-9.79-58.48-9.79-58.48,8.38-28.9-21.87-47.28-27.7-49.65-5.83-2.37-9.11,11.85-9.11,11.85-3.28-18.95,13.67-28.8,13.67-28.8-4.92-3.83,0-6.74,0-6.74,0,0,18.04-2.55,28.43,31.53,12.58,45.56,38.27,41.74,38.27,41.74-7.18-18.34,1.64-36.97,6.94-45.72,1.61-2.66.39-6.11-2.53-7.16Z"/><path class="cls-11" d="M206.32,164.87c-12.16,10.61-21.31,9.99-25.65,8.7-4.76,3-8.12,4.01-8.12,4.01,0,0,4.24,8.89,12.26,8.61,12.67-.27,21.51-8.47,26.43-15.99s10.12-7.24,10.12-7.24c5.74-2,11.78-1.38,17.33.39,0,0,0,0,0,0-18.29-10.09-32.37,1.53-32.37,1.53Z"/><path class="cls-11" d="M342.88,233.9c-.6-1.96-1.47-3.17-2.47-3.85l-5.09-.13s-1.94,1.35-5.14,3.33c-.44.39-.69.64-.69.64,0,0,8.12-20.61,3.65-38.46-2.96-9.38-5.72-14.39-10.01-17.76,0,0,9.72,38.59-4.88,62.31,0,0,0,0,0,0-17.71,9-43.26,17.39-46.4-6.95-4.87-37.69-48.3-26.79-72.36-24.79-16.27,1.36-22.57-6.95-24.95-12.48-8.05-1.65-11.27-6.02-11.27-6.02-3.69,22.69,15.96,31.52,15.96,31.52,0,0,5.78-2.44,18.35-5.14,26.07-6.72,55.91-5.74,59.19,13.8,3.28,19.54,10.37,50.99,52.34,48.67,41.96-2.32,36.93-34.45,33.78-44.7Z"/><path class="cls-7" d="M89.04,240.83s-4.1,9.57-2.82,15.22c0,0,5.29-4.17,12.67-3.63,0,0-5.01-2.3-10.21.44,0,0-1.09-3.65.36-12.03Z"/><path class="cls-7" d="M154.38,238.46s-.13,10.24.89,13.48c0,0-5.88-2.05-10.66-2.53,0,0,1.5-.82,8-.34l1.78-10.61Z"/><path class="cls-9" d="M186.36,128.14c15.4-15.34,16.68-13.94,16.68-13.94,0,0,60.28,3.69,81.06-20.23l29.12-5.6s13.97,22.14,34.25,24.19c0,0,0,0,0,0-24.09-13.74-30.61-29.16-30.61-29.16l-35.36,6.38c-20.64,22.01-57.41,15.54-78.74,19.91-40.04,24.38-38.64,61.38-38.64,61.38,0,0,2.13-1.1,5.21-3.01.7-8.03,5.27-28.2,17.02-39.91Z"/><path class="cls-9" d="M200.19,152.95c-2.49,4.22-5.16,7.76-7.84,10.72,1.88-1.94,7.56-7.08,18.23-11.27,13.44-5.28,31.85,7.93,31.85,7.93,0,0-30.48-27.34-42.24-7.38Z"/><path class="cls-1" d="M370.53,207.43s-2.56,13.3,1.46,21.14l41.65-17.95-39.73,13.94s-2.62-2.22-3.37-17.13Z"/><path class="cls-1" d="M357.17,280.69s-1.07,5.01,0,8.11l32.5-4.06-30.98,1.14-1.52-5.19Z"/><path class="cls-4" d="M213.77,512.02v-.04c-5.73-.3-10.87-2.45-14.85-6.19l-1.32,6.22h-81.5l6.73-31.6h-15.37c-7.52-.2-14.6,0-23.83,0-14.58,0-25.61-4.49-32.77-13.33-8.12-10.03-10.13-24-6.14-42.72l10.69-50.22h125.14c7.77,0,14.42,1.32,19.9,3.94l.84-3.94h50.47c8.87,0,16.29,1.72,22.16,5.14l1.09-5.14h43.56l8.8,24.53,19.24-24.53h46.48l-22.62,106.27h-49.39l-9.77,12.02c-.05.27-.1.54-.16.81-2.48,11.58-11.58,18.76-23.75,18.76h-73.63ZM182.93,460.44l.91-4.3c-4.66,1.27-9.74,1.92-15.19,1.92h-5.42l-.51,2.38h20.21Z"/><path class="cls-4" d="M350.14,381.37l-25.15,32.06-11.5-32.06h-32.62l-2.59,12.15c-.56-.98-1.2-1.92-1.91-2.8-5.02-6.2-13.3-9.35-24.61-9.35h-44.62l-1.99,9.34c-5.02-6.2-13.3-9.34-24.61-9.34h-74.58l-9.47,44.49c-2.43,11.4-6.57,11.4-8.12,11.4-.7,0-1.11-.09-1.28-.15-.18-.37-.96-2.42.32-8.42l10.07-47.32h-36.23l-9.47,44.5c-3.5,16.45-1.97,28.45,4.69,36.67,5.72,7.07,14.86,10.65,27.15,10.65s25.86-3.41,36.26-16.46l-3.5,16.46h15.37l-6.73,31.6h42.01c1.48,0,2.87-.14,4.19-.41l-.09.41h20.6l1.43-6.73c2.81-.05,5.33-.63,7.52-1.67.44.82.96,1.62,1.56,2.37,3.11,3.95,7.58,6.04,12.92,6.04,2.75,0,5.37-.56,7.87-1.62l-.35,1.62h64.71c8.83,0,14.91-4.74,16.68-13.02.91-4.32.1-7.42-1.06-9.53l5.58-12.07,3.73,9.56,19.88-24.47-3.82,17.93h36.23l19.54-91.82h-34.04ZM167.01,467.67c-.4,0-.78.02-1.17.04l.02-.04h-12.06l3.58-16.84h11.28c10.19,0,18.66-2.5,25.28-7.37l-5.15,24.21h-21.77ZM261.15,445.94c2.41-1.32,4.81-3,7.07-5.12l-2.36,11.09-4.71-5.97ZM224.88,468.26l1.84-8.65,6.34,8.05h-2.46l-.64,3c-1.52-1.1-3.22-1.91-5.08-2.41ZM298.73,467.67l3.14-14.78,5.77,14.78h-8.91Z"/><path class="cls-2" d="M57.81,426.32l8.33-39.13h22.36l-8.33,39.13c-2.39,11.18.15,16.77,7.6,16.77s12.37-5.59,14.76-16.77l8.33-39.13h22.36l-8.33,39.13c-5.55,26.09-19.51,39.13-41.87,39.13s-30.76-13.04-25.21-39.13Z"/><path class="cls-2" d="M151.27,443.09l-4.75,22.36h-22.36l16.66-78.25h39.13c18.63,0,25.95,9.32,21.97,27.95-3.95,18.63-15.24,27.95-33.87,27.95h-16.77ZM158.42,409.55l-2.4,11.18h16.77c3.73,0,5.98-1.86,6.76-5.59.82-3.73-.63-5.59-4.36-5.59h-16.77Z"/><path class="cls-2" d="M222.48,443.09l-4.75,22.36h-22.36l16.66-78.25h39.13c18.63,0,25.95,9.32,21.97,27.95-3.17,14.91-11.03,23.85-23.59,26.83l18.5,23.48h-27.95l-17.61-22.36ZM229.63,409.55l-2.4,11.18h16.77c3.73,0,5.98-1.86,6.76-5.59.82-3.73-.63-5.59-4.36-5.59h-16.77Z"/><path class="cls-2" d="M339.28,434.1l-25.47,31.35-14.48-37.11-7.88,37.11h-22.36l16.66-78.25h22.36l14.03,39.13,30.69-39.13h22.36l-16.66,78.25h-22.36l7.94-37.28-4.82,5.94"/><path class="cls-3" d="M154.64,473.49l-3.11,6.73h-8.41l-.37,1.68h10.09l-3.11,6.73h-8.41l-.35,1.68h10.09l-3.11,6.73h-15.14l5.01-23.55h16.82Z"/><path class="cls-3" d="M164.02,488.63c-5.61,0-7.87-2.55-6.78-7.64,1.07-5,4.4-7.5,10.01-7.5h11.78l-3.11,6.73h-10.09c-1.12,0-1.74.26-1.85.77-.13.61.36.91,1.48.91h5.05c5.61,0,7.88,2.5,6.83,7.5-1.09,5.09-4.44,7.64-10.04,7.64h-11.78l3.11-6.73h10.09c1.12,0,1.75-.3,1.88-.91.1-.52-.41-.77-1.53-.77h-5.05Z"/><path class="cls-3" d="M187.71,490.31l-1.43,6.73h-6.73l5.01-23.55h11.78c5.61,0,7.81,2.8,6.61,8.41-1.19,5.61-4.59,8.41-10.2,8.41h-5.05ZM189.86,480.22l-.72,3.37h5.05c1.12,0,1.8-.56,2.04-1.68.25-1.12-.19-1.68-1.31-1.68h-5.05Z"/><path class="cls-3" d="M214.57,497.04c-3.25,0-5.79-1.15-7.6-3.45-1.81-2.3-2.37-5.07-1.67-8.33.68-3.25,2.42-6.03,5.22-8.33,2.79-2.3,5.82-3.45,9.07-3.45s5.78,1.15,7.59,3.45c1.81,2.3,2.37,5.07,1.68,8.33-.7,3.25-2.44,6.03-5.22,8.33-2.79,2.3-5.81,3.45-9.06,3.45ZM219.88,488.83c1.19-.99,1.94-2.18,2.25-3.57.29-1.39.05-2.58-.72-3.57-.77-.99-1.86-1.48-3.25-1.48s-2.69.49-3.89,1.48c-1.2.99-1.95,2.18-2.24,3.57-.3,1.39-.06,2.58.71,3.57.78.99,1.87,1.48,3.26,1.48s2.68-.49,3.88-1.48Z"/><path class="cls-3" d="M238.63,490.31l-1.43,6.73h-6.73l5.01-23.55h11.78c5.61,0,7.81,2.8,6.61,8.41-.95,4.49-3.32,7.18-7.1,8.08l5.57,7.07h-8.41l-5.3-6.73ZM240.78,480.22l-.72,3.37h5.05c1.12,0,1.8-.56,2.04-1.68.25-1.12-.19-1.68-1.31-1.68h-5.05Z"/><path class="cls-3" d="M269.4,480.22l-3.58,16.82h-6.73l3.58-16.82h-5.05l1.43-6.73h16.82l-3.11,6.73h-3.37Z"/><path class="cls-3" d="M283.53,488.63c-5.61,0-7.87-2.55-6.78-7.64,1.07-5,4.4-7.5,10.01-7.5h11.78l-3.11,6.73h-10.09c-1.12,0-1.74.26-1.85.77-.13.61.36.91,1.48.91h5.05c5.61,0,7.88,2.5,6.83,7.5-1.09,5.09-4.44,7.64-10.04,7.64h-11.78l3.11-6.73h10.09c1.12,0,1.75-.3,1.88-.91.1-.52-.41-.77-1.53-.77h-5.05Z"/><path class="cls-7" d="M85.89,453.04l5.32-10.42s0-.01,0-.01c-1.1.31-2.26.48-3.5.48-7.45,0-9.99-5.59-7.6-16.77l8.33-39.13h-11.64l-9.31,46.25s-3.57,18.3,18.41,19.6Z"/><path class="cls-7" d="M122.32,387.19c-2.62,11.49-7.36,32.45-10.3,46.02-4.22,19.49-25.93,19.83-25.93,19.83l5.04,11.77c17.63-2.9,28.87-15.73,33.72-38.49l8.33-39.13h-10.86Z"/><polygon class="cls-7" points="280.88 465.45 294.96 396.37 285.75 387.19 269.1 465.45 280.88 465.45"/><polygon class="cls-7" points="294.96 396.37 318.12 444.17 313.81 465.45 294.96 417.37 294.96 396.37"/><polygon class="cls-7" points="352.83 387.19 361.5 396.37 317.06 448.84 322.14 426.32 352.83 387.19"/><polygon class="cls-7" points="373.23 396.37 361.5 396.37 347.95 465.45 358.53 465.45 373.23 396.37"/><polygon class="cls-7" points="205.73 465.45 221.46 396.37 212.03 387.19 195.37 465.45 205.73 465.45"/><polygon class="cls-7" points="249.55 442.03 268.03 465.45 253.47 465.45 235.13 442.49 249.55 442.03"/><path class="cls-7" d="M246.4,409.55c3.73,0,5.18,1.86,4.36,5.59-.78,3.73-3.04,5.59-6.76,5.59h-16.77l-1.39,10.46c29.35,1.62,32.28-2.02,36.44-18.36,1.68-6.59-.53-10.7-3.19-13.17-2.35-2.19-5.51-3.3-8.72-3.3h-28.92l8.17,13.18h16.77Z"/><polygon class="cls-7" points="134.52 465.45 150.25 396.37 140.82 387.19 124.16 465.45 134.52 465.45"/><path class="cls-7" d="M175.19,409.55c3.73,0,5.18,1.86,4.36,5.59-.78,3.73-3.04,5.59-6.76,5.59h-16.77l-1.39,10.46c29.35,1.62,32.28-2.02,36.44-18.36,1.68-6.59-.53-10.7-3.19-13.17-2.35-2.19-5.51-3.3-8.72-3.3h-28.92l8.17,13.18h16.77Z"/><polygon class="cls-6" points="132.8 497.04 147.94 497.04 151.05 490.31 140.96 490.31 141.31 488.63 149.72 488.63 151.55 484.68 135.43 484.68 132.8 497.04"/><path class="cls-6" d="M164.02,488.63h5.05c1.12,0,1.63.26,1.53.77-.13.61-.76.91-1.88.91h-10.09l-3.11,6.73h11.78c5.61,0,8.96-2.55,10.04-7.64.41-1.96.31-3.53-.3-4.73h-19.9c.57,2.63,2.86,3.95,6.89,3.95Z"/><path class="cls-6" d="M179.55,497.04h6.73l1.43-6.73h5.05c4.59,0,7.7-1.88,9.33-5.63h-19.9l-2.63,12.36Z"/><path class="cls-6" d="M222.12,485.26c-.3,1.39-1.05,2.58-2.25,3.57-1.19.99-2.49,1.48-3.88,1.48s-2.48-.49-3.26-1.48c-.78-.99-1.02-2.18-.71-3.57.04-.2.12-.39.18-.59h-6.76c-.05.2-.11.39-.15.59-.7,3.25-.14,6.03,1.67,8.33,1.81,2.3,4.34,3.45,7.6,3.45s6.27-1.15,9.06-3.45c2.79-2.3,4.53-5.07,5.22-8.33.04-.2.06-.39.1-.59h-6.74c-.02.19-.05.39-.09.59Z"/><path class="cls-6" d="M230.47,497.04h6.73l1.43-6.73,5.3,6.73h8.41l-5.57-7.07c2.92-.69,4.98-2.47,6.22-5.3h-19.89l-2.63,12.36Z"/><polygon class="cls-6" points="259.09 497.04 265.82 497.04 268.45 484.68 261.72 484.68 259.09 497.04"/><path class="cls-6" d="M283.53,488.63h5.05c1.12,0,1.63.26,1.53.77-.13.61-.76.91-1.88.91h-10.09l-3.11,6.73h11.78c5.61,0,8.96-2.55,10.04-7.64.41-1.96.31-3.53-.3-4.73h-19.9c.57,2.63,2.86,3.95,6.89,3.95Z"/><path class="cls-4" d="M193.77,512.02h31.53s-23.93-10.46-25.86-10.46-7.9,1.61-7.9,1.61l2.23,8.85Z"/><rect class="cls-4" x="156.94" y="449.47" width="33.88" height="11.12"/></svg>