<?xml version="1.0" encoding="UTF-8"?><svg id="Layer_1" xmlns="http://www.w3.org/2000/svg" viewBox="0 0 593.8 586.88"><defs><style>.cls-1{fill:#231f20;}.cls-2{fill:#fff;}.cls-3{fill:#52b84e;}.cls-4{fill:#132113;}.cls-5{fill:#00ab51;}.cls-6{fill:#437840;}.cls-7{fill:#b2b2b2;}.cls-8{fill:#0d5f32;}.cls-9{fill:#f6bf7b;}.cls-10{fill:#ce8d34;}.cls-11{fill:#9b7345;}</style></defs><path class="cls-3" d="M502.14,112.25l62.7-50.86S254.98-21.52,24.54,183.83c0,0,3.14,202.22,174,332.33l-7.84,61.14S456.15,417.4,502.14,112.25ZM237.74,482.2s-126.45-82.56-161.98-277.99c0,0,160.24-142.83,380.4-110.78,0,0,6.27,218.42-218.42,388.76Z"/><path class="cls-6" d="M488.65,72.92l-19.74,7.63L62.99,198.76l-13.89-6S238.94,23.3,488.65,72.92Z"/><path class="cls-6" d="M49.1,192.76l-24.51-9.02s3.14,202.22,174,332.33l30.42-1.31S41.55,368.71,49.1,192.76Z"/><path class="cls-6" d="M228.73,515.28l-38.26,62.45S455.92,417.83,501.9,112.68l62.7-50.86-75.95,11.11s-1.01,249.41-259.93,442.36Z"/><path class="cls-4" d="M468.91,80.56C233.98,46.36,62.99,198.76,62.99,198.76c37.92,208.53,172.85,296.63,172.85,296.63,239.76-181.77,233.07-414.84,233.07-414.84Z"/><path class="cls-4" d="M457.89,356.76l100.03-12.92-73.58-36.76c.79-2.46,1.22-4.11,1.39-4.78,3.27-11.18,5.18-22.9,5.69-34.92l88.81-38.9-96.4-17.44c-2.14-6.72-3.93-10.68-4.02-10.89l-1.74-3.82-11.54-4.17c-5.65-9.3.09-32.31,15.43-61.22,3.41-6.43,3.93-14.04,1.42-20.87-2.53-6.88-7.91-12.39-14.75-15.1-25.25-10.02-53.57-32.25-64.58-41.34-4.06-3.35-9.19-5.2-14.45-5.2-1.26,0-2.53.11-3.77.31l-57.24,9.61c-4.52.76-8.66,3.06-11.66,6.47-5.07,5.77-9.19,8.02-10.73,8.13-6.68.46-11.39,1.95-14.76,4.78-2.27-.07-4.54-.1-6.8-.1-28.05,0-49.63,5.11-59.85,8.09-5.19-4.65-14.63-11.15-31.1-17.36-5.62-2.12-11.13-3.19-16.39-3.19-17.63,0-28.44,11.95-32.05,19.01l-.66.98-.22,1.51c-.29.99-2.42,7.36-11.21,11.94-5.29,2.76-13.98,4.48-24.46,4.84-5.23.18-10.04,2.67-13.21,6.84-3.16,4.15-4.27,9.45-3.05,14.53l4.55,18.96c-5.02,6.18-13.77,18.68-19.26,36.29-4,12.86-2.54,25.59,4.13,35.83.77,1.18,1.65,2.38,2.61,3.55-9.21,11.06-10.92,25.29-12.35,37.27l-.05.4c-9.03,20.08-11.01,33.45-11.17,40.83-3.73,3.57-8.24,9.51-9.19,17.93-1,8.92,3.17,16.18,6.87,20.7-2.12,8.66-4.47,25.17,1.26,44.42,10.6,40.05,45.01,46.91,59.3,48.01,5.12,7.93,17.28,20.41,45.03,27.27,7.71,1.91,15.63,2.88,23.53,2.88,23.1,0,42.01-8.16,54.08-14.19,21.63,24.18,57.28,33,85,33,11.04,0,21.58-1.39,30.46-4.01l.38-.11.37-.14c21.77-8.35,38.84-22.48,50.89-42.09l55.19,42.79-30.34-91.71c8.88-7.83,16.97-16.52,24.14-25.96Z"/><path class="cls-2" d="M414.86,356.72l-2.87.36c-1.23.16-30.33,4.1-42.41,28.27l-1.29,2.58,76.53,59.33-29.96-90.55Z"/><path class="cls-4" d="M330.7,68.92l57.24-9.61c3.65-.61,7.37.38,10.23,2.74,10.97,9.06,40.54,32.32,67.25,42.92,8.76,3.47,12.62,13.72,8.2,22.04-11.56,21.79-27.44,58.59-12.7,74.29l10.27,3.71s20.32,44.67,5.38,95.43c0,0-11.38,48.03-59.3,83.96-4.98,19.69-15.06,62.62-62.38,80.76-31.31,9.25-86.45,1.42-109.94-32.02-13.16,6.76-41.98,23.13-77.92,14.23-35.93-8.89-41.27-27.4-41.27-27.4,0,0-44.47,2.49-55.86-40.91-7.47-24.9.36-44.47.36-44.47,0,0-9.25-7.35-8.18-16.84,1.07-9.49,9.49-14.47,9.49-14.47,0,0-2.73-13.52,10.67-42.69,1.9-15.65,3.2-31.55,18.14-40.68-3.08-.36-19.92-12.89-12.69-36.13,7.23-23.24,20.64-36.57,20.64-36.57l-5.76-23.97c-1.09-4.54,2.26-8.92,6.92-9.08,8.19-.29,20.2-1.53,28.72-5.96,14.11-7.35,16.37-18.74,16.37-18.74,0,0,10.55-20.64,36.05-11.03,25.5,9.61,31.66,19.45,31.66,19.45,0,0,30.6-11.5,74.12-9.25,1.07-1.54,1.27-4.33,10.93-5,6.94-.48,14.06-7.55,17.52-11.49,1.51-1.72,3.57-2.84,5.82-3.22Z"/><path class="cls-2" d="M115.52,128.18s31.9-4.27,39.14-15.06c7.23-10.79,14.94-30.48,39.97-18.97l16.37,6.88-32.61,13.64s3.08-5.22-.47-10.08c0,0-5.34,8.42-16.84,16.25-11.5,7.83-.24,8.3-.24,8.3l-9.13,7.59s-8.54-7.95-32.73,6.17l-3.44-14.71Z"/><path class="cls-2" d="M142.91,201.65s24.55-3.97,33.62-11.8c0,0-2.91-41.74,42.63-80.88,0,0-37.95,11.86-71.39,33.92,0,0-13.76-3.56-26.8,6.64,0,0-27.87,28.11-25.38,45.54s16.37,12.45,16.37,12.45c0,0,8.36-28.28,39.85-43.41,0,0-13.34,25.08-8.89,37.53Z"/><path class="cls-2" d="M104.13,247.36s-7.35-5.1-5.1-9.13c2.25-4.03,11.03,1.66,12.33,8.18,1.3,6.52,9.13,23.24-5.57,27.87-14.71,4.63-13.88-18.74-9.61-23.24,4.27-4.51,7.95-3.68,7.95-3.68Z"/><path class="cls-2" d="M138.65,247.01s10.44-6.88,12.22-11.03c1.78-4.15-7.35-5.22-14.47,3.44-7.12,8.66-20.4,39.37,19.09,29.89l23.36-26.56.83,18.26,16.13-5.12s-15.42-11.01-18.62-29.16c0,0,2.61,20.96-34.75,29.16l-3.79-8.88Z"/><path class="cls-2" d="M216.38,352.67s-5.51,35.04,19.39,69.2c0,0-58.7,22.95-89.3-5.51-30.6-28.46-44.83-65.11-44.83-65.11,0,0-8.54,36.11,11.21,58.35,0,0-49.99-16.54-29.71-77.03,0,0,42.17-26.65,94.33,14.34,1.18.93,2.81-.35,2.19-1.72-5.37-11.98-22.21-40.37-60.23-36.99-18.7,1.81-32.36,11.18-37.38,15.14-1.29,1.02-3.1,1.06-4.44.11l-2.57-1.82c-1.96-1.39-2.12-4.25-.3-5.82,7.47-6.46,27.85-20.15,64.73-18.28,36.19,1.83,59.12,26.51,76.91,55.15Z"/><path class="cls-2" d="M241.47,365.13s39.85,21.35,72.58-49.81c0,0,33.68,38.9,81.83,17.31,0,0,16.6,101.28-45.07,114.56-61.67,13.28-102.7-15.42-109.34-82.07Z"/><path class="cls-5" d="M421.02,199.57s13.99,2.85,19.21,1.19c14.23,5.22,24.88,10.13,24.88,10.13,0,0,15.43,41.1-1.28,96.6-11.19,37.18-46.96,66.89-46.96,66.89,0,0,29.17-61.91,18.86-114.21-10.32-52.3-14.71-60.6-14.71-60.6Z"/><path class="cls-8" d="M448.78,204.01c-2.64-1.04-5.51-2.14-8.55-3.25-5.22,1.66-19.21-1.19-19.21-1.19,0,0,4.39,8.3,14.71,60.6,10.32,52.3-18.86,114.21-18.86,114.21,49.91-61.43,36.04-149.73,31.91-170.37Z"/><path class="cls-2" d="M440.39,300.69s-17.44,22.61-9.32,46.73l81.72-10.56-72.4-36.18Z"/><path class="cls-7" d="M431.81,346.07l81.72-10.56c-45.43.18-71.76-6.29-83.29-10.1-.99,6.38-.86,13.45,1.57,20.66Z"/><path class="cls-4" d="M428.65,351.29l-.92-2.74c-8.62-25.61,9.11-49.02,9.87-50.01l1.77-2.29,85.32,42.63-96.03,12.41ZM441.56,305.21c-3.7,5.84-12.18,21.62-7.97,38.34l67.3-8.7-59.33-29.65Z"/><path class="cls-2" d="M176.54,297.17s-4.8-24.4-3.02-41.29c0,0-23.13,29.37-24.19,34.7,0,0,12.1,1.07,27.22,6.58Z"/><path class="cls-2" d="M87.95,271.1l16.1,22.16s-14.14,1.42-23.75,7.29c0,0-1.96-16.39,7.65-29.45Z"/><path class="cls-2" d="M107.5,292.2s19.33-2.97,35.81-1.44l-5.2-12.34s-8,2.85-9.88,7.1c0,0-2.25-5-5.41-7.96,0,0-4.72,5.86-5.09,9.11l-.2.07s-2.91-5.09-5.64-7c0,0-4.97,9.56-4.39,12.47Z"/><path class="cls-2" d="M179.56,268.18l3.38,32.38s48.92,26.72,59.77,42.2c10.85,15.48,24.55,5.51,39.85-11.56,15.3-17.08,20.81-33.66,14.94-60.88-5.87-27.22-45.54-29.35-117.94-2.13Z"/><path class="cls-2" d="M248.46,196.96s11.74-11.98,17.67-13.16c5.93-1.19,12.22,11.5,7.35,22.41-4.86,10.91-15.54,13.88-27.63,11.5,0,0,10.55-7.23,2.61-20.75Z"/><path class="cls-4" d="M303.19,276.1l-14.91,23.06-2.74,4.23c-1.53-2.79-10.12-18.53-11.84-21.68,0,0,4.99.42,4.99.42l-8,10.14-2.78,3.52c-1.45-2.59-6.85-12.23-8.39-14.99l5.36-.26c-.78,1.78-4.18,9.5-4.89,11.12l-2.55-.75c-11.17-4.14-22.9-7.58-34.89-8.2,12.23-1.37,24.56.13,36.62,2.45,0,0-3.61,1.66-3.61,1.66,1.48-3.37,4.8-10.9,6.25-14.2,1.88,3.35,7.19,12.84,9.14,16.32l-4.97-.39,8-10.14,2.81-3.56c1.37,2.51,10.04,18.36,11.6,21.24,0,0-5.15-.19-5.15-.19l14.91-23.06,5.04,3.26h0Z"/><path class="cls-2" d="M445.63,218.48s-9.04,22.19,4.66,53.13l84.48-37.01-89.14-16.13Z"/><path class="cls-7" d="M451.82,271.61l84.48-37.01c-55.16,10.44-78.76,26.99-91.84-2.65-.76,9.48.14,23.35,7.36,39.66Z"/><path class="cls-4" d="M448.49,276.24l-1.42-3.2c-14.14-31.94-5.09-54.92-4.7-55.89l1.08-2.64,103.31,18.69-98.26,43.04ZM448.06,222.49c-1.65,6.28-4.47,22.97,4.09,44.46l70.64-30.94-74.73-13.52Z"/><path class="cls-7" d="M350.81,447.19c61.67-13.28,45.07-114.56,45.07-114.56,0,0,11.15,74.71-56.69,91.79-67.84,17.08-97.72-59.3-97.72-59.3,6.64,66.65,47.67,95.35,109.34,82.07Z"/><path class="cls-7" d="M83.23,332.66c-20.28,60.48,29.71,77.03,29.71,77.03-5.16-5.81-8.39-12.57-10.34-19.38,0,0,0,0,0,0-17.81-23.12-19.37-57.64-19.37-57.64Z"/><path class="cls-7" d="M146.49,416.43c30.6,28.46,89.3,5.51,89.3,5.51-5.82-7.98-9.98-16.01-12.93-23.63-74.96,7.2-121.2-46.99-121.2-46.99,0,0,14.23,36.65,44.83,65.11Z"/><path class="cls-7" d="M106.96,166.38c-6.49,9.09-12.53,20.16-11.31,28.68,2.49,17.43,16.37,12.45,16.37,12.45,0,0,.63-2.1,2.16-5.46-12.3-5.52-9.8-24.72-7.22-35.68Z"/><path class="cls-7" d="M151.79,164.14s-13.34,25.08-8.89,37.53c0,0,24.55-3.97,33.62-11.8,0,0-.15-2.14.15-5.88-28.27,13.74-24.88-19.85-24.88-19.85Z"/><path class="cls-10" d="M400.15,267.7c-.26.16-.52.32-.79.48-.04.12-.07.23-.11.35,0,0,.33-.33.9-.83Z"/><path class="cls-10" d="M449.05,123.16c-42.47-15.39-59.32-38.06-64.4-46.59-1.21-2.03-3.54-3.11-5.87-2.69l-38.37,6.92c-2.28.41-4.36,1.51-6.04,3.1-27.24,25.7-73.09,17.94-100.02,23.46-52.11,31.72-50.28,79.87-50.28,79.87,0,0,16.66-8.57,27.51-20.52,10.85-11.95,19.75-36.05,46.61-28.23,26.86,7.83,27.93,34.15,27.93,34.15,0,0-39.67-35.58-54.97-9.61-8.3,14.08-18.21,22.35-25.55,26.98,5.64,1.67,17.56,2.49,33.38-11.33,0,0,18.33-15.11,42.13-1.99,0,0,0,0,0,0,15.49,4.93,28.14,16.75,28.14,16.75-12.1-4.09-23.84,5.16-23.84,5.16,0,0-1.07,18.86-22.06,27.57-20.99,8.72-34.51-10.85-34.51-10.85-13.84,4.86-24.02,5.05-31.23,3.57,3.1,7.19,11.3,18,32.47,16.24,31.31-2.61,87.83-16.79,94.16,32.26,5.11,39.58,55.76,12.65,75.12.78,19.68-58.54-12.74-76.1-12.74-76.1,10.91-37.61-28.46-61.53-36.05-64.62-7.59-3.08-11.86,15.42-11.86,15.42-4.27-24.67,17.79-37.48,17.79-37.48-6.4-4.98,0-8.78,0-8.78,0,0,23.48-3.32,37,41.03,16.37,59.3,49.81,54.32,49.81,54.32-9.34-23.87,2.13-48.11,9.03-59.49,2.1-3.46.51-7.95-3.29-9.32Z"/><path class="cls-11" d="M238.98,178.7c-15.82,13.81-27.73,13-33.38,11.33-6.2,3.9-10.56,5.22-10.56,5.22,0,0,5.51,11.56,15.95,11.21,16.48-.36,27.99-11.03,34.39-20.81,6.4-9.78,13.16-9.43,13.16-9.43,7.47-2.6,15.32-1.8,22.56.51,0,0,0,0,0,0-23.8-13.13-42.13,1.99-42.13,1.99Z"/><path class="cls-11" d="M416.69,268.53c-.78-2.56-1.91-4.13-3.21-5.01l-6.63-.16s-2.53,1.76-6.69,4.34c-.57.5-.9.83-.9.83,0,0,10.57-26.82,4.75-50.05-3.85-12.21-7.44-18.72-13.03-23.11,0,0,12.65,50.22-6.35,81.09,0,0,0,0,0,0-23.04,11.71-56.29,22.62-60.38-9.05-6.33-49.04-62.85-34.87-94.16-32.26-21.17,1.76-29.38-9.05-32.47-16.24-10.48-2.15-14.67-7.84-14.67-7.84-4.8,29.53,20.77,41.02,20.77,41.02,0,0,7.52-3.18,23.88-6.69,33.93-8.75,72.76-7.47,77.03,17.96,4.27,25.43,13.5,66.36,68.11,63.34,54.61-3.02,48.05-44.83,43.96-58.17Z"/><path class="cls-7" d="M86.35,277.55s-5.34,12.45-3.68,19.81c0,0,6.88-5.43,16.48-4.72,0,0-6.52-2.99-13.28.57,0,0-1.42-4.74.47-15.65Z"/><path class="cls-7" d="M171.38,274.47s-.16,13.33,1.16,17.54c0,0-7.65-2.67-13.88-3.29,0,0,1.96-1.07,10.41-.44l2.31-13.81Z"/><path class="cls-9" d="M213,130.9c20.04-19.96,21.7-18.14,21.7-18.14,0,0,78.45,4.8,105.49-26.33l37.89-7.29s18.18,28.81,44.58,31.48c0,0,0,0,0,0-31.35-17.88-39.84-37.95-39.84-37.95l-46.01,8.3c-26.86,28.64-74.71,20.22-102.46,25.91-52.11,31.72-50.28,79.87-50.28,79.87,0,0,2.77-1.43,6.79-3.92.91-10.45,6.85-36.7,22.15-51.94Z"/><path class="cls-9" d="M231,163.18c-3.24,5.5-6.72,10.1-10.2,13.95,2.45-2.52,9.83-9.21,23.72-14.66,17.49-6.87,41.45,10.32,41.45,10.32,0,0-39.67-35.58-54.97-9.61Z"/><path class="cls-1" d="M452.68,234.08s-3.33,17.31,1.89,27.51l54.2-23.36-51.71,18.14s-3.41-2.89-4.39-22.3Z"/><path class="cls-1" d="M435.28,329.43s-1.39,6.52,0,10.55l42.3-5.28-40.32,1.48-1.98-6.76Z"/></svg>