<svg id="visual" viewBox="0 0 960 540" width="960" height="540" xmlns="http://www.w3.org/2000/svg" xmlns:xlink="http://www.w3.org/1999/xlink" version="1.1"><rect width="960" height="540" fill="#050505"></rect><g><g transform="translate(259 399)"><path d="M0 -31.3L27.1 -15.7L27.1 15.7L0 31.3L-27.1 15.7L-27.1 -15.7Z" fill="none" stroke="#0b0b0b" stroke-width="1"></path></g><g transform="translate(644 366)"><path d="M0 -18L15.6 -9L15.6 9L0 18L-15.6 9L-15.6 -9Z" fill="none" stroke="#0b0b0b" stroke-width="1"></path></g><g transform="translate(777 110)"><path d="M0 -13L11.3 -6.5L11.3 6.5L0 13L-11.3 6.5L-11.3 -6.5Z" fill="none" stroke="#0b0b0b" stroke-width="1"></path></g><g transform="translate(263 33)"><path d="M0 -20L17.3 -10L17.3 10L0 20L-17.3 10L-17.3 -10Z" stroke="#0b0b0b" fill="none" stroke-width="1"></path></g><g transform="translate(654 176)"><path d="M0 -8L6.9 -4L6.9 4L0 8L-6.9 4L-6.9 -4Z" stroke="#0b0b0b" fill="none" stroke-width="1"></path></g><g transform="translate(506 342)"><path d="M0 -24L20.8 -12L20.8 12L0 24L-20.8 12L-20.8 -12Z" stroke="#0b0b0b" fill="none" stroke-width="1"></path></g><g transform="translate(177 415)"><path d="M0 -19L16.5 -9.5L16.5 9.5L0 19L-16.5 9.5L-16.5 -9.5Z" stroke="#0b0b0b" fill="none" stroke-width="1"></path></g><g transform="translate(247 169)"><path d="M0 -4L3.5 -2L3.5 2L0 4L-3.5 2L-3.5 -2Z" stroke="#0b0b0b" fill="none" stroke-width="1"></path></g><g transform="translate(683 443)"><path d="M0 -4L3.5 -2L3.5 2L0 4L-3.5 2L-3.5 -2Z" stroke="#0b0b0b" fill="none" stroke-width="1"></path></g><g transform="translate(265 290)"><path d="M0 -20L17.3 -10L17.3 10L0 20L-17.3 10L-17.3 -10Z" stroke="#0b0b0b" fill="none" stroke-width="1"></path></g><g transform="translate(122 34)"><path d="M0 -13L11.3 -6.5L11.3 6.5L0 13L-11.3 6.5L-11.3 -6.5Z" stroke="#0b0b0b" fill="none" stroke-width="1"></path></g><g transform="translate(827 275)"><path d="M0 -9L7.8 -4.5L7.8 4.5L0 9L-7.8 4.5L-7.8 -4.5Z" stroke="#0b0b0b" fill="none" stroke-width="1"></path></g><g transform="translate(743 371)"><path d="M0 -18L15.6 -9L15.6 9L0 18L-15.6 9L-15.6 -9Z" stroke="#0b0b0b" fill="none" stroke-width="1"></path></g><g transform="translate(107 350)"><path d="M0 -3L2.6 -1.5L2.6 1.5L0 3L-2.6 1.5L-2.6 -1.5Z" stroke="#0b0b0b" fill="none" stroke-width="1"></path></g><g transform="translate(480 414)"><path d="M0 -27L23.4 -13.5L23.4 13.5L0 27L-23.4 13.5L-23.4 -13.5Z" stroke="#0b0b0b" fill="none" stroke-width="1"></path></g><g transform="translate(79 480)"><path d="M0 -23L19.9 -11.5L19.9 11.5L0 23L-19.9 11.5L-19.9 -11.5Z" stroke="#0b0b0b" fill="none" stroke-width="1"></path></g><g transform="translate(349 413)"><path d="M0 -8L6.9 -4L6.9 4L0 8L-6.9 4L-6.9 -4Z" stroke="#0b0b0b" fill="none" stroke-width="1"></path></g><g transform="translate(889 181)"><path d="M0 -16L13.9 -8L13.9 8L0 16L-13.9 8L-13.9 -8Z" stroke="#0b0b0b" fill="none" stroke-width="1"></path></g><g transform="translate(479 237)"><path d="M0 -19L16.5 -9.5L16.5 9.5L0 19L-16.5 9.5L-16.5 -9.5Z" stroke="#0b0b0b" fill="none" stroke-width="1"></path></g><g transform="translate(643 280)"><path d="M0 -14L12.1 -7L12.1 7L0 14L-12.1 7L-12.1 -7Z" stroke="#0b0b0b" fill="none" stroke-width="1"></path></g><g transform="translate(728 269)"><path d="M0 -10L8.7 -5L8.7 5L0 10L-8.7 5L-8.7 -5Z" stroke="#0b0b0b" fill="none" stroke-width="1"></path></g><g transform="translate(927 245)"><path d="M0 -21L18.2 -10.5L18.2 10.5L0 21L-18.2 10.5L-18.2 -10.5Z" stroke="#0b0b0b" fill="none" stroke-width="1"></path></g><g transform="translate(154 141)"><path d="M0 -16L13.9 -8L13.9 8L0 16L-13.9 8L-13.9 -8Z" stroke="#0b0b0b" fill="none" stroke-width="1"></path></g><g transform="translate(223 467)"><path d="M0 -15L13 -7.5L13 7.5L0 15L-13 7.5L-13 -7.5Z" stroke="#0b0b0b" fill="none" stroke-width="1"></path></g><g transform="translate(275 106)"><path d="M0 -13L11.3 -6.5L11.3 6.5L0 13L-11.3 6.5L-11.3 -6.5Z" stroke="#0b0b0b" fill="none" stroke-width="1"></path></g><g transform="translate(482 129)"><path d="M0 -29L25.1 -14.5L25.1 14.5L0 29L-25.1 14.5L-25.1 -14.5Z" stroke="#0b0b0b" fill="none" stroke-width="1"></path></g><g transform="translate(160 277)"><path d="M0 -21L18.2 -10.5L18.2 10.5L0 21L-18.2 10.5L-18.2 -10.5Z" stroke="#0b0b0b" fill="none" stroke-width="1"></path></g><g transform="translate(91 414)"><path d="M0 -14L12.1 -7L12.1 7L0 14L-12.1 7L-12.1 -7Z" stroke="#0b0b0b" fill="none" stroke-width="1"></path></g><g transform="translate(821 364)"><path d="M0 -9L7.8 -4.5L7.8 4.5L0 9L-7.8 4.5L-7.8 -4.5Z" stroke="#0b0b0b" fill="none" stroke-width="1"></path></g><g transform="translate(916 51)"><path d="M0 -5L4.3 -2.5L4.3 2.5L0 5L-4.3 2.5L-4.3 -2.5Z" stroke="#0b0b0b" fill="none" stroke-width="1"></path></g><g transform="translate(855 125)"><path d="M0 -15L13 -7.5L13 7.5L0 15L-13 7.5L-13 -7.5Z" stroke="#0b0b0b" fill="none" stroke-width="1"></path></g><g transform="translate(84 257)"><path d="M0 -20L17.3 -10L17.3 10L0 20L-17.3 10L-17.3 -10Z" stroke="#0b0b0b" fill="none" stroke-width="1"></path></g><g transform="translate(140 506)"><path d="M0 -15L13 -7.5L13 7.5L0 15L-13 7.5L-13 -7.5Z" stroke="#0b0b0b" fill="none" stroke-width="1"></path></g><g transform="translate(441 300)"><path d="M0 -8L6.9 -4L6.9 4L0 8L-6.9 4L-6.9 -4Z" stroke="#0b0b0b" fill="none" stroke-width="1"></path></g><g transform="translate(758 212)"><path d="M0 -22L19.1 -11L19.1 11L0 22L-19.1 11L-19.1 -11Z" stroke="#0b0b0b" fill="none" stroke-width="1"></path></g><g transform="translate(891 469)"><path d="M0 -22L19.1 -11L19.1 11L0 22L-19.1 11L-19.1 -11Z" stroke="#0b0b0b" fill="none" stroke-width="1"></path></g><g transform="translate(570 74)"><path d="M0 -7L6.1 -3.5L6.1 3.5L0 7L-6.1 3.5L-6.1 -3.5Z" stroke="#0b0b0b" fill="none" stroke-width="1"></path></g><g transform="translate(360 270)"><path d="M0 -17L14.7 -8.5L14.7 8.5L0 17L-14.7 8.5L-14.7 -8.5Z" stroke="#0b0b0b" fill="none" stroke-width="1"></path></g><g transform="translate(817 482)"><path d="M0 -16L13.9 -8L13.9 8L0 16L-13.9 8L-13.9 -8Z" stroke="#0b0b0b" fill="none" stroke-width="1"></path></g><g transform="translate(495 50)"><path d="M0 -14L12.1 -7L12.1 7L0 14L-12.1 7L-12.1 -7Z" stroke="#0b0b0b" fill="none" stroke-width="1"></path></g><g transform="translate(406 188)"><path d="M0 -9L7.8 -4.5L7.8 4.5L0 9L-7.8 4.5L-7.8 -4.5Z" stroke="#0b0b0b" fill="none" stroke-width="1"></path></g><g transform="translate(565 223)"><path d="M0 -8L6.9 -4L6.9 4L0 8L-6.9 4L-6.9 -4Z" stroke="#0b0b0b" fill="none" stroke-width="1"></path></g><g transform="translate(632 40)"><path d="M0 -12L10.4 -6L10.4 6L0 12L-10.4 6L-10.4 -6Z" stroke="#0b0b0b" fill="none" stroke-width="1"></path></g><g transform="translate(438 80)"><path d="M0 -11L9.5 -5.5L9.5 5.5L0 11L-9.5 5.5L-9.5 -5.5Z" stroke="#0b0b0b" fill="none" stroke-width="1"></path></g><g transform="translate(356 334)"><path d="M0 -17L14.7 -8.5L14.7 8.5L0 17L-14.7 8.5L-14.7 -8.5Z" stroke="#0b0b0b" fill="none" stroke-width="1"></path></g><g transform="translate(369 504)"><path d="M0 -10L8.7 -5L8.7 5L0 10L-8.7 5L-8.7 -5Z" stroke="#0b0b0b" fill="none" stroke-width="1"></path></g><g transform="translate(889 326)"><path d="M0 -7L6.1 -3.5L6.1 3.5L0 7L-6.1 3.5L-6.1 -3.5Z" stroke="#0b0b0b" fill="none" stroke-width="1"></path></g><g transform="translate(88 153)"><path d="M0 -8L6.9 -4L6.9 4L0 8L-6.9 4L-6.9 -4Z" stroke="#0b0b0b" fill="none" stroke-width="1"></path></g><g transform="translate(562 369)"><path d="M0 -29L25.1 -14.5L25.1 14.5L0 29L-25.1 14.5L-25.1 -14.5Z" stroke="#0b0b0b" fill="none" stroke-width="1"></path></g><g transform="translate(203 83)"><path d="M0 -5L4.3 -2.5L4.3 2.5L0 5L-4.3 2.5L-4.3 -2.5Z" stroke="#0b0b0b" fill="none" stroke-width="1"></path></g><g transform="translate(792 43)"><path d="M0 -28L24.2 -14L24.2 14L0 28L-24.2 14L-24.2 -14Z" stroke="#0b0b0b" fill="none" stroke-width="1"></path></g><g transform="translate(583 448)"><path d="M0 -25L21.7 -12.5L21.7 12.5L0 25L-21.7 12.5L-21.7 -12.5Z" stroke="#0b0b0b" fill="none" stroke-width="1"></path></g><g transform="translate(37 211)"><path d="M0 -27L23.4 -13.5L23.4 13.5L0 27L-23.4 13.5L-23.4 -13.5Z" stroke="#0b0b0b" fill="none" stroke-width="1"></path></g><g transform="translate(430 375)"><path d="M0 -7L6.1 -3.5L6.1 3.5L0 7L-6.1 3.5L-6.1 -3.5Z" stroke="#0b0b0b" fill="none" stroke-width="1"></path></g><g transform="translate(353 126)"><path d="M0 -9L7.8 -4.5L7.8 4.5L0 9L-7.8 4.5L-7.8 -4.5Z" stroke="#0b0b0b" fill="none" stroke-width="1"></path></g><g transform="translate(635 491)"><path d="M0 -11L9.5 -5.5L9.5 5.5L0 11L-9.5 5.5L-9.5 -5.5Z" stroke="#0b0b0b" fill="none" stroke-width="1"></path></g><g transform="translate(661 96)"><path d="M0 -23L19.9 -11.5L19.9 11.5L0 23L-19.9 11.5L-19.9 -11.5Z" stroke="#0b0b0b" fill="none" stroke-width="1"></path></g><g transform="translate(367 63)"><path d="M0 -9L7.8 -4.5L7.8 4.5L0 9L-7.8 4.5L-7.8 -4.5Z" stroke="#0b0b0b" fill="none" stroke-width="1"></path></g><g transform="translate(880 407)"><path d="M0 -19L16.5 -9.5L16.5 9.5L0 19L-16.5 9.5L-16.5 -9.5Z" stroke="#0b0b0b" fill="none" stroke-width="1"></path></g><g transform="translate(719 35)"><path d="M0 -9L7.8 -4.5L7.8 4.5L0 9L-7.8 4.5L-7.8 -4.5Z" stroke="#0b0b0b" fill="none" stroke-width="1"></path></g><g transform="translate(298 232)"><path d="M0 -6L5.2 -3L5.2 3L0 6L-5.2 3L-5.2 -3Z" stroke="#0b0b0b" fill="none" stroke-width="1"></path></g><g transform="translate(42 72)"><path d="M0 -17L14.7 -8.5L14.7 8.5L0 17L-14.7 8.5L-14.7 -8.5Z" stroke="#0b0b0b" fill="none" stroke-width="1"></path></g><g transform="translate(433 471)"><path d="M0 -16L13.9 -8L13.9 8L0 16L-13.9 8L-13.9 -8Z" stroke="#0b0b0b" fill="none" stroke-width="1"></path></g><g transform="translate(222 241)"><path d="M0 -5L4.3 -2.5L4.3 2.5L0 5L-4.3 2.5L-4.3 -2.5Z" stroke="#0b0b0b" fill="none" stroke-width="1"></path></g><g transform="translate(752 440)"><path d="M0 -29L25.1 -14.5L25.1 14.5L0 29L-25.1 14.5L-25.1 -14.5Z" stroke="#0b0b0b" fill="none" stroke-width="1"></path></g><g transform="translate(211 340)"><path d="M0 -19L16.5 -9.5L16.5 9.5L0 19L-16.5 9.5L-16.5 -9.5Z" stroke="#0b0b0b" fill="none" stroke-width="1"></path></g><g transform="translate(42 360)"><path d="M0 -24L20.8 -12L20.8 12L0 24L-20.8 12L-20.8 -12Z" stroke="#0b0b0b" fill="none" stroke-width="1"></path></g><g transform="translate(299 502)"><path d="M0 -13L11.3 -6.5L11.3 6.5L0 13L-11.3 6.5L-11.3 -6.5Z" stroke="#0b0b0b" fill="none" stroke-width="1"></path></g><g transform="translate(542 161)"><path d="M0 -13L11.3 -6.5L11.3 6.5L0 13L-11.3 6.5L-11.3 -6.5Z" stroke="#0b0b0b" fill="none" stroke-width="1"></path></g><g transform="translate(155 204)"><path d="M0 -4L3.5 -2L3.5 2L0 4L-3.5 2L-3.5 -2Z" stroke="#0b0b0b" fill="none" stroke-width="1"></path></g><g transform="translate(582 309)"><path d="M0 -21L18.2 -10.5L18.2 10.5L0 21L-18.2 10.5L-18.2 -10.5Z" stroke="#0b0b0b" fill="none" stroke-width="1"></path></g><g transform="translate(498 490)"><path d="M0 -13L11.3 -6.5L11.3 6.5L0 13L-11.3 6.5L-11.3 -6.5Z" stroke="#0b0b0b" fill="none" stroke-width="1"></path></g><g transform="translate(918 123)"><path d="M0 -7L6.1 -3.5L6.1 3.5L0 7L-6.1 3.5L-6.1 -3.5Z" stroke="#0b0b0b" fill="none" stroke-width="1"></path></g><g transform="translate(821 200)"><path d="M0 -3L2.6 -1.5L2.6 1.5L0 3L-2.6 1.5L-2.6 -1.5Z" stroke="#0b0b0b" fill="none" stroke-width="1"></path></g><g transform="translate(710 136)"><path d="M0 -20L17.3 -10L17.3 10L0 20L-17.3 10L-17.3 -10Z" stroke="#0b0b0b" fill="none" stroke-width="1"></path></g><g transform="translate(712 507)"><path d="M0 -9L7.8 -4.5L7.8 4.5L0 9L-7.8 4.5L-7.8 -4.5Z" stroke="#0b0b0b" fill="none" stroke-width="1"></path></g><g transform="translate(604 133)"><path d="M0 -9L7.8 -4.5L7.8 4.5L0 9L-7.8 4.5L-7.8 -4.5Z" stroke="#0b0b0b" fill="none" stroke-width="1"></path></g><g transform="translate(776 313)"><path d="M0 -27L23.4 -13.5L23.4 13.5L0 27L-23.4 13.5L-23.4 -13.5Z" stroke="#0b0b0b" fill="none" stroke-width="1"></path></g></g></svg>