<svg id="visual" viewBox="0 0 900 600" width="900" height="600" xmlns="http://www.w3.org/2000/svg" xmlns:xlink="http://www.w3.org/1999/xlink" version="1.1"><rect width="900" height="600" fill="#0a0a0b"></rect><g><g transform="translate(489 178)"><path d="M0 -13.1L11.4 -6.6L11.4 6.6L0 13.1L-11.4 6.6L-11.4 -6.6Z" fill="none" stroke="#082400" stroke-width="1"></path></g><g transform="translate(325 63)"><path d="M0 -10L8.7 -5L8.7 5L0 10L-8.7 5L-8.7 -5Z" fill="none" stroke="#082400" stroke-width="1"></path></g><g transform="translate(647 357)"><path d="M0 -9L7.8 -4.5L7.8 4.5L0 9L-7.8 4.5L-7.8 -4.5Z" stroke="#082400" fill="none" stroke-width="1"></path></g><g transform="translate(562 118)"><path d="M0 -9L7.8 -4.5L7.8 4.5L0 9L-7.8 4.5L-7.8 -4.5Z" stroke="#082400" fill="none" stroke-width="1"></path></g><g transform="translate(406 378)"><path d="M0 -11L9.5 -5.5L9.5 5.5L0 11L-9.5 5.5L-9.5 -5.5Z" stroke="#082400" fill="none" stroke-width="1"></path></g><g transform="translate(742 297)"><path d="M0 -8L6.9 -4L6.9 4L0 8L-6.9 4L-6.9 -4Z" stroke="#082400" fill="none" stroke-width="1"></path></g><g transform="translate(762 556)"><path d="M0 -12L10.4 -6L10.4 6L0 12L-10.4 6L-10.4 -6Z" stroke="#082400" fill="none" stroke-width="1"></path></g><g transform="translate(419 477)"><path d="M0 -7L6.1 -3.5L6.1 3.5L0 7L-6.1 3.5L-6.1 -3.5Z" stroke="#082400" fill="none" stroke-width="1"></path></g><g transform="translate(297 92)"><path d="M0 -10L8.7 -5L8.7 5L0 10L-8.7 5L-8.7 -5Z" stroke="#082400" fill="none" stroke-width="1"></path></g><g transform="translate(135 386)"><path d="M0 -10L8.7 -5L8.7 5L0 10L-8.7 5L-8.7 -5Z" stroke="#082400" fill="none" stroke-width="1"></path></g><g transform="translate(54 426)"><path d="M0 -11L9.5 -5.5L9.5 5.5L0 11L-9.5 5.5L-9.5 -5.5Z" stroke="#082400" fill="none" stroke-width="1"></path></g><g transform="translate(582 373)"><path d="M0 -7L6.1 -3.5L6.1 3.5L0 7L-6.1 3.5L-6.1 -3.5Z" stroke="#082400" fill="none" stroke-width="1"></path></g><g transform="translate(298 389)"><path d="M0 -12L10.4 -6L10.4 6L0 12L-10.4 6L-10.4 -6Z" stroke="#082400" fill="none" stroke-width="1"></path></g><g transform="translate(108 489)"><path d="M0 -11L9.5 -5.5L9.5 5.5L0 11L-9.5 5.5L-9.5 -5.5Z" stroke="#082400" fill="none" stroke-width="1"></path></g><g transform="translate(728 128)"><path d="M0 -12L10.4 -6L10.4 6L0 12L-10.4 6L-10.4 -6Z" stroke="#082400" fill="none" stroke-width="1"></path></g><g transform="translate(374 375)"><path d="M0 -9L7.8 -4.5L7.8 4.5L0 9L-7.8 4.5L-7.8 -4.5Z" stroke="#082400" fill="none" stroke-width="1"></path></g><g transform="translate(762 122)"><path d="M0 -9L7.8 -4.5L7.8 4.5L0 9L-7.8 4.5L-7.8 -4.5Z" stroke="#082400" fill="none" stroke-width="1"></path></g><g transform="translate(864 568)"><path d="M0 -7L6.1 -3.5L6.1 3.5L0 7L-6.1 3.5L-6.1 -3.5Z" stroke="#082400" fill="none" stroke-width="1"></path></g><g transform="translate(522 389)"><path d="M0 -8L6.9 -4L6.9 4L0 8L-6.9 4L-6.9 -4Z" stroke="#082400" fill="none" stroke-width="1"></path></g><g transform="translate(763 457)"><path d="M0 -7L6.1 -3.5L6.1 3.5L0 7L-6.1 3.5L-6.1 -3.5Z" stroke="#082400" fill="none" stroke-width="1"></path></g><g transform="translate(264 254)"><path d="M0 -11L9.5 -5.5L9.5 5.5L0 11L-9.5 5.5L-9.5 -5.5Z" stroke="#082400" fill="none" stroke-width="1"></path></g><g transform="translate(471 260)"><path d="M0 -9L7.8 -4.5L7.8 4.5L0 9L-7.8 4.5L-7.8 -4.5Z" stroke="#082400" fill="none" stroke-width="1"></path></g><g transform="translate(512 70)"><path d="M0 -12L10.4 -6L10.4 6L0 12L-10.4 6L-10.4 -6Z" stroke="#082400" fill="none" stroke-width="1"></path></g><g transform="translate(340 530)"><path d="M0 -11L9.5 -5.5L9.5 5.5L0 11L-9.5 5.5L-9.5 -5.5Z" stroke="#082400" fill="none" stroke-width="1"></path></g><g transform="translate(710 69)"><path d="M0 -10L8.7 -5L8.7 5L0 10L-8.7 5L-8.7 -5Z" stroke="#082400" fill="none" stroke-width="1"></path></g><g transform="translate(677 402)"><path d="M0 -6L5.2 -3L5.2 3L0 6L-5.2 3L-5.2 -3Z" stroke="#082400" fill="none" stroke-width="1"></path></g><g transform="translate(395 164)"><path d="M0 -6L5.2 -3L5.2 3L0 6L-5.2 3L-5.2 -3Z" stroke="#082400" fill="none" stroke-width="1"></path></g><g transform="translate(39 45)"><path d="M0 -12L10.4 -6L10.4 6L0 12L-10.4 6L-10.4 -6Z" stroke="#082400" fill="none" stroke-width="1"></path></g><g transform="translate(481 418)"><path d="M0 -12L10.4 -6L10.4 6L0 12L-10.4 6L-10.4 -6Z" stroke="#082400" fill="none" stroke-width="1"></path></g><g transform="translate(730 351)"><path d="M0 -6L5.2 -3L5.2 3L0 6L-5.2 3L-5.2 -3Z" stroke="#082400" fill="none" stroke-width="1"></path></g><g transform="translate(226 409)"><path d="M0 -10L8.7 -5L8.7 5L0 10L-8.7 5L-8.7 -5Z" stroke="#082400" fill="none" stroke-width="1"></path></g><g transform="translate(881 87)"><path d="M0 -7L6.1 -3.5L6.1 3.5L0 7L-6.1 3.5L-6.1 -3.5Z" stroke="#082400" fill="none" stroke-width="1"></path></g><g transform="translate(293 505)"><path d="M0 -10L8.7 -5L8.7 5L0 10L-8.7 5L-8.7 -5Z" stroke="#082400" fill="none" stroke-width="1"></path></g><g transform="translate(400 544)"><path d="M0 -11L9.5 -5.5L9.5 5.5L0 11L-9.5 5.5L-9.5 -5.5Z" stroke="#082400" fill="none" stroke-width="1"></path></g><g transform="translate(442 294)"><path d="M0 -6L5.2 -3L5.2 3L0 6L-5.2 3L-5.2 -3Z" stroke="#082400" fill="none" stroke-width="1"></path></g><g transform="translate(557 429)"><path d="M0 -9L7.8 -4.5L7.8 4.5L0 9L-7.8 4.5L-7.8 -4.5Z" stroke="#082400" fill="none" stroke-width="1"></path></g><g transform="translate(409 436)"><path d="M0 -10L8.7 -5L8.7 5L0 10L-8.7 5L-8.7 -5Z" stroke="#082400" fill="none" stroke-width="1"></path></g><g transform="translate(77 145)"><path d="M0 -7L6.1 -3.5L6.1 3.5L0 7L-6.1 3.5L-6.1 -3.5Z" stroke="#082400" fill="none" stroke-width="1"></path></g><g transform="translate(480 205)"><path d="M0 -10L8.7 -5L8.7 5L0 10L-8.7 5L-8.7 -5Z" stroke="#082400" fill="none" stroke-width="1"></path></g><g transform="translate(275 485)"><path d="M0 -10L8.7 -5L8.7 5L0 10L-8.7 5L-8.7 -5Z" stroke="#082400" fill="none" stroke-width="1"></path></g><g transform="translate(390 115)"><path d="M0 -12L10.4 -6L10.4 6L0 12L-10.4 6L-10.4 -6Z" stroke="#082400" fill="none" stroke-width="1"></path></g><g transform="translate(120 571)"><path d="M0 -12L10.4 -6L10.4 6L0 12L-10.4 6L-10.4 -6Z" stroke="#082400" fill="none" stroke-width="1"></path></g><g transform="translate(532 458)"><path d="M0 -11L9.5 -5.5L9.5 5.5L0 11L-9.5 5.5L-9.5 -5.5Z" stroke="#082400" fill="none" stroke-width="1"></path></g><g transform="translate(747 180)"><path d="M0 -12L10.4 -6L10.4 6L0 12L-10.4 6L-10.4 -6Z" stroke="#082400" fill="none" stroke-width="1"></path></g><g transform="translate(103 213)"><path d="M0 -6L5.2 -3L5.2 3L0 6L-5.2 3L-5.2 -3Z" stroke="#082400" fill="none" stroke-width="1"></path></g><g transform="translate(686 294)"><path d="M0 -8L6.9 -4L6.9 4L0 8L-6.9 4L-6.9 -4Z" stroke="#082400" fill="none" stroke-width="1"></path></g><g transform="translate(241 291)"><path d="M0 -10L8.7 -5L8.7 5L0 10L-8.7 5L-8.7 -5Z" stroke="#082400" fill="none" stroke-width="1"></path></g><g transform="translate(165 247)"><path d="M0 -9L7.8 -4.5L7.8 4.5L0 9L-7.8 4.5L-7.8 -4.5Z" stroke="#082400" fill="none" stroke-width="1"></path></g><g transform="translate(434 126)"><path d="M0 -7L6.1 -3.5L6.1 3.5L0 7L-6.1 3.5L-6.1 -3.5Z" stroke="#082400" fill="none" stroke-width="1"></path></g><g transform="translate(409 302)"><path d="M0 -7L6.1 -3.5L6.1 3.5L0 7L-6.1 3.5L-6.1 -3.5Z" stroke="#082400" fill="none" stroke-width="1"></path></g><g transform="translate(667 217)"><path d="M0 -6L5.2 -3L5.2 3L0 6L-5.2 3L-5.2 -3Z" stroke="#082400" fill="none" stroke-width="1"></path></g><g transform="translate(886 182)"><path d="M0 -11L9.5 -5.5L9.5 5.5L0 11L-9.5 5.5L-9.5 -5.5Z" stroke="#082400" fill="none" stroke-width="1"></path></g><g transform="translate(376 68)"><path d="M0 -6L5.2 -3L5.2 3L0 6L-5.2 3L-5.2 -3Z" stroke="#082400" fill="none" stroke-width="1"></path></g><g transform="translate(877 401)"><path d="M0 -7L6.1 -3.5L6.1 3.5L0 7L-6.1 3.5L-6.1 -3.5Z" stroke="#082400" fill="none" stroke-width="1"></path></g><g transform="translate(368 42)"><path d="M0 -12L10.4 -6L10.4 6L0 12L-10.4 6L-10.4 -6Z" stroke="#082400" fill="none" stroke-width="1"></path></g><g transform="translate(340 228)"><path d="M0 -11L9.5 -5.5L9.5 5.5L0 11L-9.5 5.5L-9.5 -5.5Z" stroke="#082400" fill="none" stroke-width="1"></path></g><g transform="translate(541 544)"><path d="M0 -9L7.8 -4.5L7.8 4.5L0 9L-7.8 4.5L-7.8 -4.5Z" stroke="#082400" fill="none" stroke-width="1"></path></g><g transform="translate(94 276)"><path d="M0 -10L8.7 -5L8.7 5L0 10L-8.7 5L-8.7 -5Z" stroke="#082400" fill="none" stroke-width="1"></path></g><g transform="translate(38 187)"><path d="M0 -9L7.8 -4.5L7.8 4.5L0 9L-7.8 4.5L-7.8 -4.5Z" stroke="#082400" fill="none" stroke-width="1"></path></g><g transform="translate(501 294)"><path d="M0 -8L6.9 -4L6.9 4L0 8L-6.9 4L-6.9 -4Z" stroke="#082400" fill="none" stroke-width="1"></path></g><g transform="translate(74 556)"><path d="M0 -10L8.7 -5L8.7 5L0 10L-8.7 5L-8.7 -5Z" stroke="#082400" fill="none" stroke-width="1"></path></g><g transform="translate(440 191)"><path d="M0 -7L6.1 -3.5L6.1 3.5L0 7L-6.1 3.5L-6.1 -3.5Z" stroke="#082400" fill="none" stroke-width="1"></path></g><g transform="translate(79 248)"><path d="M0 -8L6.9 -4L6.9 4L0 8L-6.9 4L-6.9 -4Z" stroke="#082400" fill="none" stroke-width="1"></path></g><g transform="translate(793 46)"><path d="M0 -9L7.8 -4.5L7.8 4.5L0 9L-7.8 4.5L-7.8 -4.5Z" stroke="#082400" fill="none" stroke-width="1"></path></g><g transform="translate(209 209)"><path d="M0 -8L6.9 -4L6.9 4L0 8L-6.9 4L-6.9 -4Z" stroke="#082400" fill="none" stroke-width="1"></path></g><g transform="translate(354 205)"><path d="M0 -9L7.8 -4.5L7.8 4.5L0 9L-7.8 4.5L-7.8 -4.5Z" stroke="#082400" fill="none" stroke-width="1"></path></g><g transform="translate(73 379)"><path d="M0 -12L10.4 -6L10.4 6L0 12L-10.4 6L-10.4 -6Z" stroke="#082400" fill="none" stroke-width="1"></path></g><g transform="translate(286 196)"><path d="M0 -11L9.5 -5.5L9.5 5.5L0 11L-9.5 5.5L-9.5 -5.5Z" stroke="#082400" fill="none" stroke-width="1"></path></g><g transform="translate(33 560)"><path d="M0 -12L10.4 -6L10.4 6L0 12L-10.4 6L-10.4 -6Z" stroke="#082400" fill="none" stroke-width="1"></path></g><g transform="translate(836 218)"><path d="M0 -6L5.2 -3L5.2 3L0 6L-5.2 3L-5.2 -3Z" stroke="#082400" fill="none" stroke-width="1"></path></g><g transform="translate(691 40)"><path d="M0 -7L6.1 -3.5L6.1 3.5L0 7L-6.1 3.5L-6.1 -3.5Z" stroke="#082400" fill="none" stroke-width="1"></path></g><g transform="translate(171 16)"><path d="M0 -10L8.7 -5L8.7 5L0 10L-8.7 5L-8.7 -5Z" stroke="#082400" fill="none" stroke-width="1"></path></g><g transform="translate(806 119)"><path d="M0 -12L10.4 -6L10.4 6L0 12L-10.4 6L-10.4 -6Z" stroke="#082400" fill="none" stroke-width="1"></path></g><g transform="translate(623 21)"><path d="M0 -10L8.7 -5L8.7 5L0 10L-8.7 5L-8.7 -5Z" stroke="#082400" fill="none" stroke-width="1"></path></g><g transform="translate(259 326)"><path d="M0 -6L5.2 -3L5.2 3L0 6L-5.2 3L-5.2 -3Z" stroke="#082400" fill="none" stroke-width="1"></path></g><g transform="translate(685 100)"><path d="M0 -11L9.5 -5.5L9.5 5.5L0 11L-9.5 5.5L-9.5 -5.5Z" stroke="#082400" fill="none" stroke-width="1"></path></g><g transform="translate(209 64)"><path d="M0 -9L7.8 -4.5L7.8 4.5L0 9L-7.8 4.5L-7.8 -4.5Z" stroke="#082400" fill="none" stroke-width="1"></path></g><g transform="translate(26 440)"><path d="M0 -12L10.4 -6L10.4 6L0 12L-10.4 6L-10.4 -6Z" stroke="#082400" fill="none" stroke-width="1"></path></g><g transform="translate(642 171)"><path d="M0 -11L9.5 -5.5L9.5 5.5L0 11L-9.5 5.5L-9.5 -5.5Z" stroke="#082400" fill="none" stroke-width="1"></path></g><g transform="translate(518 209)"><path d="M0 -11L9.5 -5.5L9.5 5.5L0 11L-9.5 5.5L-9.5 -5.5Z" stroke="#082400" fill="none" stroke-width="1"></path></g><g transform="translate(619 240)"><path d="M0 -7L6.1 -3.5L6.1 3.5L0 7L-6.1 3.5L-6.1 -3.5Z" stroke="#082400" fill="none" stroke-width="1"></path></g><g transform="translate(268 30)"><path d="M0 -11L9.5 -5.5L9.5 5.5L0 11L-9.5 5.5L-9.5 -5.5Z" stroke="#082400" fill="none" stroke-width="1"></path></g><g transform="translate(633 434)"><path d="M0 -6L5.2 -3L5.2 3L0 6L-5.2 3L-5.2 -3Z" stroke="#082400" fill="none" stroke-width="1"></path></g><g transform="translate(158 482)"><path d="M0 -6L5.2 -3L5.2 3L0 6L-5.2 3L-5.2 -3Z" stroke="#082400" fill="none" stroke-width="1"></path></g><g transform="translate(755 511)"><path d="M0 -11L9.5 -5.5L9.5 5.5L0 11L-9.5 5.5L-9.5 -5.5Z" stroke="#082400" fill="none" stroke-width="1"></path></g><g transform="translate(405 35)"><path d="M0 -9L7.8 -4.5L7.8 4.5L0 9L-7.8 4.5L-7.8 -4.5Z" stroke="#082400" fill="none" stroke-width="1"></path></g><g transform="translate(852 172)"><path d="M0 -11L9.5 -5.5L9.5 5.5L0 11L-9.5 5.5L-9.5 -5.5Z" stroke="#082400" fill="none" stroke-width="1"></path></g><g transform="translate(517 511)"><path d="M0 -7L6.1 -3.5L6.1 3.5L0 7L-6.1 3.5L-6.1 -3.5Z" stroke="#082400" fill="none" stroke-width="1"></path></g><g transform="translate(804 351)"><path d="M0 -11L9.5 -5.5L9.5 5.5L0 11L-9.5 5.5L-9.5 -5.5Z" stroke="#082400" fill="none" stroke-width="1"></path></g><g transform="translate(358 434)"><path d="M0 -8L6.9 -4L6.9 4L0 8L-6.9 4L-6.9 -4Z" stroke="#082400" fill="none" stroke-width="1"></path></g><g transform="translate(252 363)"><path d="M0 -8L6.9 -4L6.9 4L0 8L-6.9 4L-6.9 -4Z" stroke="#082400" fill="none" stroke-width="1"></path></g><g transform="translate(840 296)"><path d="M0 -8L6.9 -4L6.9 4L0 8L-6.9 4L-6.9 -4Z" stroke="#082400" fill="none" stroke-width="1"></path></g><g transform="translate(351 284)"><path d="M0 -9L7.8 -4.5L7.8 4.5L0 9L-7.8 4.5L-7.8 -4.5Z" stroke="#082400" fill="none" stroke-width="1"></path></g><g transform="translate(854 458)"><path d="M0 -9L7.8 -4.5L7.8 4.5L0 9L-7.8 4.5L-7.8 -4.5Z" stroke="#082400" fill="none" stroke-width="1"></path></g><g transform="translate(268 126)"><path d="M0 -8L6.9 -4L6.9 4L0 8L-6.9 4L-6.9 -4Z" stroke="#082400" fill="none" stroke-width="1"></path></g><g transform="translate(671 529)"><path d="M0 -10L8.7 -5L8.7 5L0 10L-8.7 5L-8.7 -5Z" stroke="#082400" fill="none" stroke-width="1"></path></g><g transform="translate(241 471)"><path d="M0 -12L10.4 -6L10.4 6L0 12L-10.4 6L-10.4 -6Z" stroke="#082400" fill="none" stroke-width="1"></path></g><g transform="translate(621 313)"><path d="M0 -11L9.5 -5.5L9.5 5.5L0 11L-9.5 5.5L-9.5 -5.5Z" stroke="#082400" fill="none" stroke-width="1"></path></g><g transform="translate(29 234)"><path d="M0 -9L7.8 -4.5L7.8 4.5L0 9L-7.8 4.5L-7.8 -4.5Z" stroke="#082400" fill="none" stroke-width="1"></path></g><g transform="translate(158 73)"><path d="M0 -7L6.1 -3.5L6.1 3.5L0 7L-6.1 3.5L-6.1 -3.5Z" stroke="#082400" fill="none" stroke-width="1"></path></g><g transform="translate(790 512)"><path d="M0 -12L10.4 -6L10.4 6L0 12L-10.4 6L-10.4 -6Z" stroke="#082400" fill="none" stroke-width="1"></path></g><g transform="translate(70 77)"><path d="M0 -12L10.4 -6L10.4 6L0 12L-10.4 6L-10.4 -6Z" stroke="#082400" fill="none" stroke-width="1"></path></g><g transform="translate(587 256)"><path d="M0 -10L8.7 -5L8.7 5L0 10L-8.7 5L-8.7 -5Z" stroke="#082400" fill="none" stroke-width="1"></path></g><g transform="translate(219 244)"><path d="M0 -10L8.7 -5L8.7 5L0 10L-8.7 5L-8.7 -5Z" stroke="#082400" fill="none" stroke-width="1"></path></g><g transform="translate(672 318)"><path d="M0 -10L8.7 -5L8.7 5L0 10L-8.7 5L-8.7 -5Z" stroke="#082400" fill="none" stroke-width="1"></path></g><g transform="translate(522 125)"><path d="M0 -10L8.7 -5L8.7 5L0 10L-8.7 5L-8.7 -5Z" stroke="#082400" fill="none" stroke-width="1"></path></g><g transform="translate(42 585)"><path d="M0 -12L10.4 -6L10.4 6L0 12L-10.4 6L-10.4 -6Z" stroke="#082400" fill="none" stroke-width="1"></path></g><g transform="translate(93 524)"><path d="M0 -8L6.9 -4L6.9 4L0 8L-6.9 4L-6.9 -4Z" stroke="#082400" fill="none" stroke-width="1"></path></g><g transform="translate(604 567)"><path d="M0 -11L9.5 -5.5L9.5 5.5L0 11L-9.5 5.5L-9.5 -5.5Z" stroke="#082400" fill="none" stroke-width="1"></path></g><g transform="translate(817 443)"><path d="M0 -12L10.4 -6L10.4 6L0 12L-10.4 6L-10.4 -6Z" stroke="#082400" fill="none" stroke-width="1"></path></g><g transform="translate(398 244)"><path d="M0 -12L10.4 -6L10.4 6L0 12L-10.4 6L-10.4 -6Z" stroke="#082400" fill="none" stroke-width="1"></path></g><g transform="translate(107 244)"><path d="M0 -9L7.8 -4.5L7.8 4.5L0 9L-7.8 4.5L-7.8 -4.5Z" stroke="#082400" fill="none" stroke-width="1"></path></g><g transform="translate(667 119)"><path d="M0 -8L6.9 -4L6.9 4L0 8L-6.9 4L-6.9 -4Z" stroke="#082400" fill="none" stroke-width="1"></path></g><g transform="translate(58 482)"><path d="M0 -8L6.9 -4L6.9 4L0 8L-6.9 4L-6.9 -4Z" stroke="#082400" fill="none" stroke-width="1"></path></g><g transform="translate(421 266)"><path d="M0 -6L5.2 -3L5.2 3L0 6L-5.2 3L-5.2 -3Z" stroke="#082400" fill="none" stroke-width="1"></path></g><g transform="translate(30 475)"><path d="M0 -6L5.2 -3L5.2 3L0 6L-5.2 3L-5.2 -3Z" stroke="#082400" fill="none" stroke-width="1"></path></g><g transform="translate(590 224)"><path d="M0 -10L8.7 -5L8.7 5L0 10L-8.7 5L-8.7 -5Z" stroke="#082400" fill="none" stroke-width="1"></path></g><g transform="translate(134 517)"><path d="M0 -10L8.7 -5L8.7 5L0 10L-8.7 5L-8.7 -5Z" stroke="#082400" fill="none" stroke-width="1"></path></g><g transform="translate(871 24)"><path d="M0 -9L7.8 -4.5L7.8 4.5L0 9L-7.8 4.5L-7.8 -4.5Z" stroke="#082400" fill="none" stroke-width="1"></path></g><g transform="translate(105 407)"><path d="M0 -10L8.7 -5L8.7 5L0 10L-8.7 5L-8.7 -5Z" stroke="#082400" fill="none" stroke-width="1"></path></g><g transform="translate(784 287)"><path d="M0 -9L7.8 -4.5L7.8 4.5L0 9L-7.8 4.5L-7.8 -4.5Z" stroke="#082400" fill="none" stroke-width="1"></path></g><g transform="translate(57 336)"><path d="M0 -8L6.9 -4L6.9 4L0 8L-6.9 4L-6.9 -4Z" stroke="#082400" fill="none" stroke-width="1"></path></g><g transform="translate(383 522)"><path d="M0 -7L6.1 -3.5L6.1 3.5L0 7L-6.1 3.5L-6.1 -3.5Z" stroke="#082400" fill="none" stroke-width="1"></path></g><g transform="translate(839 98)"><path d="M0 -6L5.2 -3L5.2 3L0 6L-5.2 3L-5.2 -3Z" stroke="#082400" fill="none" stroke-width="1"></path></g><g transform="translate(336 29)"><path d="M0 -8L6.9 -4L6.9 4L0 8L-6.9 4L-6.9 -4Z" stroke="#082400" fill="none" stroke-width="1"></path></g><g transform="translate(576 582)"><path d="M0 -9L7.8 -4.5L7.8 4.5L0 9L-7.8 4.5L-7.8 -4.5Z" stroke="#082400" fill="none" stroke-width="1"></path></g><g transform="translate(437 562)"><path d="M0 -7L6.1 -3.5L6.1 3.5L0 7L-6.1 3.5L-6.1 -3.5Z" stroke="#082400" fill="none" stroke-width="1"></path></g><g transform="translate(756 22)"><path d="M0 -12L10.4 -6L10.4 6L0 12L-10.4 6L-10.4 -6Z" stroke="#082400" fill="none" stroke-width="1"></path></g><g transform="translate(619 192)"><path d="M0 -8L6.9 -4L6.9 4L0 8L-6.9 4L-6.9 -4Z" stroke="#082400" fill="none" stroke-width="1"></path></g><g transform="translate(824 192)"><path d="M0 -8L6.9 -4L6.9 4L0 8L-6.9 4L-6.9 -4Z" stroke="#082400" fill="none" stroke-width="1"></path></g><g transform="translate(513 357)"><path d="M0 -11L9.5 -5.5L9.5 5.5L0 11L-9.5 5.5L-9.5 -5.5Z" stroke="#082400" fill="none" stroke-width="1"></path></g><g transform="translate(455 504)"><path d="M0 -9L7.8 -4.5L7.8 4.5L0 9L-7.8 4.5L-7.8 -4.5Z" stroke="#082400" fill="none" stroke-width="1"></path></g><g transform="translate(473 579)"><path d="M0 -8L6.9 -4L6.9 4L0 8L-6.9 4L-6.9 -4Z" stroke="#082400" fill="none" stroke-width="1"></path></g><g transform="translate(598 150)"><path d="M0 -10L8.7 -5L8.7 5L0 10L-8.7 5L-8.7 -5Z" stroke="#082400" fill="none" stroke-width="1"></path></g><g transform="translate(352 146)"><path d="M0 -12L10.4 -6L10.4 6L0 12L-10.4 6L-10.4 -6Z" stroke="#082400" fill="none" stroke-width="1"></path></g><g transform="translate(387 481)"><path d="M0 -7L6.1 -3.5L6.1 3.5L0 7L-6.1 3.5L-6.1 -3.5Z" stroke="#082400" fill="none" stroke-width="1"></path></g><g transform="translate(200 461)"><path d="M0 -10L8.7 -5L8.7 5L0 10L-8.7 5L-8.7 -5Z" stroke="#082400" fill="none" stroke-width="1"></path></g><g transform="translate(836 149)"><path d="M0 -12L10.4 -6L10.4 6L0 12L-10.4 6L-10.4 -6Z" stroke="#082400" fill="none" stroke-width="1"></path></g><g transform="translate(175 199)"><path d="M0 -6L5.2 -3L5.2 3L0 6L-5.2 3L-5.2 -3Z" stroke="#082400" fill="none" stroke-width="1"></path></g><g transform="translate(203 354)"><path d="M0 -12L10.4 -6L10.4 6L0 12L-10.4 6L-10.4 -6Z" stroke="#082400" fill="none" stroke-width="1"></path></g><g transform="translate(465 554)"><path d="M0 -11L9.5 -5.5L9.5 5.5L0 11L-9.5 5.5L-9.5 -5.5Z" stroke="#082400" fill="none" stroke-width="1"></path></g><g transform="translate(545 94)"><path d="M0 -9L7.8 -4.5L7.8 4.5L0 9L-7.8 4.5L-7.8 -4.5Z" stroke="#082400" fill="none" stroke-width="1"></path></g><g transform="translate(131 543)"><path d="M0 -11L9.5 -5.5L9.5 5.5L0 11L-9.5 5.5L-9.5 -5.5Z" stroke="#082400" fill="none" stroke-width="1"></path></g><g transform="translate(335 499)"><path d="M0 -12L10.4 -6L10.4 6L0 12L-10.4 6L-10.4 -6Z" stroke="#082400" fill="none" stroke-width="1"></path></g><g transform="translate(201 571)"><path d="M0 -6L5.2 -3L5.2 3L0 6L-5.2 3L-5.2 -3Z" stroke="#082400" fill="none" stroke-width="1"></path></g><g transform="translate(858 527)"><path d="M0 -8L6.9 -4L6.9 4L0 8L-6.9 4L-6.9 -4Z" stroke="#082400" fill="none" stroke-width="1"></path></g><g transform="translate(859 63)"><path d="M0 -11L9.5 -5.5L9.5 5.5L0 11L-9.5 5.5L-9.5 -5.5Z" stroke="#082400" fill="none" stroke-width="1"></path></g><g transform="translate(466 456)"><path d="M0 -11L9.5 -5.5L9.5 5.5L0 11L-9.5 5.5L-9.5 -5.5Z" stroke="#082400" fill="none" stroke-width="1"></path></g><g transform="translate(815 316)"><path d="M0 -8L6.9 -4L6.9 4L0 8L-6.9 4L-6.9 -4Z" stroke="#082400" fill="none" stroke-width="1"></path></g><g transform="translate(210 139)"><path d="M0 -12L10.4 -6L10.4 6L0 12L-10.4 6L-10.4 -6Z" stroke="#082400" fill="none" stroke-width="1"></path></g><g transform="translate(526 259)"><path d="M0 -12L10.4 -6L10.4 6L0 12L-10.4 6L-10.4 -6Z" stroke="#082400" fill="none" stroke-width="1"></path></g><g transform="translate(494 381)"><path d="M0 -12L10.4 -6L10.4 6L0 12L-10.4 6L-10.4 -6Z" stroke="#082400" fill="none" stroke-width="1"></path></g><g transform="translate(133 429)"><path d="M0 -6L5.2 -3L5.2 3L0 6L-5.2 3L-5.2 -3Z" stroke="#082400" fill="none" stroke-width="1"></path></g><g transform="translate(661 580)"><path d="M0 -10L8.7 -5L8.7 5L0 10L-8.7 5L-8.7 -5Z" stroke="#082400" fill="none" stroke-width="1"></path></g><g transform="translate(163 367)"><path d="M0 -9L7.8 -4.5L7.8 4.5L0 9L-7.8 4.5L-7.8 -4.5Z" stroke="#082400" fill="none" stroke-width="1"></path></g><g transform="translate(313 153)"><path d="M0 -8L6.9 -4L6.9 4L0 8L-6.9 4L-6.9 -4Z" stroke="#082400" fill="none" stroke-width="1"></path></g><g transform="translate(331 580)"><path d="M0 -11L9.5 -5.5L9.5 5.5L0 11L-9.5 5.5L-9.5 -5.5Z" stroke="#082400" fill="none" stroke-width="1"></path></g><g transform="translate(857 422)"><path d="M0 -11L9.5 -5.5L9.5 5.5L0 11L-9.5 5.5L-9.5 -5.5Z" stroke="#082400" fill="none" stroke-width="1"></path></g><g transform="translate(444 60)"><path d="M0 -7L6.1 -3.5L6.1 3.5L0 7L-6.1 3.5L-6.1 -3.5Z" stroke="#082400" fill="none" stroke-width="1"></path></g><g transform="translate(547 503)"><path d="M0 -10L8.7 -5L8.7 5L0 10L-8.7 5L-8.7 -5Z" stroke="#082400" fill="none" stroke-width="1"></path></g><g transform="translate(662 246)"><path d="M0 -7L6.1 -3.5L6.1 3.5L0 7L-6.1 3.5L-6.1 -3.5Z" stroke="#082400" fill="none" stroke-width="1"></path></g><g transform="translate(664 53)"><path d="M0 -11L9.5 -5.5L9.5 5.5L0 11L-9.5 5.5L-9.5 -5.5Z" stroke="#082400" fill="none" stroke-width="1"></path></g><g transform="translate(609 119)"><path d="M0 -12L10.4 -6L10.4 6L0 12L-10.4 6L-10.4 -6Z" stroke="#082400" fill="none" stroke-width="1"></path></g><g transform="translate(182 509)"><path d="M0 -6L5.2 -3L5.2 3L0 6L-5.2 3L-5.2 -3Z" stroke="#082400" fill="none" stroke-width="1"></path></g><g transform="translate(736 398)"><path d="M0 -8L6.9 -4L6.9 4L0 8L-6.9 4L-6.9 -4Z" stroke="#082400" fill="none" stroke-width="1"></path></g><g transform="translate(465 394)"><path d="M0 -7L6.1 -3.5L6.1 3.5L0 7L-6.1 3.5L-6.1 -3.5Z" stroke="#082400" fill="none" stroke-width="1"></path></g><g transform="translate(711 471)"><path d="M0 -10L8.7 -5L8.7 5L0 10L-8.7 5L-8.7 -5Z" stroke="#082400" fill="none" stroke-width="1"></path></g><g transform="translate(627 49)"><path d="M0 -7L6.1 -3.5L6.1 3.5L0 7L-6.1 3.5L-6.1 -3.5Z" stroke="#082400" fill="none" stroke-width="1"></path></g><g transform="translate(425 410)"><path d="M0 -12L10.4 -6L10.4 6L0 12L-10.4 6L-10.4 -6Z" stroke="#082400" fill="none" stroke-width="1"></path></g><g transform="translate(412 339)"><path d="M0 -11L9.5 -5.5L9.5 5.5L0 11L-9.5 5.5L-9.5 -5.5Z" stroke="#082400" fill="none" stroke-width="1"></path></g><g transform="translate(112 361)"><path d="M0 -8L6.9 -4L6.9 4L0 8L-6.9 4L-6.9 -4Z" stroke="#082400" fill="none" stroke-width="1"></path></g><g transform="translate(256 70)"><path d="M0 -10L8.7 -5L8.7 5L0 10L-8.7 5L-8.7 -5Z" stroke="#082400" fill="none" stroke-width="1"></path></g><g transform="translate(781 400)"><path d="M0 -7L6.1 -3.5L6.1 3.5L0 7L-6.1 3.5L-6.1 -3.5Z" stroke="#082400" fill="none" stroke-width="1"></path></g><g transform="translate(637 216)"><path d="M0 -8L6.9 -4L6.9 4L0 8L-6.9 4L-6.9 -4Z" stroke="#082400" fill="none" stroke-width="1"></path></g><g transform="translate(164 110)"><path d="M0 -7L6.1 -3.5L6.1 3.5L0 7L-6.1 3.5L-6.1 -3.5Z" stroke="#082400" fill="none" stroke-width="1"></path></g><g transform="translate(595 83)"><path d="M0 -12L10.4 -6L10.4 6L0 12L-10.4 6L-10.4 -6Z" stroke="#082400" fill="none" stroke-width="1"></path></g><g transform="translate(193 431)"><path d="M0 -7L6.1 -3.5L6.1 3.5L0 7L-6.1 3.5L-6.1 -3.5Z" stroke="#082400" fill="none" stroke-width="1"></path></g><g transform="translate(883 301)"><path d="M0 -6L5.2 -3L5.2 3L0 6L-5.2 3L-5.2 -3Z" stroke="#082400" fill="none" stroke-width="1"></path></g><g transform="translate(800 163)"><path d="M0 -11L9.5 -5.5L9.5 5.5L0 11L-9.5 5.5L-9.5 -5.5Z" stroke="#082400" fill="none" stroke-width="1"></path></g><g transform="translate(789 193)"><path d="M0 -10L8.7 -5L8.7 5L0 10L-8.7 5L-8.7 -5Z" stroke="#082400" fill="none" stroke-width="1"></path></g><g transform="translate(191 537)"><path d="M0 -10L8.7 -5L8.7 5L0 10L-8.7 5L-8.7 -5Z" stroke="#082400" fill="none" stroke-width="1"></path></g><g transform="translate(498 134)"><path d="M0 -7L6.1 -3.5L6.1 3.5L0 7L-6.1 3.5L-6.1 -3.5Z" stroke="#082400" fill="none" stroke-width="1"></path></g><g transform="translate(31 317)"><path d="M0 -6L5.2 -3L5.2 3L0 6L-5.2 3L-5.2 -3Z" stroke="#082400" fill="none" stroke-width="1"></path></g><g transform="translate(302 447)"><path d="M0 -10L8.7 -5L8.7 5L0 10L-8.7 5L-8.7 -5Z" stroke="#082400" fill="none" stroke-width="1"></path></g><g transform="translate(824 475)"><path d="M0 -8L6.9 -4L6.9 4L0 8L-6.9 4L-6.9 -4Z" stroke="#082400" fill="none" stroke-width="1"></path></g><g transform="translate(373 304)"><path d="M0 -9L7.8 -4.5L7.8 4.5L0 9L-7.8 4.5L-7.8 -4.5Z" stroke="#082400" fill="none" stroke-width="1"></path></g><g transform="translate(429 364)"><path d="M0 -8L6.9 -4L6.9 4L0 8L-6.9 4L-6.9 -4Z" stroke="#082400" fill="none" stroke-width="1"></path></g><g transform="translate(485 234)"><path d="M0 -8L6.9 -4L6.9 4L0 8L-6.9 4L-6.9 -4Z" stroke="#082400" fill="none" stroke-width="1"></path></g><g transform="translate(553 205)"><path d="M0 -7L6.1 -3.5L6.1 3.5L0 7L-6.1 3.5L-6.1 -3.5Z" stroke="#082400" fill="none" stroke-width="1"></path></g><g transform="translate(706 214)"><path d="M0 -7L6.1 -3.5L6.1 3.5L0 7L-6.1 3.5L-6.1 -3.5Z" stroke="#082400" fill="none" stroke-width="1"></path></g><g transform="translate(765 81)"><path d="M0 -6L5.2 -3L5.2 3L0 6L-5.2 3L-5.2 -3Z" stroke="#082400" fill="none" stroke-width="1"></path></g><g transform="translate(564 282)"><path d="M0 -12L10.4 -6L10.4 6L0 12L-10.4 6L-10.4 -6Z" stroke="#082400" fill="none" stroke-width="1"></path></g><g transform="translate(550 68)"><path d="M0 -8L6.9 -4L6.9 4L0 8L-6.9 4L-6.9 -4Z" stroke="#082400" fill="none" stroke-width="1"></path></g><g transform="translate(143 270)"><path d="M0 -7L6.1 -3.5L6.1 3.5L0 7L-6.1 3.5L-6.1 -3.5Z" stroke="#082400" fill="none" stroke-width="1"></path></g><g transform="translate(821 258)"><path d="M0 -6L5.2 -3L5.2 3L0 6L-5.2 3L-5.2 -3Z" stroke="#082400" fill="none" stroke-width="1"></path></g><g transform="translate(500 456)"><path d="M0 -6L5.2 -3L5.2 3L0 6L-5.2 3L-5.2 -3Z" stroke="#082400" fill="none" stroke-width="1"></path></g><g transform="translate(614 274)"><path d="M0 -6L5.2 -3L5.2 3L0 6L-5.2 3L-5.2 -3Z" stroke="#082400" fill="none" stroke-width="1"></path></g><g transform="translate(229 346)"><path d="M0 -9L7.8 -4.5L7.8 4.5L0 9L-7.8 4.5L-7.8 -4.5Z" stroke="#082400" fill="none" stroke-width="1"></path></g><g transform="translate(507 320)"><path d="M0 -8L6.9 -4L6.9 4L0 8L-6.9 4L-6.9 -4Z" stroke="#082400" fill="none" stroke-width="1"></path></g><g transform="translate(578 170)"><path d="M0 -10L8.7 -5L8.7 5L0 10L-8.7 5L-8.7 -5Z" stroke="#082400" fill="none" stroke-width="1"></path></g><g transform="translate(118 115)"><path d="M0 -9L7.8 -4.5L7.8 4.5L0 9L-7.8 4.5L-7.8 -4.5Z" stroke="#082400" fill="none" stroke-width="1"></path></g><g transform="translate(500 25)"><path d="M0 -11L9.5 -5.5L9.5 5.5L0 11L-9.5 5.5L-9.5 -5.5Z" stroke="#082400" fill="none" stroke-width="1"></path></g><g transform="translate(24 151)"><path d="M0 -7L6.1 -3.5L6.1 3.5L0 7L-6.1 3.5L-6.1 -3.5Z" stroke="#082400" fill="none" stroke-width="1"></path></g><g transform="translate(250 425)"><path d="M0 -6L5.2 -3L5.2 3L0 6L-5.2 3L-5.2 -3Z" stroke="#082400" fill="none" stroke-width="1"></path></g><g transform="translate(15 379)"><path d="M0 -6L5.2 -3L5.2 3L0 6L-5.2 3L-5.2 -3Z" stroke="#082400" fill="none" stroke-width="1"></path></g><g transform="translate(470 364)"><path d="M0 -10L8.7 -5L8.7 5L0 10L-8.7 5L-8.7 -5Z" stroke="#082400" fill="none" stroke-width="1"></path></g><g transform="translate(456 332)"><path d="M0 -9L7.8 -4.5L7.8 4.5L0 9L-7.8 4.5L-7.8 -4.5Z" stroke="#082400" fill="none" stroke-width="1"></path></g><g transform="translate(761 153)"><path d="M0 -6L5.2 -3L5.2 3L0 6L-5.2 3L-5.2 -3Z" stroke="#082400" fill="none" stroke-width="1"></path></g><g transform="translate(121 55)"><path d="M0 -7L6.1 -3.5L6.1 3.5L0 7L-6.1 3.5L-6.1 -3.5Z" stroke="#082400" fill="none" stroke-width="1"></path></g><g transform="translate(361 105)"><path d="M0 -7L6.1 -3.5L6.1 3.5L0 7L-6.1 3.5L-6.1 -3.5Z" stroke="#082400" fill="none" stroke-width="1"></path></g><g transform="translate(73 217)"><path d="M0 -11L9.5 -5.5L9.5 5.5L0 11L-9.5 5.5L-9.5 -5.5Z" stroke="#082400" fill="none" stroke-width="1"></path></g><g transform="translate(433 158)"><path d="M0 -9L7.8 -4.5L7.8 4.5L0 9L-7.8 4.5L-7.8 -4.5Z" stroke="#082400" fill="none" stroke-width="1"></path></g><g transform="translate(569 28)"><path d="M0 -6L5.2 -3L5.2 3L0 6L-5.2 3L-5.2 -3Z" stroke="#082400" fill="none" stroke-width="1"></path></g><g transform="translate(667 17)"><path d="M0 -12L10.4 -6L10.4 6L0 12L-10.4 6L-10.4 -6Z" stroke="#082400" fill="none" stroke-width="1"></path></g><g transform="translate(160 575)"><path d="M0 -9L7.8 -4.5L7.8 4.5L0 9L-7.8 4.5L-7.8 -4.5Z" stroke="#082400" fill="none" stroke-width="1"></path></g><g transform="translate(210 289)"><path d="M0 -10L8.7 -5L8.7 5L0 10L-8.7 5L-8.7 -5Z" stroke="#082400" fill="none" stroke-width="1"></path></g><g transform="translate(425 521)"><path d="M0 -11L9.5 -5.5L9.5 5.5L0 11L-9.5 5.5L-9.5 -5.5Z" stroke="#082400" fill="none" stroke-width="1"></path></g><g transform="translate(698 558)"><path d="M0 -7L6.1 -3.5L6.1 3.5L0 7L-6.1 3.5L-6.1 -3.5Z" stroke="#082400" fill="none" stroke-width="1"></path></g><g transform="translate(461 151)"><path d="M0 -8L6.9 -4L6.9 4L0 8L-6.9 4L-6.9 -4Z" stroke="#082400" fill="none" stroke-width="1"></path></g><g transform="translate(779 582)"><path d="M0 -7L6.1 -3.5L6.1 3.5L0 7L-6.1 3.5L-6.1 -3.5Z" stroke="#082400" fill="none" stroke-width="1"></path></g><g transform="translate(471 302)"><path d="M0 -7L6.1 -3.5L6.1 3.5L0 7L-6.1 3.5L-6.1 -3.5Z" stroke="#082400" fill="none" stroke-width="1"></path></g><g transform="translate(762 337)"><path d="M0 -12L10.4 -6L10.4 6L0 12L-10.4 6L-10.4 -6Z" stroke="#082400" fill="none" stroke-width="1"></path></g><g transform="translate(690 373)"><path d="M0 -11L9.5 -5.5L9.5 5.5L0 11L-9.5 5.5L-9.5 -5.5Z" stroke="#082400" fill="none" stroke-width="1"></path></g><g transform="translate(493 482)"><path d="M0 -9L7.8 -4.5L7.8 4.5L0 9L-7.8 4.5L-7.8 -4.5Z" stroke="#082400" fill="none" stroke-width="1"></path></g><g transform="translate(543 572)"><path d="M0 -12L10.4 -6L10.4 6L0 12L-10.4 6L-10.4 -6Z" stroke="#082400" fill="none" stroke-width="1"></path></g><g transform="translate(696 436)"><path d="M0 -10L8.7 -5L8.7 5L0 10L-8.7 5L-8.7 -5Z" stroke="#082400" fill="none" stroke-width="1"></path></g><g transform="translate(811 68)"><path d="M0 -12L10.4 -6L10.4 6L0 12L-10.4 6L-10.4 -6Z" stroke="#082400" fill="none" stroke-width="1"></path></g><g transform="translate(536 39)"><path d="M0 -7L6.1 -3.5L6.1 3.5L0 7L-6.1 3.5L-6.1 -3.5Z" stroke="#082400" fill="none" stroke-width="1"></path></g><g transform="translate(243 554)"><path d="M0 -10L8.7 -5L8.7 5L0 10L-8.7 5L-8.7 -5Z" stroke="#082400" fill="none" stroke-width="1"></path></g><g transform="translate(297 348)"><path d="M0 -8L6.9 -4L6.9 4L0 8L-6.9 4L-6.9 -4Z" stroke="#082400" fill="none" stroke-width="1"></path></g><g transform="translate(113 305)"><path d="M0 -8L6.9 -4L6.9 4L0 8L-6.9 4L-6.9 -4Z" stroke="#082400" fill="none" stroke-width="1"></path></g><g transform="translate(225 187)"><path d="M0 -11L9.5 -5.5L9.5 5.5L0 11L-9.5 5.5L-9.5 -5.5Z" stroke="#082400" fill="none" stroke-width="1"></path></g><g transform="translate(231 444)"><path d="M0 -7L6.1 -3.5L6.1 3.5L0 7L-6.1 3.5L-6.1 -3.5Z" stroke="#082400" fill="none" stroke-width="1"></path></g><g transform="translate(107 171)"><path d="M0 -6L5.2 -3L5.2 3L0 6L-5.2 3L-5.2 -3Z" stroke="#082400" fill="none" stroke-width="1"></path></g><g transform="translate(802 416)"><path d="M0 -10L8.7 -5L8.7 5L0 10L-8.7 5L-8.7 -5Z" stroke="#082400" fill="none" stroke-width="1"></path></g><g transform="translate(112 23)"><path d="M0 -10L8.7 -5L8.7 5L0 10L-8.7 5L-8.7 -5Z" stroke="#082400" fill="none" stroke-width="1"></path></g><g transform="translate(17 23)"><path d="M0 -7L6.1 -3.5L6.1 3.5L0 7L-6.1 3.5L-6.1 -3.5Z" stroke="#082400" fill="none" stroke-width="1"></path></g><g transform="translate(598 469)"><path d="M0 -10L8.7 -5L8.7 5L0 10L-8.7 5L-8.7 -5Z" stroke="#082400" fill="none" stroke-width="1"></path></g><g transform="translate(878 494)"><path d="M0 -6L5.2 -3L5.2 3L0 6L-5.2 3L-5.2 -3Z" stroke="#082400" fill="none" stroke-width="1"></path></g><g transform="translate(763 247)"><path d="M0 -7L6.1 -3.5L6.1 3.5L0 7L-6.1 3.5L-6.1 -3.5Z" stroke="#082400" fill="none" stroke-width="1"></path></g><g transform="translate(857 357)"><path d="M0 -7L6.1 -3.5L6.1 3.5L0 7L-6.1 3.5L-6.1 -3.5Z" stroke="#082400" fill="none" stroke-width="1"></path></g><g transform="translate(265 388)"><path d="M0 -6L5.2 -3L5.2 3L0 6L-5.2 3L-5.2 -3Z" stroke="#082400" fill="none" stroke-width="1"></path></g><g transform="translate(184 331)"><path d="M0 -10L8.7 -5L8.7 5L0 10L-8.7 5L-8.7 -5Z" stroke="#082400" fill="none" stroke-width="1"></path></g><g transform="translate(453 91)"><path d="M0 -6L5.2 -3L5.2 3L0 6L-5.2 3L-5.2 -3Z" stroke="#082400" fill="none" stroke-width="1"></path></g><g transform="translate(51 396)"><path d="M0 -9L7.8 -4.5L7.8 4.5L0 9L-7.8 4.5L-7.8 -4.5Z" stroke="#082400" fill="none" stroke-width="1"></path></g><g transform="translate(306 295)"><path d="M0 -12L10.4 -6L10.4 6L0 12L-10.4 6L-10.4 -6Z" stroke="#082400" fill="none" stroke-width="1"></path></g><g transform="translate(575 335)"><path d="M0 -11L9.5 -5.5L9.5 5.5L0 11L-9.5 5.5L-9.5 -5.5Z" stroke="#082400" fill="none" stroke-width="1"></path></g><g transform="translate(103 82)"><path d="M0 -6L5.2 -3L5.2 3L0 6L-5.2 3L-5.2 -3Z" stroke="#082400" fill="none" stroke-width="1"></path></g><g transform="translate(594 50)"><path d="M0 -10L8.7 -5L8.7 5L0 10L-8.7 5L-8.7 -5Z" stroke="#082400" fill="none" stroke-width="1"></path></g><g transform="translate(307 124)"><path d="M0 -12L10.4 -6L10.4 6L0 12L-10.4 6L-10.4 -6Z" stroke="#082400" fill="none" stroke-width="1"></path></g><g transform="translate(875 115)"><path d="M0 -7L6.1 -3.5L6.1 3.5L0 7L-6.1 3.5L-6.1 -3.5Z" stroke="#082400" fill="none" stroke-width="1"></path></g><g transform="translate(68 509)"><path d="M0 -8L6.9 -4L6.9 4L0 8L-6.9 4L-6.9 -4Z" stroke="#082400" fill="none" stroke-width="1"></path></g><g transform="translate(619 365)"><path d="M0 -9L7.8 -4.5L7.8 4.5L0 9L-7.8 4.5L-7.8 -4.5Z" stroke="#082400" fill="none" stroke-width="1"></path></g><g transform="translate(473 110)"><path d="M0 -8L6.9 -4L6.9 4L0 8L-6.9 4L-6.9 -4Z" stroke="#082400" fill="none" stroke-width="1"></path></g><g transform="translate(194 379)"><path d="M0 -9L7.8 -4.5L7.8 4.5L0 9L-7.8 4.5L-7.8 -4.5Z" stroke="#082400" fill="none" stroke-width="1"></path></g><g transform="translate(582 413)"><path d="M0 -7L6.1 -3.5L6.1 3.5L0 7L-6.1 3.5L-6.1 -3.5Z" stroke="#082400" fill="none" stroke-width="1"></path></g><g transform="translate(20 344)"><path d="M0 -9L7.8 -4.5L7.8 4.5L0 9L-7.8 4.5L-7.8 -4.5Z" stroke="#082400" fill="none" stroke-width="1"></path></g><g transform="translate(337 376)"><path d="M0 -11L9.5 -5.5L9.5 5.5L0 11L-9.5 5.5L-9.5 -5.5Z" stroke="#082400" fill="none" stroke-width="1"></path></g><g transform="translate(818 570)"><path d="M0 -8L6.9 -4L6.9 4L0 8L-6.9 4L-6.9 -4Z" stroke="#082400" fill="none" stroke-width="1"></path></g><g transform="translate(179 47)"><path d="M0 -7L6.1 -3.5L6.1 3.5L0 7L-6.1 3.5L-6.1 -3.5Z" stroke="#082400" fill="none" stroke-width="1"></path></g><g transform="translate(551 242)"><path d="M0 -12L10.4 -6L10.4 6L0 12L-10.4 6L-10.4 -6Z" stroke="#082400" fill="none" stroke-width="1"></path></g><g transform="translate(26 289)"><path d="M0 -9L7.8 -4.5L7.8 4.5L0 9L-7.8 4.5L-7.8 -4.5Z" stroke="#082400" fill="none" stroke-width="1"></path></g><g transform="translate(787 372)"><path d="M0 -8L6.9 -4L6.9 4L0 8L-6.9 4L-6.9 -4Z" stroke="#082400" fill="none" stroke-width="1"></path></g><g transform="translate(185 281)"><path d="M0 -11L9.5 -5.5L9.5 5.5L0 11L-9.5 5.5L-9.5 -5.5Z" stroke="#082400" fill="none" stroke-width="1"></path></g><g transform="translate(242 110)"><path d="M0 -8L6.9 -4L6.9 4L0 8L-6.9 4L-6.9 -4Z" stroke="#082400" fill="none" stroke-width="1"></path></g><g transform="translate(619 512)"><path d="M0 -10L8.7 -5L8.7 5L0 10L-8.7 5L-8.7 -5Z" stroke="#082400" fill="none" stroke-width="1"></path></g><g transform="translate(349 469)"><path d="M0 -12L10.4 -6L10.4 6L0 12L-10.4 6L-10.4 -6Z" stroke="#082400" fill="none" stroke-width="1"></path></g><g transform="translate(704 338)"><path d="M0 -10L8.7 -5L8.7 5L0 10L-8.7 5L-8.7 -5Z" stroke="#082400" fill="none" stroke-width="1"></path></g><g transform="translate(649 549)"><path d="M0 -6L5.2 -3L5.2 3L0 6L-5.2 3L-5.2 -3Z" stroke="#082400" fill="none" stroke-width="1"></path></g><g transform="translate(303 536)"><path d="M0 -12L10.4 -6L10.4 6L0 12L-10.4 6L-10.4 -6Z" stroke="#082400" fill="none" stroke-width="1"></path></g><g transform="translate(124 465)"><path d="M0 -7L6.1 -3.5L6.1 3.5L0 7L-6.1 3.5L-6.1 -3.5Z" stroke="#082400" fill="none" stroke-width="1"></path></g><g transform="translate(832 24)"><path d="M0 -8L6.9 -4L6.9 4L0 8L-6.9 4L-6.9 -4Z" stroke="#082400" fill="none" stroke-width="1"></path></g><g transform="translate(48 119)"><path d="M0 -10L8.7 -5L8.7 5L0 10L-8.7 5L-8.7 -5Z" stroke="#082400" fill="none" stroke-width="1"></path></g><g transform="translate(314 185)"><path d="M0 -8L6.9 -4L6.9 4L0 8L-6.9 4L-6.9 -4Z" stroke="#082400" fill="none" stroke-width="1"></path></g><g transform="translate(746 481)"><path d="M0 -8L6.9 -4L6.9 4L0 8L-6.9 4L-6.9 -4Z" stroke="#082400" fill="none" stroke-width="1"></path></g><g transform="translate(260 582)"><path d="M0 -10L8.7 -5L8.7 5L0 10L-8.7 5L-8.7 -5Z" stroke="#082400" fill="none" stroke-width="1"></path></g><g transform="translate(657 491)"><path d="M0 -8L6.9 -4L6.9 4L0 8L-6.9 4L-6.9 -4Z" stroke="#082400" fill="none" stroke-width="1"></path></g><g transform="translate(391 405)"><path d="M0 -8L6.9 -4L6.9 4L0 8L-6.9 4L-6.9 -4Z" stroke="#082400" fill="none" stroke-width="1"></path></g><g transform="translate(126 338)"><path d="M0 -11L9.5 -5.5L9.5 5.5L0 11L-9.5 5.5L-9.5 -5.5Z" stroke="#082400" fill="none" stroke-width="1"></path></g><g transform="translate(642 394)"><path d="M0 -8L6.9 -4L6.9 4L0 8L-6.9 4L-6.9 -4Z" stroke="#082400" fill="none" stroke-width="1"></path></g><g transform="translate(737 208)"><path d="M0 -9L7.8 -4.5L7.8 4.5L0 9L-7.8 4.5L-7.8 -4.5Z" stroke="#082400" fill="none" stroke-width="1"></path></g><g transform="translate(887 553)"><path d="M0 -7L6.1 -3.5L6.1 3.5L0 7L-6.1 3.5L-6.1 -3.5Z" stroke="#082400" fill="none" stroke-width="1"></path></g><g transform="translate(249 497)"><path d="M0 -6L5.2 -3L5.2 3L0 6L-5.2 3L-5.2 -3Z" stroke="#082400" fill="none" stroke-width="1"></path></g><g transform="translate(820 539)"><path d="M0 -9L7.8 -4.5L7.8 4.5L0 9L-7.8 4.5L-7.8 -4.5Z" stroke="#082400" fill="none" stroke-width="1"></path></g><g transform="translate(397 212)"><path d="M0 -6L5.2 -3L5.2 3L0 6L-5.2 3L-5.2 -3Z" stroke="#082400" fill="none" stroke-width="1"></path></g><g transform="translate(108 141)"><path d="M0 -7L6.1 -3.5L6.1 3.5L0 7L-6.1 3.5L-6.1 -3.5Z" stroke="#082400" fill="none" stroke-width="1"></path></g><g transform="translate(390 583)"><path d="M0 -6L5.2 -3L5.2 3L0 6L-5.2 3L-5.2 -3Z" stroke="#082400" fill="none" stroke-width="1"></path></g><g transform="translate(233 583)"><path d="M0 -7L6.1 -3.5L6.1 3.5L0 7L-6.1 3.5L-6.1 -3.5Z" stroke="#082400" fill="none" stroke-width="1"></path></g><g transform="translate(337 260)"><path d="M0 -12L10.4 -6L10.4 6L0 12L-10.4 6L-10.4 -6Z" stroke="#082400" fill="none" stroke-width="1"></path></g><g transform="translate(280 429)"><path d="M0 -8L6.9 -4L6.9 4L0 8L-6.9 4L-6.9 -4Z" stroke="#082400" fill="none" stroke-width="1"></path></g><g transform="translate(637 117)"><path d="M0 -6L5.2 -3L5.2 3L0 6L-5.2 3L-5.2 -3Z" stroke="#082400" fill="none" stroke-width="1"></path></g><g transform="translate(565 482)"><path d="M0 -9L7.8 -4.5L7.8 4.5L0 9L-7.8 4.5L-7.8 -4.5Z" stroke="#082400" fill="none" stroke-width="1"></path></g><g transform="translate(66 30)"><path d="M0 -6L5.2 -3L5.2 3L0 6L-5.2 3L-5.2 -3Z" stroke="#082400" fill="none" stroke-width="1"></path></g><g transform="translate(541 165)"><path d="M0 -6L5.2 -3L5.2 3L0 6L-5.2 3L-5.2 -3Z" stroke="#082400" fill="none" stroke-width="1"></path></g><g transform="translate(514 426)"><path d="M0 -9L7.8 -4.5L7.8 4.5L0 9L-7.8 4.5L-7.8 -4.5Z" stroke="#082400" fill="none" stroke-width="1"></path></g><g transform="translate(178 402)"><path d="M0 -6L5.2 -3L5.2 3L0 6L-5.2 3L-5.2 -3Z" stroke="#082400" fill="none" stroke-width="1"></path></g><g transform="translate(354 343)"><path d="M0 -6L5.2 -3L5.2 3L0 6L-5.2 3L-5.2 -3Z" stroke="#082400" fill="none" stroke-width="1"></path></g><g transform="translate(653 280)"><path d="M0 -10L8.7 -5L8.7 5L0 10L-8.7 5L-8.7 -5Z" stroke="#082400" fill="none" stroke-width="1"></path></g><g transform="translate(704 259)"><path d="M0 -6L5.2 -3L5.2 3L0 6L-5.2 3L-5.2 -3Z" stroke="#082400" fill="none" stroke-width="1"></path></g><g transform="translate(406 502)"><path d="M0 -11L9.5 -5.5L9.5 5.5L0 11L-9.5 5.5L-9.5 -5.5Z" stroke="#082400" fill="none" stroke-width="1"></path></g><g transform="translate(299 18)"><path d="M0 -11L9.5 -5.5L9.5 5.5L0 11L-9.5 5.5L-9.5 -5.5Z" stroke="#082400" fill="none" stroke-width="1"></path></g><g transform="translate(570 553)"><path d="M0 -12L10.4 -6L10.4 6L0 12L-10.4 6L-10.4 -6Z" stroke="#082400" fill="none" stroke-width="1"></path></g><g transform="translate(277 155)"><path d="M0 -12L10.4 -6L10.4 6L0 12L-10.4 6L-10.4 -6Z" stroke="#082400" fill="none" stroke-width="1"></path></g><g transform="translate(876 272)"><path d="M0 -10L8.7 -5L8.7 5L0 10L-8.7 5L-8.7 -5Z" stroke="#082400" fill="none" stroke-width="1"></path></g><g transform="translate(28 101)"><path d="M0 -8L6.9 -4L6.9 4L0 8L-6.9 4L-6.9 -4Z" stroke="#082400" fill="none" stroke-width="1"></path></g><g transform="translate(533 313)"><path d="M0 -9L7.8 -4.5L7.8 4.5L0 9L-7.8 4.5L-7.8 -4.5Z" stroke="#082400" fill="none" stroke-width="1"></path></g><g transform="translate(220 499)"><path d="M0 -6L5.2 -3L5.2 3L0 6L-5.2 3L-5.2 -3Z" stroke="#082400" fill="none" stroke-width="1"></path></g><g transform="translate(692 153)"><path d="M0 -7L6.1 -3.5L6.1 3.5L0 7L-6.1 3.5L-6.1 -3.5Z" stroke="#082400" fill="none" stroke-width="1"></path></g><g transform="translate(825 381)"><path d="M0 -7L6.1 -3.5L6.1 3.5L0 7L-6.1 3.5L-6.1 -3.5Z" stroke="#082400" fill="none" stroke-width="1"></path></g><g transform="translate(159 143)"><path d="M0 -9L7.8 -4.5L7.8 4.5L0 9L-7.8 4.5L-7.8 -4.5Z" stroke="#082400" fill="none" stroke-width="1"></path></g><g transform="translate(324 419)"><path d="M0 -7L6.1 -3.5L6.1 3.5L0 7L-6.1 3.5L-6.1 -3.5Z" stroke="#082400" fill="none" stroke-width="1"></path></g><g transform="translate(595 529)"><path d="M0 -10L8.7 -5L8.7 5L0 10L-8.7 5L-8.7 -5Z" stroke="#082400" fill="none" stroke-width="1"></path></g><g transform="translate(685 195)"><path d="M0 -6L5.2 -3L5.2 3L0 6L-5.2 3L-5.2 -3Z" stroke="#082400" fill="none" stroke-width="1"></path></g><g transform="translate(268 456)"><path d="M0 -11L9.5 -5.5L9.5 5.5L0 11L-9.5 5.5L-9.5 -5.5Z" stroke="#082400" fill="none" stroke-width="1"></path></g><g transform="translate(145 173)"><path d="M0 -9L7.8 -4.5L7.8 4.5L0 9L-7.8 4.5L-7.8 -4.5Z" stroke="#082400" fill="none" stroke-width="1"></path></g><g transform="translate(769 426)"><path d="M0 -6L5.2 -3L5.2 3L0 6L-5.2 3L-5.2 -3Z" stroke="#082400" fill="none" stroke-width="1"></path></g><g transform="translate(647 84)"><path d="M0 -12L10.4 -6L10.4 6L0 12L-10.4 6L-10.4 -6Z" stroke="#082400" fill="none" stroke-width="1"></path></g><g transform="translate(426 226)"><path d="M0 -9L7.8 -4.5L7.8 4.5L0 9L-7.8 4.5L-7.8 -4.5Z" stroke="#082400" fill="none" stroke-width="1"></path></g><g transform="translate(516 180)"><path d="M0 -11L9.5 -5.5L9.5 5.5L0 11L-9.5 5.5L-9.5 -5.5Z" stroke="#082400" fill="none" stroke-width="1"></path></g><g transform="translate(421 89)"><path d="M0 -6L5.2 -3L5.2 3L0 6L-5.2 3L-5.2 -3Z" stroke="#082400" fill="none" stroke-width="1"></path></g><g transform="translate(273 522)"><path d="M0 -7L6.1 -3.5L6.1 3.5L0 7L-6.1 3.5L-6.1 -3.5Z" stroke="#082400" fill="none" stroke-width="1"></path></g><g transform="translate(504 570)"><path d="M0 -6L5.2 -3L5.2 3L0 6L-5.2 3L-5.2 -3Z" stroke="#082400" fill="none" stroke-width="1"></path></g><g transform="translate(261 223)"><path d="M0 -10L8.7 -5L8.7 5L0 10L-8.7 5L-8.7 -5Z" stroke="#082400" fill="none" stroke-width="1"></path></g><g transform="translate(728 504)"><path d="M0 -11L9.5 -5.5L9.5 5.5L0 11L-9.5 5.5L-9.5 -5.5Z" stroke="#082400" fill="none" stroke-width="1"></path></g><g transform="translate(94 460)"><path d="M0 -6L5.2 -3L5.2 3L0 6L-5.2 3L-5.2 -3Z" stroke="#082400" fill="none" stroke-width="1"></path></g><g transform="translate(715 383)"><path d="M0 -10L8.7 -5L8.7 5L0 10L-8.7 5L-8.7 -5Z" stroke="#082400" fill="none" stroke-width="1"></path></g><g transform="translate(887 220)"><path d="M0 -10L8.7 -5L8.7 5L0 10L-8.7 5L-8.7 -5Z" stroke="#082400" fill="none" stroke-width="1"></path></g><g transform="translate(486 336)"><path d="M0 -9L7.8 -4.5L7.8 4.5L0 9L-7.8 4.5L-7.8 -4.5Z" stroke="#082400" fill="none" stroke-width="1"></path></g><g transform="translate(718 27)"><path d="M0 -9L7.8 -4.5L7.8 4.5L0 9L-7.8 4.5L-7.8 -4.5Z" stroke="#082400" fill="none" stroke-width="1"></path></g><g transform="translate(328 325)"><path d="M0 -11L9.5 -5.5L9.5 5.5L0 11L-9.5 5.5L-9.5 -5.5Z" stroke="#082400" fill="none" stroke-width="1"></path></g><g transform="translate(729 556)"><path d="M0 -6L5.2 -3L5.2 3L0 6L-5.2 3L-5.2 -3Z" stroke="#082400" fill="none" stroke-width="1"></path></g><g transform="translate(766 52)"><path d="M0 -10L8.7 -5L8.7 5L0 10L-8.7 5L-8.7 -5Z" stroke="#082400" fill="none" stroke-width="1"></path></g><g transform="translate(794 94)"><path d="M0 -9L7.8 -4.5L7.8 4.5L0 9L-7.8 4.5L-7.8 -4.5Z" stroke="#082400" fill="none" stroke-width="1"></path></g><g transform="translate(793 258)"><path d="M0 -8L6.9 -4L6.9 4L0 8L-6.9 4L-6.9 -4Z" stroke="#082400" fill="none" stroke-width="1"></path></g><g transform="translate(777 217)"><path d="M0 -11L9.5 -5.5L9.5 5.5L0 11L-9.5 5.5L-9.5 -5.5Z" stroke="#082400" fill="none" stroke-width="1"></path></g><g transform="translate(292 567)"><path d="M0 -12L10.4 -6L10.4 6L0 12L-10.4 6L-10.4 -6Z" stroke="#082400" fill="none" stroke-width="1"></path></g><g transform="translate(163 309)"><path d="M0 -10L8.7 -5L8.7 5L0 10L-8.7 5L-8.7 -5Z" stroke="#082400" fill="none" stroke-width="1"></path></g><g transform="translate(261 184)"><path d="M0 -11L9.5 -5.5L9.5 5.5L0 11L-9.5 5.5L-9.5 -5.5Z" stroke="#082400" fill="none" stroke-width="1"></path></g><g transform="translate(337 93)"><path d="M0 -10L8.7 -5L8.7 5L0 10L-8.7 5L-8.7 -5Z" stroke="#082400" fill="none" stroke-width="1"></path></g><g transform="translate(610 414)"><path d="M0 -7L6.1 -3.5L6.1 3.5L0 7L-6.1 3.5L-6.1 -3.5Z" stroke="#082400" fill="none" stroke-width="1"></path></g><g transform="translate(595 306)"><path d="M0 -7L6.1 -3.5L6.1 3.5L0 7L-6.1 3.5L-6.1 -3.5Z" stroke="#082400" fill="none" stroke-width="1"></path></g><g transform="translate(630 578)"><path d="M0 -7L6.1 -3.5L6.1 3.5L0 7L-6.1 3.5L-6.1 -3.5Z" stroke="#082400" fill="none" stroke-width="1"></path></g><g transform="translate(233 23)"><path d="M0 -7L6.1 -3.5L6.1 3.5L0 7L-6.1 3.5L-6.1 -3.5Z" stroke="#082400" fill="none" stroke-width="1"></path></g><g transform="translate(824 506)"><path d="M0 -8L6.9 -4L6.9 4L0 8L-6.9 4L-6.9 -4Z" stroke="#082400" fill="none" stroke-width="1"></path></g><g transform="translate(713 285)"><path d="M0 -7L6.1 -3.5L6.1 3.5L0 7L-6.1 3.5L-6.1 -3.5Z" stroke="#082400" fill="none" stroke-width="1"></path></g><g transform="translate(53 166)"><path d="M0 -8L6.9 -4L6.9 4L0 8L-6.9 4L-6.9 -4Z" stroke="#082400" fill="none" stroke-width="1"></path></g><g transform="translate(559 391)"><path d="M0 -7L6.1 -3.5L6.1 3.5L0 7L-6.1 3.5L-6.1 -3.5Z" stroke="#082400" fill="none" stroke-width="1"></path></g><g transform="translate(732 234)"><path d="M0 -6L5.2 -3L5.2 3L0 6L-5.2 3L-5.2 -3Z" stroke="#082400" fill="none" stroke-width="1"></path></g><g transform="translate(151 34)"><path d="M0 -9L7.8 -4.5L7.8 4.5L0 9L-7.8 4.5L-7.8 -4.5Z" stroke="#082400" fill="none" stroke-width="1"></path></g><g transform="translate(857 236)"><path d="M0 -9L7.8 -4.5L7.8 4.5L0 9L-7.8 4.5L-7.8 -4.5Z" stroke="#082400" fill="none" stroke-width="1"></path></g><g transform="translate(295 267)"><path d="M0 -7L6.1 -3.5L6.1 3.5L0 7L-6.1 3.5L-6.1 -3.5Z" stroke="#082400" fill="none" stroke-width="1"></path></g><g transform="translate(835 408)"><path d="M0 -10L8.7 -5L8.7 5L0 10L-8.7 5L-8.7 -5Z" stroke="#082400" fill="none" stroke-width="1"></path></g><g transform="translate(886 143)"><path d="M0 -9L7.8 -4.5L7.8 4.5L0 9L-7.8 4.5L-7.8 -4.5Z" stroke="#082400" fill="none" stroke-width="1"></path></g><g transform="translate(204 171)"><path d="M0 -6L5.2 -3L5.2 3L0 6L-5.2 3L-5.2 -3Z" stroke="#082400" fill="none" stroke-width="1"></path></g><g transform="translate(240 153)"><path d="M0 -11L9.5 -5.5L9.5 5.5L0 11L-9.5 5.5L-9.5 -5.5Z" stroke="#082400" fill="none" stroke-width="1"></path></g><g transform="translate(483 510)"><path d="M0 -6L5.2 -3L5.2 3L0 6L-5.2 3L-5.2 -3Z" stroke="#082400" fill="none" stroke-width="1"></path></g><g transform="translate(529 287)"><path d="M0 -7L6.1 -3.5L6.1 3.5L0 7L-6.1 3.5L-6.1 -3.5Z" stroke="#082400" fill="none" stroke-width="1"></path></g><g transform="translate(90 105)"><path d="M0 -6L5.2 -3L5.2 3L0 6L-5.2 3L-5.2 -3Z" stroke="#082400" fill="none" stroke-width="1"></path></g><g transform="translate(86 319)"><path d="M0 -12L10.4 -6L10.4 6L0 12L-10.4 6L-10.4 -6Z" stroke="#082400" fill="none" stroke-width="1"></path></g><g transform="translate(474 43)"><path d="M0 -10L8.7 -5L8.7 5L0 10L-8.7 5L-8.7 -5Z" stroke="#082400" fill="none" stroke-width="1"></path></g><g transform="translate(72 584)"><path d="M0 -10L8.7 -5L8.7 5L0 10L-8.7 5L-8.7 -5Z" stroke="#082400" fill="none" stroke-width="1"></path></g><g transform="translate(289 320)"><path d="M0 -8L6.9 -4L6.9 4L0 8L-6.9 4L-6.9 -4Z" stroke="#082400" fill="none" stroke-width="1"></path></g><g transform="translate(80 175)"><path d="M0 -7L6.1 -3.5L6.1 3.5L0 7L-6.1 3.5L-6.1 -3.5Z" stroke="#082400" fill="none" stroke-width="1"></path></g><g transform="translate(305 232)"><path d="M0 -11L9.5 -5.5L9.5 5.5L0 11L-9.5 5.5L-9.5 -5.5Z" stroke="#082400" fill="none" stroke-width="1"></path></g><g transform="translate(620 94)"><path d="M0 -6L5.2 -3L5.2 3L0 6L-5.2 3L-5.2 -3Z" stroke="#082400" fill="none" stroke-width="1"></path></g><g transform="translate(596 440)"><path d="M0 -7L6.1 -3.5L6.1 3.5L0 7L-6.1 3.5L-6.1 -3.5Z" stroke="#082400" fill="none" stroke-width="1"></path></g><g transform="translate(403 64)"><path d="M0 -8L6.9 -4L6.9 4L0 8L-6.9 4L-6.9 -4Z" stroke="#082400" fill="none" stroke-width="1"></path></g><g transform="translate(731 90)"><path d="M0 -11L9.5 -5.5L9.5 5.5L0 11L-9.5 5.5L-9.5 -5.5Z" stroke="#082400" fill="none" stroke-width="1"></path></g><g transform="translate(57 453)"><path d="M0 -10L8.7 -5L8.7 5L0 10L-8.7 5L-8.7 -5Z" stroke="#082400" fill="none" stroke-width="1"></path></g><g transform="translate(217 544)"><path d="M0 -12L10.4 -6L10.4 6L0 12L-10.4 6L-10.4 -6Z" stroke="#082400" fill="none" stroke-width="1"></path></g><g transform="translate(16 207)"><path d="M0 -7L6.1 -3.5L6.1 3.5L0 7L-6.1 3.5L-6.1 -3.5Z" stroke="#082400" fill="none" stroke-width="1"></path></g><g transform="translate(363 577)"><path d="M0 -10L8.7 -5L8.7 5L0 10L-8.7 5L-8.7 -5Z" stroke="#082400" fill="none" stroke-width="1"></path></g><g transform="translate(386 450)"><path d="M0 -9L7.8 -4.5L7.8 4.5L0 9L-7.8 4.5L-7.8 -4.5Z" stroke="#082400" fill="none" stroke-width="1"></path></g><g transform="translate(884 346)"><path d="M0 -8L6.9 -4L6.9 4L0 8L-6.9 4L-6.9 -4Z" stroke="#082400" fill="none" stroke-width="1"></path></g><g transform="translate(549 362)"><path d="M0 -12L10.4 -6L10.4 6L0 12L-10.4 6L-10.4 -6Z" stroke="#082400" fill="none" stroke-width="1"></path></g><g transform="translate(101 550)"><path d="M0 -12L10.4 -6L10.4 6L0 12L-10.4 6L-10.4 -6Z" stroke="#082400" fill="none" stroke-width="1"></path></g><g transform="translate(447 15)"><path d="M0 -11L9.5 -5.5L9.5 5.5L0 11L-9.5 5.5L-9.5 -5.5Z" stroke="#082400" fill="none" stroke-width="1"></path></g><g transform="translate(633 460)"><path d="M0 -10L8.7 -5L8.7 5L0 10L-8.7 5L-8.7 -5Z" stroke="#082400" fill="none" stroke-width="1"></path></g><g transform="translate(144 222)"><path d="M0 -9L7.8 -4.5L7.8 4.5L0 9L-7.8 4.5L-7.8 -4.5Z" stroke="#082400" fill="none" stroke-width="1"></path></g><g transform="translate(267 298)"><path d="M0 -10L8.7 -5L8.7 5L0 10L-8.7 5L-8.7 -5Z" stroke="#082400" fill="none" stroke-width="1"></path></g><g transform="translate(792 457)"><path d="M0 -6L5.2 -3L5.2 3L0 6L-5.2 3L-5.2 -3Z" stroke="#082400" fill="none" stroke-width="1"></path></g><g transform="translate(688 507)"><path d="M0 -8L6.9 -4L6.9 4L0 8L-6.9 4L-6.9 -4Z" stroke="#082400" fill="none" stroke-width="1"></path></g><g transform="translate(167 454)"><path d="M0 -8L6.9 -4L6.9 4L0 8L-6.9 4L-6.9 -4Z" stroke="#082400" fill="none" stroke-width="1"></path></g><g transform="translate(669 464)"><path d="M0 -7L6.1 -3.5L6.1 3.5L0 7L-6.1 3.5L-6.1 -3.5Z" stroke="#082400" fill="none" stroke-width="1"></path></g><g transform="translate(782 16)"><path d="M0 -8L6.9 -4L6.9 4L0 8L-6.9 4L-6.9 -4Z" stroke="#082400" fill="none" stroke-width="1"></path></g><g transform="translate(713 186)"><path d="M0 -6L5.2 -3L5.2 3L0 6L-5.2 3L-5.2 -3Z" stroke="#082400" fill="none" stroke-width="1"></path></g><g transform="translate(94 55)"><path d="M0 -6L5.2 -3L5.2 3L0 6L-5.2 3L-5.2 -3Z" stroke="#082400" fill="none" stroke-width="1"></path></g><g transform="translate(382 269)"><path d="M0 -11L9.5 -5.5L9.5 5.5L0 11L-9.5 5.5L-9.5 -5.5Z" stroke="#082400" fill="none" stroke-width="1"></path></g><g transform="translate(26 73)"><path d="M0 -10L8.7 -5L8.7 5L0 10L-8.7 5L-8.7 -5Z" stroke="#082400" fill="none" stroke-width="1"></path></g><g transform="translate(40 262)"><path d="M0 -9L7.8 -4.5L7.8 4.5L0 9L-7.8 4.5L-7.8 -4.5Z" stroke="#082400" fill="none" stroke-width="1"></path></g><g transform="translate(381 341)"><path d="M0 -9L7.8 -4.5L7.8 4.5L0 9L-7.8 4.5L-7.8 -4.5Z" stroke="#082400" fill="none" stroke-width="1"></path></g><g transform="translate(23 529)"><path d="M0 -6L5.2 -3L5.2 3L0 6L-5.2 3L-5.2 -3Z" stroke="#082400" fill="none" stroke-width="1"></path></g><g transform="translate(173 168)"><path d="M0 -8L6.9 -4L6.9 4L0 8L-6.9 4L-6.9 -4Z" stroke="#082400" fill="none" stroke-width="1"></path></g><g transform="translate(572 455)"><path d="M0 -11L9.5 -5.5L9.5 5.5L0 11L-9.5 5.5L-9.5 -5.5Z" stroke="#082400" fill="none" stroke-width="1"></path></g><g transform="translate(670 172)"><path d="M0 -9L7.8 -4.5L7.8 4.5L0 9L-7.8 4.5L-7.8 -4.5Z" stroke="#082400" fill="none" stroke-width="1"></path></g><g transform="translate(877 443)"><path d="M0 -7L6.1 -3.5L6.1 3.5L0 7L-6.1 3.5L-6.1 -3.5Z" stroke="#082400" fill="none" stroke-width="1"></path></g><g transform="translate(885 373)"><path d="M0 -12L10.4 -6L10.4 6L0 12L-10.4 6L-10.4 -6Z" stroke="#082400" fill="none" stroke-width="1"></path></g><g transform="translate(84 348)"><path d="M0 -6L5.2 -3L5.2 3L0 6L-5.2 3L-5.2 -3Z" stroke="#082400" fill="none" stroke-width="1"></path></g><g transform="translate(362 503)"><path d="M0 -9L7.8 -4.5L7.8 4.5L0 9L-7.8 4.5L-7.8 -4.5Z" stroke="#082400" fill="none" stroke-width="1"></path></g><g transform="translate(359 14)"><path d="M0 -11L9.5 -5.5L9.5 5.5L0 11L-9.5 5.5L-9.5 -5.5Z" stroke="#082400" fill="none" stroke-width="1"></path></g><g transform="translate(649 306)"><path d="M0 -7L6.1 -3.5L6.1 3.5L0 7L-6.1 3.5L-6.1 -3.5Z" stroke="#082400" fill="none" stroke-width="1"></path></g><g transform="translate(220 315)"><path d="M0 -10L8.7 -5L8.7 5L0 10L-8.7 5L-8.7 -5Z" stroke="#082400" fill="none" stroke-width="1"></path></g><g transform="translate(200 28)"><path d="M0 -11L9.5 -5.5L9.5 5.5L0 11L-9.5 5.5L-9.5 -5.5Z" stroke="#082400" fill="none" stroke-width="1"></path></g><g transform="translate(194 254)"><path d="M0 -10L8.7 -5L8.7 5L0 10L-8.7 5L-8.7 -5Z" stroke="#082400" fill="none" stroke-width="1"></path></g><g transform="translate(785 139)"><path d="M0 -6L5.2 -3L5.2 3L0 6L-5.2 3L-5.2 -3Z" stroke="#082400" fill="none" stroke-width="1"></path></g><g transform="translate(743 587)"><path d="M0 -12L10.4 -6L10.4 6L0 12L-10.4 6L-10.4 -6Z" stroke="#082400" fill="none" stroke-width="1"></path></g><g transform="translate(142 94)"><path d="M0 -11L9.5 -5.5L9.5 5.5L0 11L-9.5 5.5L-9.5 -5.5Z" stroke="#082400" fill="none" stroke-width="1"></path></g><g transform="translate(721 159)"><path d="M0 -6L5.2 -3L5.2 3L0 6L-5.2 3L-5.2 -3Z" stroke="#082400" fill="none" stroke-width="1"></path></g><g transform="translate(505 102)"><path d="M0 -6L5.2 -3L5.2 3L0 6L-5.2 3L-5.2 -3Z" stroke="#082400" fill="none" stroke-width="1"></path></g><g transform="translate(660 429)"><path d="M0 -6L5.2 -3L5.2 3L0 6L-5.2 3L-5.2 -3Z" stroke="#082400" fill="none" stroke-width="1"></path></g><g transform="translate(448 242)"><path d="M0 -7L6.1 -3.5L6.1 3.5L0 7L-6.1 3.5L-6.1 -3.5Z" stroke="#082400" fill="none" stroke-width="1"></path></g><g transform="translate(439 443)"><path d="M0 -8L6.9 -4L6.9 4L0 8L-6.9 4L-6.9 -4Z" stroke="#082400" fill="none" stroke-width="1"></path></g><g transform="translate(198 106)"><path d="M0 -7L6.1 -3.5L6.1 3.5L0 7L-6.1 3.5L-6.1 -3.5Z" stroke="#082400" fill="none" stroke-width="1"></path></g><g transform="translate(702 123)"><path d="M0 -8L6.9 -4L6.9 4L0 8L-6.9 4L-6.9 -4Z" stroke="#082400" fill="none" stroke-width="1"></path></g><g transform="translate(356 401)"><path d="M0 -7L6.1 -3.5L6.1 3.5L0 7L-6.1 3.5L-6.1 -3.5Z" stroke="#082400" fill="none" stroke-width="1"></path></g><g transform="translate(834 340)"><path d="M0 -6L5.2 -3L5.2 3L0 6L-5.2 3L-5.2 -3Z" stroke="#082400" fill="none" stroke-width="1"></path></g><g transform="translate(740 263)"><path d="M0 -11L9.5 -5.5L9.5 5.5L0 11L-9.5 5.5L-9.5 -5.5Z" stroke="#082400" fill="none" stroke-width="1"></path></g><g transform="translate(885 584)"><path d="M0 -7L6.1 -3.5L6.1 3.5L0 7L-6.1 3.5L-6.1 -3.5Z" stroke="#082400" fill="none" stroke-width="1"></path></g><g transform="translate(650 142)"><path d="M0 -9L7.8 -4.5L7.8 4.5L0 9L-7.8 4.5L-7.8 -4.5Z" stroke="#082400" fill="none" stroke-width="1"></path></g><g transform="translate(231 83)"><path d="M0 -6L5.2 -3L5.2 3L0 6L-5.2 3L-5.2 -3Z" stroke="#082400" fill="none" stroke-width="1"></path></g><g transform="translate(510 542)"><path d="M0 -9L7.8 -4.5L7.8 4.5L0 9L-7.8 4.5L-7.8 -4.5Z" stroke="#082400" fill="none" stroke-width="1"></path></g><g transform="translate(790 556)"><path d="M0 -8L6.9 -4L6.9 4L0 8L-6.9 4L-6.9 -4Z" stroke="#082400" fill="none" stroke-width="1"></path></g><g transform="translate(774 490)"><path d="M0 -12L10.4 -6L10.4 6L0 12L-10.4 6L-10.4 -6Z" stroke="#082400" fill="none" stroke-width="1"></path></g><g transform="translate(23 406)"><path d="M0 -8L6.9 -4L6.9 4L0 8L-6.9 4L-6.9 -4Z" stroke="#082400" fill="none" stroke-width="1"></path></g><g transform="translate(315 477)"><path d="M0 -6L5.2 -3L5.2 3L0 6L-5.2 3L-5.2 -3Z" stroke="#082400" fill="none" stroke-width="1"></path></g><g transform="translate(477 72)"><path d="M0 -8L6.9 -4L6.9 4L0 8L-6.9 4L-6.9 -4Z" stroke="#082400" fill="none" stroke-width="1"></path></g><g transform="translate(40 366)"><path d="M0 -6L5.2 -3L5.2 3L0 6L-5.2 3L-5.2 -3Z" stroke="#082400" fill="none" stroke-width="1"></path></g><g transform="translate(325 352)"><path d="M0 -9L7.8 -4.5L7.8 4.5L0 9L-7.8 4.5L-7.8 -4.5Z" stroke="#082400" fill="none" stroke-width="1"></path></g><g transform="translate(717 531)"><path d="M0 -8L6.9 -4L6.9 4L0 8L-6.9 4L-6.9 -4Z" stroke="#082400" fill="none" stroke-width="1"></path></g><g transform="translate(283 63)"><path d="M0 -10L8.7 -5L8.7 5L0 10L-8.7 5L-8.7 -5Z" stroke="#082400" fill="none" stroke-width="1"></path></g><g transform="translate(162 532)"><path d="M0 -9L7.8 -4.5L7.8 4.5L0 9L-7.8 4.5L-7.8 -4.5Z" stroke="#082400" fill="none" stroke-width="1"></path></g><g transform="translate(58 293)"><path d="M0 -9L7.8 -4.5L7.8 4.5L0 9L-7.8 4.5L-7.8 -4.5Z" stroke="#082400" fill="none" stroke-width="1"></path></g><g transform="translate(364 249)"><path d="M0 -10L8.7 -5L8.7 5L0 10L-8.7 5L-8.7 -5Z" stroke="#082400" fill="none" stroke-width="1"></path></g><g transform="translate(833 52)"><path d="M0 -9L7.8 -4.5L7.8 4.5L0 9L-7.8 4.5L-7.8 -4.5Z" stroke="#082400" fill="none" stroke-width="1"></path></g><g transform="translate(407 188)"><path d="M0 -12L10.4 -6L10.4 6L0 12L-10.4 6L-10.4 -6Z" stroke="#082400" fill="none" stroke-width="1"></path></g><g transform="translate(738 54)"><path d="M0 -6L5.2 -3L5.2 3L0 6L-5.2 3L-5.2 -3Z" stroke="#082400" fill="none" stroke-width="1"></path></g><g transform="translate(14 499)"><path d="M0 -10L8.7 -5L8.7 5L0 10L-8.7 5L-8.7 -5Z" stroke="#082400" fill="none" stroke-width="1"></path></g><g transform="translate(450 478)"><path d="M0 -7L6.1 -3.5L6.1 3.5L0 7L-6.1 3.5L-6.1 -3.5Z" stroke="#082400" fill="none" stroke-width="1"></path></g><g transform="translate(373 224)"><path d="M0 -10L8.7 -5L8.7 5L0 10L-8.7 5L-8.7 -5Z" stroke="#082400" fill="none" stroke-width="1"></path></g><g transform="translate(602 342)"><path d="M0 -12L10.4 -6L10.4 6L0 12L-10.4 6L-10.4 -6Z" stroke="#082400" fill="none" stroke-width="1"></path></g><g transform="translate(862 204)"><path d="M0 -8L6.9 -4L6.9 4L0 8L-6.9 4L-6.9 -4Z" stroke="#082400" fill="none" stroke-width="1"></path></g><g transform="translate(716 581)"><path d="M0 -11L9.5 -5.5L9.5 5.5L0 11L-9.5 5.5L-9.5 -5.5Z" stroke="#082400" fill="none" stroke-width="1"></path></g><g transform="translate(42 507)"><path d="M0 -7L6.1 -3.5L6.1 3.5L0 7L-6.1 3.5L-6.1 -3.5Z" stroke="#082400" fill="none" stroke-width="1"></path></g><g transform="translate(154 334)"><path d="M0 -10L8.7 -5L8.7 5L0 10L-8.7 5L-8.7 -5Z" stroke="#082400" fill="none" stroke-width="1"></path></g><g transform="translate(581 507)"><path d="M0 -11L9.5 -5.5L9.5 5.5L0 11L-9.5 5.5L-9.5 -5.5Z" stroke="#082400" fill="none" stroke-width="1"></path></g><g transform="translate(81 437)"><path d="M0 -6L5.2 -3L5.2 3L0 6L-5.2 3L-5.2 -3Z" stroke="#082400" fill="none" stroke-width="1"></path></g><g transform="translate(851 490)"><path d="M0 -6L5.2 -3L5.2 3L0 6L-5.2 3L-5.2 -3Z" stroke="#082400" fill="none" stroke-width="1"></path></g><g transform="translate(732 438)"><path d="M0 -6L5.2 -3L5.2 3L0 6L-5.2 3L-5.2 -3Z" stroke="#082400" fill="none" stroke-width="1"></path></g><g transform="translate(51 540)"><path d="M0 -7L6.1 -3.5L6.1 3.5L0 7L-6.1 3.5L-6.1 -3.5Z" stroke="#082400" fill="none" stroke-width="1"></path></g><g transform="translate(886 55)"><path d="M0 -11L9.5 -5.5L9.5 5.5L0 11L-9.5 5.5L-9.5 -5.5Z" stroke="#082400" fill="none" stroke-width="1"></path></g><g transform="translate(129 198)"><path d="M0 -8L6.9 -4L6.9 4L0 8L-6.9 4L-6.9 -4Z" stroke="#082400" fill="none" stroke-width="1"></path></g><g transform="translate(418 584)"><path d="M0 -9L7.8 -4.5L7.8 4.5L0 9L-7.8 4.5L-7.8 -4.5Z" stroke="#082400" fill="none" stroke-width="1"></path></g><g transform="translate(451 531)"><path d="M0 -7L6.1 -3.5L6.1 3.5L0 7L-6.1 3.5L-6.1 -3.5Z" stroke="#082400" fill="none" stroke-width="1"></path></g><g transform="translate(759 377)"><path d="M0 -6L5.2 -3L5.2 3L0 6L-5.2 3L-5.2 -3Z" stroke="#082400" fill="none" stroke-width="1"></path></g><g transform="translate(786 322)"><path d="M0 -11L9.5 -5.5L9.5 5.5L0 11L-9.5 5.5L-9.5 -5.5Z" stroke="#082400" fill="none" stroke-width="1"></path></g><g transform="translate(735 324)"><path d="M0 -10L8.7 -5L8.7 5L0 10L-8.7 5L-8.7 -5Z" stroke="#082400" fill="none" stroke-width="1"></path></g><g transform="translate(590 13)"><path d="M0 -10L8.7 -5L8.7 5L0 10L-8.7 5L-8.7 -5Z" stroke="#082400" fill="none" stroke-width="1"></path></g><g transform="translate(860 323)"><path d="M0 -9L7.8 -4.5L7.8 4.5L0 9L-7.8 4.5L-7.8 -4.5Z" stroke="#082400" fill="none" stroke-width="1"></path></g><g transform="translate(185 76)"><path d="M0 -8L6.9 -4L6.9 4L0 8L-6.9 4L-6.9 -4Z" stroke="#082400" fill="none" stroke-width="1"></path></g><g transform="translate(843 587)"><path d="M0 -11L9.5 -5.5L9.5 5.5L0 11L-9.5 5.5L-9.5 -5.5Z" stroke="#082400" fill="none" stroke-width="1"></path></g><g transform="translate(454 214)"><path d="M0 -10L8.7 -5L8.7 5L0 10L-8.7 5L-8.7 -5Z" stroke="#082400" fill="none" stroke-width="1"></path></g><g transform="translate(675 344)"><path d="M0 -9L7.8 -4.5L7.8 4.5L0 9L-7.8 4.5L-7.8 -4.5Z" stroke="#082400" fill="none" stroke-width="1"></path></g><g transform="translate(886 247)"><path d="M0 -9L7.8 -4.5L7.8 4.5L0 9L-7.8 4.5L-7.8 -4.5Z" stroke="#082400" fill="none" stroke-width="1"></path></g><g transform="translate(359 176)"><path d="M0 -8L6.9 -4L6.9 4L0 8L-6.9 4L-6.9 -4Z" stroke="#082400" fill="none" stroke-width="1"></path></g><g transform="translate(245 525)"><path d="M0 -7L6.1 -3.5L6.1 3.5L0 7L-6.1 3.5L-6.1 -3.5Z" stroke="#082400" fill="none" stroke-width="1"></path></g><g transform="translate(356 551)"><path d="M0 -6L5.2 -3L5.2 3L0 6L-5.2 3L-5.2 -3Z" stroke="#082400" fill="none" stroke-width="1"></path></g><g transform="translate(806 221)"><path d="M0 -7L6.1 -3.5L6.1 3.5L0 7L-6.1 3.5L-6.1 -3.5Z" stroke="#082400" fill="none" stroke-width="1"></path></g><g transform="translate(235 212)"><path d="M0 -10L8.7 -5L8.7 5L0 10L-8.7 5L-8.7 -5Z" stroke="#082400" fill="none" stroke-width="1"></path></g><g transform="translate(186 224)"><path d="M0 -10L8.7 -5L8.7 5L0 10L-8.7 5L-8.7 -5Z" stroke="#082400" fill="none" stroke-width="1"></path></g><g transform="translate(46 214)"><path d="M0 -10L8.7 -5L8.7 5L0 10L-8.7 5L-8.7 -5Z" stroke="#082400" fill="none" stroke-width="1"></path></g><g transform="translate(500 262)"><path d="M0 -12L10.4 -6L10.4 6L0 12L-10.4 6L-10.4 -6Z" stroke="#082400" fill="none" stroke-width="1"></path></g><g transform="translate(704 409)"><path d="M0 -8L6.9 -4L6.9 4L0 8L-6.9 4L-6.9 -4Z" stroke="#082400" fill="none" stroke-width="1"></path></g><g transform="translate(221 382)"><path d="M0 -10L8.7 -5L8.7 5L0 10L-8.7 5L-8.7 -5Z" stroke="#082400" fill="none" stroke-width="1"></path></g><g transform="translate(451 417)"><path d="M0 -7L6.1 -3.5L6.1 3.5L0 7L-6.1 3.5L-6.1 -3.5Z" stroke="#082400" fill="none" stroke-width="1"></path></g><g transform="translate(566 309)"><path d="M0 -10L8.7 -5L8.7 5L0 10L-8.7 5L-8.7 -5Z" stroke="#082400" fill="none" stroke-width="1"></path></g><g transform="translate(163 427)"><path d="M0 -11L9.5 -5.5L9.5 5.5L0 11L-9.5 5.5L-9.5 -5.5Z" stroke="#082400" fill="none" stroke-width="1"></path></g><g transform="translate(847 124)"><path d="M0 -9L7.8 -4.5L7.8 4.5L0 9L-7.8 4.5L-7.8 -4.5Z" stroke="#082400" fill="none" stroke-width="1"></path></g><g transform="translate(473 14)"><path d="M0 -9L7.8 -4.5L7.8 4.5L0 9L-7.8 4.5L-7.8 -4.5Z" stroke="#082400" fill="none" stroke-width="1"></path></g><g transform="translate(75 407)"><path d="M0 -6L5.2 -3L5.2 3L0 6L-5.2 3L-5.2 -3Z" stroke="#082400" fill="none" stroke-width="1"></path></g><g transform="translate(849 266)"><path d="M0 -10L8.7 -5L8.7 5L0 10L-8.7 5L-8.7 -5Z" stroke="#082400" fill="none" stroke-width="1"></path></g><g transform="translate(516 153)"><path d="M0 -6L5.2 -3L5.2 3L0 6L-5.2 3L-5.2 -3Z" stroke="#082400" fill="none" stroke-width="1"></path></g><g transform="translate(323 555)"><path d="M0 -12L10.4 -6L10.4 6L0 12L-10.4 6L-10.4 -6Z" stroke="#082400" fill="none" stroke-width="1"></path></g><g transform="translate(183 129)"><path d="M0 -9L7.8 -4.5L7.8 4.5L0 9L-7.8 4.5L-7.8 -4.5Z" stroke="#082400" fill="none" stroke-width="1"></path></g><g transform="translate(562 526)"><path d="M0 -10L8.7 -5L8.7 5L0 10L-8.7 5L-8.7 -5Z" stroke="#082400" fill="none" stroke-width="1"></path></g><g transform="translate(567 146)"><path d="M0 -9L7.8 -4.5L7.8 4.5L0 9L-7.8 4.5L-7.8 -4.5Z" stroke="#082400" fill="none" stroke-width="1"></path></g><g transform="translate(337 121)"><path d="M0 -7L6.1 -3.5L6.1 3.5L0 7L-6.1 3.5L-6.1 -3.5Z" stroke="#082400" fill="none" stroke-width="1"></path></g><g transform="translate(525 484)"><path d="M0 -11L9.5 -5.5L9.5 5.5L0 11L-9.5 5.5L-9.5 -5.5Z" stroke="#082400" fill="none" stroke-width="1"></path></g><g transform="translate(16 584)"><path d="M0 -9L7.8 -4.5L7.8 4.5L0 9L-7.8 4.5L-7.8 -4.5Z" stroke="#082400" fill="none" stroke-width="1"></path></g><g transform="translate(630 487)"><path d="M0 -6L5.2 -3L5.2 3L0 6L-5.2 3L-5.2 -3Z" stroke="#082400" fill="none" stroke-width="1"></path></g><g transform="translate(235 49)"><path d="M0 -12L10.4 -6L10.4 6L0 12L-10.4 6L-10.4 -6Z" stroke="#082400" fill="none" stroke-width="1"></path></g><g transform="translate(43 14)"><path d="M0 -11L9.5 -5.5L9.5 5.5L0 11L-9.5 5.5L-9.5 -5.5Z" stroke="#082400" fill="none" stroke-width="1"></path></g><g transform="translate(407 139)"><path d="M0 -6L5.2 -3L5.2 3L0 6L-5.2 3L-5.2 -3Z" stroke="#082400" fill="none" stroke-width="1"></path></g><g transform="translate(581 199)"><path d="M0 -11L9.5 -5.5L9.5 5.5L0 11L-9.5 5.5L-9.5 -5.5Z" stroke="#082400" fill="none" stroke-width="1"></path></g><g transform="translate(645 519)"><path d="M0 -12L10.4 -6L10.4 6L0 12L-10.4 6L-10.4 -6Z" stroke="#082400" fill="none" stroke-width="1"></path></g><g transform="translate(538 411)"><path d="M0 -8L6.9 -4L6.9 4L0 8L-6.9 4L-6.9 -4Z" stroke="#082400" fill="none" stroke-width="1"></path></g><g transform="translate(133 148)"><path d="M0 -9L7.8 -4.5L7.8 4.5L0 9L-7.8 4.5L-7.8 -4.5Z" stroke="#082400" fill="none" stroke-width="1"></path></g><g transform="translate(623 543)"><path d="M0 -9L7.8 -4.5L7.8 4.5L0 9L-7.8 4.5L-7.8 -4.5Z" stroke="#082400" fill="none" stroke-width="1"></path></g><g transform="translate(853 388)"><path d="M0 -7L6.1 -3.5L6.1 3.5L0 7L-6.1 3.5L-6.1 -3.5Z" stroke="#082400" fill="none" stroke-width="1"></path></g><g transform="translate(268 97)"><path d="M0 -6L5.2 -3L5.2 3L0 6L-5.2 3L-5.2 -3Z" stroke="#082400" fill="none" stroke-width="1"></path></g><g transform="translate(811 285)"><path d="M0 -6L5.2 -3L5.2 3L0 6L-5.2 3L-5.2 -3Z" stroke="#082400" fill="none" stroke-width="1"></path></g><g transform="translate(329 450)"><path d="M0 -9L7.8 -4.5L7.8 4.5L0 9L-7.8 4.5L-7.8 -4.5Z" stroke="#082400" fill="none" stroke-width="1"></path></g><g transform="translate(688 236)"><path d="M0 -12L10.4 -6L10.4 6L0 12L-10.4 6L-10.4 -6Z" stroke="#082400" fill="none" stroke-width="1"></path></g><g transform="translate(712 311)"><path d="M0 -10L8.7 -5L8.7 5L0 10L-8.7 5L-8.7 -5Z" stroke="#082400" fill="none" stroke-width="1"></path></g><g transform="translate(16 125)"><path d="M0 -8L6.9 -4L6.9 4L0 8L-6.9 4L-6.9 -4Z" stroke="#082400" fill="none" stroke-width="1"></path></g><g transform="translate(549 335)"><path d="M0 -10L8.7 -5L8.7 5L0 10L-8.7 5L-8.7 -5Z" stroke="#082400" fill="none" stroke-width="1"></path></g></g></svg>